<svg width="23" height="23" viewBox="0 0 23 23" fill="none" xmlns="http://www.w3.org/2000/svg">
<rect width="23" height="23" rx="11.5" fill="#D9D9D9"/>
<path d="M19 16C19 16.5523 18.5523 17 18 17H6C5.44772 17 5 16.5523 5 16V10C5 9.44772 5.44772 9 6 9H7.17157C7.96722 9 8.73028 8.68393 9.29289 8.12132L10.1213 7.29289C10.3089 7.10536 10.5632 7 10.8284 7H13.1716C13.4368 7 13.6911 7.10536 13.8787 7.29289L14.7071 8.12132C15.2697 8.68393 16.0328 9 16.8284 9H18C18.5523 9 19 9.44772 19 10V16ZM6 8C4.89543 8 4 8.89543 4 10V16C4 17.1046 4.89543 18 6 18H18C19.1046 18 20 17.1046 20 16V10C20 8.89543 19.1046 8 18 8H16.8284C16.298 8 15.7893 7.78929 15.4142 7.41421L14.5858 6.58579C14.2107 6.21071 13.702 6 13.1716 6H10.8284C10.298 6 9.78929 6.21071 9.41421 6.58579L8.58579 7.41421C8.21071 7.78929 7.70201 8 7.17157 8H6Z" fill="black"/>
<path d="M12 15C10.6193 15 9.5 13.8807 9.5 12.5C9.5 11.1193 10.6193 10 12 10C13.3807 10 14.5 11.1193 14.5 12.5C14.5 13.8807 13.3807 15 12 15ZM12 16C13.933 16 15.5 14.433 15.5 12.5C15.5 10.567 13.933 9 12 9C10.067 9 8.5 10.567 8.5 12.5C8.5 14.433 10.067 16 12 16Z" fill="black"/>
<path d="M7 10.5C7 10.7761 6.77614 11 6.5 11C6.22386 11 6 10.7761 6 10.5C6 10.2239 6.22386 10 6.5 10C6.77614 10 7 10.2239 7 10.5Z" fill="black"/>
</svg>
