<svg width="75" height="75" viewBox="0 0 75 75" fill="none" xmlns="http://www.w3.org/2000/svg">
<rect x="4" y="4" width="67" height="67" rx="33.5" fill="#232323" stroke="white" stroke-width="8"/>
<path d="M38.4167 18C49.6924 18 58.8333 26.7678 58.8333 37.5833C58.8333 48.3988 49.6924 57.1667 38.4167 57.1667C35.0675 57.1667 31.8326 56.391 28.9347 54.9308L20.1752 57.1183C19.2477 57.3502 18.2999 56.8167 18.0584 55.927C17.9836 55.6521 17.9836 55.3632 18.0583 55.0881L20.3375 46.69C18.811 43.9076 18 40.8005 18 37.5833C18 26.7678 27.1408 18 38.4167 18ZM40.9722 39.5417H31.7813L31.5735 39.555C30.8261 39.6523 30.25 40.2668 30.25 41.0104C30.25 41.754 30.8261 42.3685 31.5735 42.4658L31.7813 42.4792H40.9722L41.1801 42.4658C41.9275 42.3685 42.5035 41.754 42.5035 41.0104C42.5035 40.2668 41.9275 39.6523 41.1801 39.555L40.9722 39.5417ZM45.0521 32.6875H31.7813L31.5735 32.7009C30.8261 32.7982 30.25 33.4127 30.25 34.1562C30.25 34.8998 30.8261 35.5144 31.5735 35.6117L31.7813 35.625H45.0521L45.2599 35.6117C46.0072 35.5144 46.5833 34.8998 46.5833 34.1562C46.5833 33.4127 46.0072 32.7982 45.2599 32.7009L45.0521 32.6875Z" fill="white"/>
</svg>
