<svg width="1225" height="743" viewBox="0 0 1225 743" fill="none" xmlns="http://www.w3.org/2000/svg">
<g clip-path="url(#clip0_67_3705)">
<path d="M531.677 100.276V131.792L525.565 132.747C522.127 133.32 512.004 134.275 503.027 134.848C478.196 136.567 439.996 143.061 410.773 150.319C352.517 164.835 313.743 181.643 251.858 218.889C234.095 229.585 216.905 239.708 213.658 241.236C206.4 245.056 185.963 247.921 156.357 249.449C121.786 251.168 94.2813 258.427 82.0572 269.123C70.788 279.055 55.5078 312.289 47.4857 344.378C41.9466 365.961 41.7556 366.916 45.5757 366.916C47.1037 366.916 48.4407 366.152 48.4407 365.006C48.4407 358.512 75.1811 309.997 86.0682 296.627C98.8654 280.965 103.449 280.01 156.93 280.583C220.725 281.156 213.085 283.257 289.104 244.292C339.338 218.698 374.673 204.755 424.143 191.194C517.352 165.599 607.505 160.06 679.131 175.149C739.87 187.947 778.835 204.373 845.494 245.438C882.74 268.359 890.571 272.179 907.952 275.999C944.052 283.639 1028.09 290.515 1088.26 290.515C1126.84 290.515 1130.85 290.897 1138.49 294.526C1146.9 298.537 1155.11 307.514 1161.03 318.974C1164.85 326.805 1173.45 359.467 1173.45 367.107V372.646H1156.26H1139.07V356.411V340.176H1121.88H1104.68V356.411V372.646H1089.4H1074.12V356.411V340.176H1056.93H1039.74V356.411V372.646H1023.51H1007.27V356.411V340.176H990.083H972.893V356.411V372.837L957.231 372.264L941.378 371.691L940.805 355.838L940.232 340.176H924.187H907.952V356.411V372.646H891.717H875.673L875.1 356.22L874.527 339.794H858.292H842.056L841.483 356.22L840.91 372.646H824.866H808.631V356.411V340.176H791.441H774.25V356.411V372.646H758.97H743.69V356.411V340.176H726.5H709.31V356.411V372.646H693.074H676.839V356.411V340.176H659.649H642.459V356.411V372.837L626.796 372.264L610.943 371.691L610.37 355.838L609.797 340.176H593.753H577.709L577.136 355.838L576.563 371.691H562.238H547.912L547.339 355.838L546.766 340.176H530.722H514.678L514.105 355.838L513.532 371.691L497.87 372.264L482.017 372.837V356.411V340.176H464.826H447.636V356.411V372.646H431.401H415.166V356.411V340.176H398.548H381.74L382.313 351.636C382.695 357.939 382.313 363.096 381.358 363.096C380.594 362.905 376.392 359.467 372.19 355.265C363.022 346.288 338.956 333.873 321.574 329.288C304.575 324.895 276.689 325.086 258.544 329.479C225.309 337.502 192.648 359.085 178.322 382.387C175.266 387.544 172.974 391.746 173.356 391.746C173.738 391.746 180.614 387.735 188.637 382.96C229.511 358.321 292.542 347.625 329.214 359.085C354.809 366.916 376.583 379.904 395.492 398.049C400.076 402.251 404.087 405.307 404.661 404.734C405.234 404.161 402.368 396.903 397.975 388.881C393.773 380.668 390.335 373.601 390.335 373.219C390.335 372.837 395.874 372.646 402.75 372.646H415.166V388.69C415.166 399.768 415.93 404.925 417.649 405.498C418.795 405.88 426.435 406.262 434.266 406.071H448.591L449.164 389.263L449.737 372.646H464.826H479.915L480.488 389.263L481.062 406.071H497.297H513.532L514.105 389.263L514.678 372.646H530.722H546.766L547.339 389.072L547.912 405.498L562.62 405.88L577.327 406.453L577.9 390.027L578.473 373.601L594.326 373.028L609.988 372.455V388.69V404.925L618.201 406.071C622.594 406.836 630.044 407.027 634.819 406.644L643.414 406.071L643.987 389.263L644.56 372.455L660.222 373.028L675.884 373.601L676.457 390.409L677.03 407.218L687.917 406.262C693.838 405.88 701.096 405.307 703.961 405.307C709.119 405.116 709.119 405.116 709.692 389.263L710.265 373.601L725.927 373.028L741.589 372.455L742.162 389.263L742.735 405.88L758.97 406.071H775.205L775.778 389.263L776.351 372.646H792.396H808.631V390.027V407.409L823.529 406.262C831.551 405.88 839.191 405.307 840.146 405.307C841.292 405.116 842.056 398.431 842.056 389.454V373.601L857.91 373.028L873.572 372.455V388.881V405.116L880.83 405.307C884.65 405.498 892.29 405.689 897.447 405.88L906.997 406.071L907.57 389.263L908.143 372.646H924.187H940.232L940.805 389.263C941.378 408.746 941.187 408.364 962.77 406.071L974.803 404.734V388.69V372.455L990.656 373.028L1006.32 373.601L1006.51 389.645V405.689L1023.13 406.262L1039.74 406.644V389.645V372.646H1055.98H1072.02L1072.6 389.263L1073.17 406.071H1089.4H1105.64L1106.21 389.263L1106.79 372.455L1122.45 373.028L1138.11 373.601L1139.07 389.645L1140.02 405.689L1159.88 406.071L1179.75 406.262L1178.6 376.657C1177.65 344.76 1174.02 327.76 1164.85 309.806C1152.82 285.74 1143.84 281.347 1102.97 278.864C1023.51 274.28 944.816 264.348 911.772 254.797C897.065 250.595 890.762 247.157 860.775 226.72C772.722 167.127 704.535 140.96 615.909 133.32L588.596 131.028L577.518 100.467L566.631 69.907L549.249 69.334L531.677 68.761V100.276Z" fill="black"/>
<path d="M561.856 209.721L550.778 210.485V241.809V273.325L681.233 273.707C752.859 274.089 812.07 273.898 812.834 273.325C814.553 271.988 769.667 251.932 745.601 243.146C716.378 232.641 679.705 222.136 653.92 216.979C630.617 212.586 590.125 208.002 578.474 208.766C575.418 208.957 567.778 209.339 561.856 209.721Z" fill="black"/>
<path d="M501.881 213.159C458.524 219.653 418.795 231.113 391.673 245.056C376.774 252.887 357.865 267.977 357.865 271.988C357.865 273.707 380.213 274.089 445.726 273.707L533.588 273.325V241.809V210.294L526.521 210.485C522.509 210.676 511.431 211.822 501.881 213.159Z" fill="black"/>
<path d="M531.677 100.277V131.792L525.565 132.747C522.127 133.32 512.004 134.275 503.027 134.848C478.196 136.567 439.996 143.061 410.773 150.32C352.517 164.836 313.743 181.644 251.858 218.889C234.095 229.586 216.905 239.709 213.658 241.237C206.4 245.057 185.963 247.922 156.357 249.45C121.786 251.169 94.2813 258.427 82.0572 269.123C70.788 279.055 55.5078 312.29 47.4857 344.378C41.9466 365.961 41.7556 366.916 45.5757 366.916C47.1037 366.916 48.4407 366.152 48.4407 365.006C48.4407 358.512 75.1811 309.998 86.0682 296.628C98.8654 280.965 103.449 280.01 156.93 280.583C220.725 281.156 213.085 283.257 289.104 244.293C339.338 218.698 374.673 204.755 424.143 191.194C517.352 165.6 607.505 160.061 679.131 175.15C739.87 187.947 778.835 204.373 845.494 245.439C882.74 268.359 890.571 272.179 907.952 275.999C944.052 283.639 1028.09 290.515 1088.26 290.515C1126.84 290.515 1130.85 290.897 1138.49 294.527C1146.9 298.538 1155.11 307.515 1161.03 318.975C1164.85 326.806 1173.45 359.467 1173.45 367.107V372.647H1156.26H1139.07V356.411V340.176H1121.88H1104.68V356.411V372.647H1089.4H1074.12V356.411V340.176H1056.93H1039.74V356.411V372.647H1023.51H1007.27V356.411V340.176H990.083H972.893V356.411V372.838L957.231 372.265L941.378 371.692L940.805 355.838L940.232 340.176H924.187H907.952V356.411V372.647H891.717H875.673L875.1 356.22L874.527 339.794H858.292H842.056L841.483 356.22L840.91 372.647H824.866H808.631V356.411V340.176H791.441H774.25V356.411V372.647H758.97H743.69V356.411V340.176H726.5H709.31V356.411V372.647H693.074H676.839V356.411V340.176H659.649H642.459V356.411V372.838L626.796 372.265L610.943 371.692L610.37 355.838L609.797 340.176H593.753H577.709L577.136 355.838L576.563 371.692H562.238H547.912L547.339 355.838L546.766 340.176H530.722H514.678L514.105 355.838L513.532 371.692L497.87 372.265L482.017 372.838V356.411V340.176H464.826H447.636V356.411V372.647H431.401H415.166V356.411V340.176H398.548H381.74L382.313 351.636C382.695 357.939 382.313 363.096 381.358 363.096C380.594 362.905 376.392 359.467 372.19 355.265C363.022 346.288 338.956 333.873 321.574 329.289C304.575 324.896 276.689 325.087 258.544 329.48C225.309 337.502 192.648 359.085 178.322 382.388C175.266 387.545 172.974 391.747 173.356 391.747C173.738 391.747 180.614 387.736 188.637 382.961C229.511 358.321 292.542 347.625 329.214 359.085C354.809 366.916 376.583 379.905 395.492 398.05C400.076 402.252 404.087 405.308 404.661 404.735C405.234 404.162 402.368 396.904 397.975 388.882C393.773 380.669 390.335 373.602 390.335 373.22C390.335 372.838 395.874 372.647 402.75 372.647H415.166V388.691C415.166 399.769 415.93 404.926 417.649 405.499C418.795 405.881 426.435 406.263 434.266 406.072H448.591L449.164 389.264L449.737 372.647H464.826H479.915L480.488 389.264L481.062 406.072H497.297H513.532L514.105 389.264L514.678 372.647H530.722H546.766L547.339 389.073L547.912 405.499L562.62 405.881L577.327 406.454L577.9 390.028L578.473 373.602L594.326 373.029L609.988 372.456V388.691V404.926L618.201 406.072C622.594 406.836 630.044 407.027 634.819 406.645L643.414 406.072L643.987 389.264L644.56 372.456L660.222 373.029L675.884 373.602L676.457 390.41L677.03 407.218L687.917 406.263C693.838 405.881 701.096 405.308 703.961 405.308C709.119 405.117 709.119 405.117 709.692 389.264L710.265 373.602L725.927 373.029L741.589 372.456L742.162 389.264L742.735 405.881L758.97 406.072H775.205L775.778 389.264L776.351 372.647H792.396H808.631V390.028V407.409L823.529 406.263C831.551 405.881 839.191 405.308 840.146 405.308C841.292 405.117 842.056 398.432 842.056 389.455V373.602L857.91 373.029L873.572 372.456V388.882V405.117L880.83 405.308C884.65 405.499 892.29 405.69 897.447 405.881L906.997 406.072L907.57 389.264L908.143 372.647H924.187H940.232L940.805 389.264C941.378 408.746 941.187 408.364 962.77 406.072L974.803 404.735V388.691V372.456L990.656 373.029L1006.32 373.602L1006.51 389.646V405.69L1023.13 406.263L1039.74 406.645V389.646V372.647H1055.98H1072.02L1072.6 389.264L1073.17 406.072H1089.4H1105.64L1106.21 389.264L1106.79 372.456L1122.45 373.029L1138.11 373.602L1139.07 389.646L1140.02 405.69L1159.88 406.072L1179.75 406.263L1178.6 376.658C1177.65 344.76 1174.02 327.761 1164.85 309.807C1152.82 285.74 1143.84 281.347 1102.97 278.864C1023.51 274.28 944.816 264.348 911.772 254.798C897.065 250.596 890.762 247.158 860.775 226.721C772.722 167.128 704.535 140.96 615.909 133.32L588.596 131.028L577.518 100.468L566.631 69.9075L549.249 69.3345L531.677 68.7615V100.277Z" fill="white"/>
<path d="M561.856 209.721L550.778 210.485V241.81V273.325L681.233 273.707C752.859 274.089 812.07 273.898 812.834 273.325C814.553 271.988 769.667 251.933 745.601 243.147C716.378 232.642 679.705 222.137 653.92 216.979C630.617 212.586 590.125 208.002 578.474 208.766C575.418 208.957 567.778 209.339 561.856 209.721Z" fill="white"/>
<path d="M501.881 213.159C458.524 219.653 418.795 231.114 391.673 245.057C376.774 252.888 357.865 267.977 357.865 271.988C357.865 273.707 380.213 274.089 445.726 273.707L533.588 273.325V241.81V210.294L526.521 210.485C522.509 210.676 511.431 211.822 501.881 213.159Z" fill="white"/>
<path d="M76.0388 496.421C86.1237 497.521 94.1917 499.309 100.243 501.784C106.385 504.26 110.832 507.514 113.582 511.548C116.333 515.582 117.708 520.625 117.708 526.676C117.708 533.277 115.553 539.053 111.244 544.004C107.027 548.863 101.159 552.622 93.6416 555.28C86.1237 557.847 77.5516 559.131 67.925 559.131C57.1983 559.131 48.1219 557.802 40.6957 555.143C33.2695 552.484 27.7228 548.954 24.0555 544.554C20.3883 540.061 18.5547 535.156 18.5547 529.839C18.5547 528.922 18.8297 528.189 19.3798 527.638C20.0216 527.088 20.8009 526.813 21.7177 526.813H49.9097C51.835 526.813 53.3935 527.409 54.5854 528.601C56.144 530.068 57.8859 531.077 59.8112 531.627C61.7365 532.085 64.4411 532.314 67.925 532.314C76.6347 532.314 80.9896 530.985 80.9896 528.326C80.9896 527.226 80.3937 526.309 79.2018 525.576C78.1016 524.751 76.0847 524.063 73.1509 523.513C70.3087 522.871 66.0914 522.229 60.4988 521.588C47.9385 520.121 38.312 517.003 31.6193 512.236C24.9265 507.377 21.5802 500.547 21.5802 491.745C21.5802 485.511 23.4596 480.01 27.2186 475.243C30.9775 470.475 36.295 466.762 43.1711 464.103C50.1389 461.445 58.2068 460.115 67.3749 460.115C76.9098 460.115 85.2528 461.628 92.4039 464.653C99.5551 467.587 105.01 471.255 108.769 475.655C112.528 480.056 114.407 484.365 114.407 488.582C114.407 489.499 114.087 490.233 113.445 490.783C112.895 491.333 112.115 491.608 111.107 491.608H81.5397C79.9811 491.608 78.56 491.058 77.2765 489.957C76.268 489.041 75.0762 488.307 73.7009 487.757C72.3257 487.207 70.2171 486.932 67.3749 486.932C61.2323 486.932 58.161 488.216 58.161 490.783C58.161 492.158 59.3528 493.258 61.7365 494.083C64.1202 494.817 68.8877 495.596 76.0388 496.421ZM199.342 461.49C207.96 461.49 215.478 462.957 221.896 465.891C228.313 468.825 233.218 472.813 236.611 477.856C240.003 482.898 241.699 488.536 241.699 494.771C241.699 505.039 238.49 513.107 232.072 518.975C225.655 524.751 214.745 527.638 199.342 527.638H181.189V554.043C181.189 555.051 180.823 555.922 180.089 556.656C179.356 557.389 178.485 557.756 177.476 557.756H147.909C146.901 557.756 146.03 557.389 145.296 556.656C144.563 555.922 144.196 555.051 144.196 554.043V465.204C144.196 464.195 144.563 463.324 145.296 462.591C146.03 461.857 146.901 461.49 147.909 461.49H199.342ZM198.792 502.197C200.992 502.197 202.734 501.555 204.018 500.272C205.301 498.896 205.943 497.109 205.943 494.908C205.943 492.616 205.301 490.737 204.018 489.27C202.734 487.803 200.992 487.07 198.792 487.07H181.327V502.197H198.792ZM346.712 530.939C347.72 530.939 348.591 531.306 349.325 532.039C350.058 532.773 350.425 533.644 350.425 534.652V554.043C350.425 555.051 350.058 555.922 349.325 556.656C348.591 557.389 347.72 557.756 346.712 557.756H259.798C258.79 557.756 257.919 557.389 257.185 556.656C256.452 555.922 256.085 555.051 256.085 554.043V465.204C256.085 464.195 256.452 463.324 257.185 462.591C257.919 461.857 258.79 461.49 259.798 461.49H345.337C346.345 461.49 347.216 461.857 347.95 462.591C348.683 463.324 349.05 464.195 349.05 465.204V484.594C349.05 485.603 348.683 486.474 347.95 487.207C347.216 487.941 346.345 488.307 345.337 488.307H291.841V496.971H337.773C338.781 496.971 339.652 497.338 340.386 498.071C341.119 498.805 341.486 499.676 341.486 500.684V518.562C341.486 519.571 341.119 520.442 340.386 521.175C339.652 521.908 338.781 522.275 337.773 522.275H291.841V530.939H346.712ZM463.552 530.939C464.56 530.939 465.431 531.306 466.165 532.039C466.898 532.773 467.265 533.644 467.265 534.652V554.043C467.265 555.051 466.898 555.922 466.165 556.656C465.431 557.389 464.56 557.756 463.552 557.756H376.638C375.629 557.756 374.758 557.389 374.025 556.656C373.292 555.922 372.925 555.051 372.925 554.043V465.204C372.925 464.195 373.292 463.324 374.025 462.591C374.758 461.857 375.629 461.49 376.638 461.49H462.177C463.185 461.49 464.056 461.857 464.789 462.591C465.523 463.324 465.89 464.195 465.89 465.204V484.594C465.89 485.603 465.523 486.474 464.789 487.207C464.056 487.941 463.185 488.307 462.177 488.307H408.681V496.971H454.613C455.621 496.971 456.492 497.338 457.226 498.071C457.959 498.805 458.326 499.676 458.326 500.684V518.562C458.326 519.571 457.959 520.442 457.226 521.175C456.492 521.908 455.621 522.275 454.613 522.275H408.681V530.939H463.552ZM535.422 461.49C550.916 461.49 563.293 464.837 572.553 471.53C581.904 478.222 586.58 488.582 586.58 502.61V516.637C586.58 530.939 581.95 541.391 572.69 547.992C563.522 554.501 551.099 557.756 535.422 557.756H491.552C490.544 557.756 489.673 557.389 488.94 556.656C488.206 555.922 487.839 555.051 487.839 554.043V465.204C487.839 464.195 488.206 463.324 488.94 462.591C489.673 461.857 490.544 461.49 491.552 461.49H535.422ZM536.11 530.939C540.419 530.939 543.811 529.931 546.286 527.914C548.853 525.805 550.137 522.871 550.137 519.112V500.134C550.137 496.375 548.853 493.487 546.286 491.47C543.811 489.362 540.419 488.307 536.11 488.307H523.595V530.939H536.11ZM703.007 461.49C703.833 461.49 704.52 461.811 705.07 462.453C705.712 463.003 706.033 463.645 706.033 464.378C706.033 464.929 705.895 465.479 705.62 466.029L670.965 523.375V554.043C670.965 555.051 670.598 555.922 669.865 556.656C669.131 557.389 668.26 557.756 667.252 557.756H637.96C636.951 557.756 636.08 557.389 635.347 556.656C634.613 555.922 634.246 555.051 634.246 554.043V523.375L599.728 466.029C599.453 465.479 599.316 464.974 599.316 464.516C599.316 463.691 599.591 463.003 600.141 462.453C600.783 461.811 601.516 461.49 602.341 461.49H631.359C633.926 461.49 635.805 462.545 636.997 464.653L652.537 491.883L668.489 464.929C669.865 462.636 671.79 461.49 674.265 461.49H703.007Z" fill="white"/>
<path d="M839.342 458.625C840.351 458.625 841.221 458.992 841.955 459.726C842.688 460.459 843.055 461.33 843.055 462.339V484.48C843.055 485.488 842.688 486.359 841.955 487.092C841.221 487.826 840.351 488.193 839.342 488.193H809.775V551.178C809.775 552.186 809.408 553.057 808.675 553.791C807.941 554.524 807.07 554.891 806.062 554.891H777.732C776.724 554.891 775.853 554.524 775.119 553.791C774.386 553.057 774.019 552.186 774.019 551.178V488.193H744.452C743.443 488.193 742.572 487.826 741.839 487.092C741.106 486.359 740.739 485.488 740.739 484.48V462.339C740.739 461.33 741.106 460.459 741.839 459.726C742.572 458.992 743.443 458.625 744.452 458.625H839.342ZM963.333 550.628C963.516 550.994 963.608 551.407 963.608 551.865C963.608 552.69 963.287 553.424 962.645 554.066C962.095 554.616 961.408 554.891 960.583 554.891H929.365C928.082 554.891 926.89 554.57 925.79 553.928C924.781 553.286 924.048 552.461 923.589 551.453L911.487 524.223H899.935V551.178C899.935 552.186 899.569 553.057 898.835 553.791C898.102 554.524 897.231 554.891 896.222 554.891H866.518C865.509 554.891 864.638 554.524 863.905 553.791C863.171 553.057 862.805 552.186 862.805 551.178V462.339C862.805 461.33 863.171 460.459 863.905 459.726C864.638 458.992 865.509 458.625 866.518 458.625H920.014C928.265 458.625 935.462 459.955 941.605 462.614C947.839 465.272 952.606 469.123 955.907 474.165C959.207 479.208 960.858 485.121 960.858 491.906C960.858 504.374 956.044 513.405 946.418 518.998L963.333 550.628ZM917.126 498.782C919.143 498.782 920.701 498.14 921.801 496.856C922.902 495.481 923.452 493.785 923.452 491.768C923.452 489.751 922.902 488.009 921.801 486.542C920.793 484.984 919.234 484.204 917.126 484.204H899.935V498.782H917.126ZM1044.28 526.699H1069.17C1070.18 526.699 1071.05 527.065 1071.78 527.799C1072.52 528.532 1072.88 529.403 1072.88 530.412V551.178C1072.88 552.186 1072.52 553.057 1071.78 553.791C1071.05 554.524 1070.18 554.891 1069.17 554.891H981.982C980.974 554.891 980.103 554.524 979.369 553.791C978.636 553.057 978.269 552.186 978.269 551.178V530.412C978.269 529.403 978.636 528.532 979.369 527.799C980.103 527.065 980.974 526.699 981.982 526.699H1007.15V486.817H981.982C980.974 486.817 980.103 486.451 979.369 485.717C978.636 484.984 978.269 484.113 978.269 483.104V462.339C978.269 461.33 978.636 460.459 979.369 459.726C980.103 458.992 980.974 458.625 981.982 458.625H1069.17C1070.18 458.625 1071.05 458.992 1071.78 459.726C1072.52 460.459 1072.88 461.33 1072.88 462.339V483.104C1072.88 484.113 1072.52 484.984 1071.78 485.717C1071.05 486.451 1070.18 486.817 1069.17 486.817H1044.28V526.699ZM1156.44 458.625C1165.06 458.625 1172.58 460.092 1179 463.026C1185.42 465.96 1190.32 469.948 1193.71 474.991C1197.1 480.033 1198.8 485.671 1198.8 491.906C1198.8 502.174 1195.59 510.242 1189.17 516.11C1182.76 521.885 1171.85 524.773 1156.44 524.773H1138.29V551.178C1138.29 552.186 1137.92 553.057 1137.19 553.791C1136.46 554.524 1135.59 554.891 1134.58 554.891H1105.01C1104 554.891 1103.13 554.524 1102.4 553.791C1101.66 553.057 1101.3 552.186 1101.3 551.178V462.339C1101.3 461.33 1101.66 460.459 1102.4 459.726C1103.13 458.992 1104 458.625 1105.01 458.625H1156.44ZM1155.89 499.332C1158.09 499.332 1159.84 498.69 1161.12 497.407C1162.4 496.031 1163.04 494.244 1163.04 492.043C1163.04 489.751 1162.4 487.872 1161.12 486.405C1159.84 484.938 1158.09 484.204 1155.89 484.204H1138.43V499.332H1155.89Z" fill="#232323"/>
</g>
<defs>
<clipPath id="clip0_67_3705">
<rect width="1224.33" height="743" fill="white"/>
</clipPath>
</defs>
</svg>
