<svg width="497" height="219" viewBox="0 0 497 219" fill="none" xmlns="http://www.w3.org/2000/svg">
<g clip-path="url(#clip0_67_3869)">
<path d="M215.769 30.299V39.5144L213.297 39.7936C211.906 39.9612 207.81 40.2404 204.178 40.408C194.132 40.9106 178.676 42.8096 166.853 44.9319C143.283 49.1766 127.595 54.0914 102.557 64.9823C95.3704 68.11 88.4154 71.0701 87.1016 71.5169C84.1651 72.6339 75.8963 73.4716 63.9182 73.9184C49.9309 74.4211 38.8029 76.5434 33.8571 79.6711C29.2977 82.5753 23.1154 92.2934 19.8698 101.676C17.6287 107.987 17.5514 108.267 19.097 108.267C19.7152 108.267 20.2562 108.043 20.2562 107.708C20.2562 105.809 31.0751 91.6232 35.4799 87.7136C40.6576 83.1338 42.5122 82.8546 64.1501 83.0221C89.9609 83.1897 86.8698 83.804 117.626 72.4105C137.951 64.9265 152.247 60.8494 172.262 56.884C209.974 49.4 246.449 47.7803 275.428 52.1925C300.003 55.9345 315.767 60.7377 342.737 72.7456C357.806 79.4477 360.975 80.5647 368.007 81.6817C382.613 83.9157 416.615 85.9264 440.958 85.9264C456.568 85.9264 458.191 86.0381 461.282 87.0992C464.682 88.2721 468.005 90.8971 470.4 94.2481C471.946 96.538 475.424 106.089 475.424 108.323V109.942H468.469H461.514V105.195V100.448H454.559H447.603V105.195V109.942H441.421H435.239V105.195V100.448H428.284H421.329V105.195V109.942H414.76H408.192V105.195V100.448H401.237H394.282V105.195V109.998L387.945 109.831L381.531 109.663L381.299 105.027L381.067 100.448H374.576H368.007V105.195V109.942H361.439H354.947L354.715 105.139L354.483 100.336H347.915H341.346L341.114 105.139L340.883 109.942H334.391H327.823V105.195V100.448H320.868H313.913V105.195V109.942H307.73H301.548V105.195V100.448H294.593H287.638V105.195V109.942H281.069H274.501V105.195V100.448H267.546H260.591V105.195V109.998L254.254 109.831L247.84 109.663L247.608 105.027L247.376 100.448H240.885H234.393L234.162 105.027L233.93 109.663H228.134H222.338L222.106 105.027L221.874 100.448H215.383H208.892L208.66 105.027L208.428 109.663L202.091 109.831L195.677 109.998V105.195V100.448H188.722H181.767V105.195V109.942H175.199H168.63V105.195V100.448H161.907H155.106L155.338 103.799C155.493 105.642 155.338 107.15 154.952 107.15C154.643 107.094 152.942 106.089 151.242 104.86C147.533 102.235 137.796 98.6045 130.764 97.2641C123.886 95.9795 112.603 96.0354 105.262 97.3199C91.8156 99.6657 78.601 105.977 72.8052 112.791C71.5688 114.299 70.6414 115.527 70.796 115.527C70.9505 115.527 73.7325 114.354 76.9782 112.958C93.5157 105.753 119.017 102.626 133.855 105.977C144.21 108.267 153.02 112.065 160.67 117.37C162.525 118.599 164.148 119.493 164.38 119.325C164.611 119.158 163.452 117.035 161.675 114.69C159.975 112.288 158.584 110.221 158.584 110.11C158.584 109.998 160.825 109.942 163.607 109.942H168.63V114.634C168.63 117.873 168.939 119.381 169.635 119.549C170.098 119.66 173.189 119.772 176.358 119.716H182.154L182.385 114.801L182.617 109.942H188.722H194.827L195.059 114.801L195.291 119.716H201.859H208.428L208.66 114.801L208.892 109.942H215.383H221.874L222.106 114.745L222.338 119.549L228.289 119.66L234.239 119.828L234.471 115.025L234.703 110.221L241.117 110.054L247.453 109.886V114.634V119.381L250.776 119.716C252.554 119.94 255.568 119.995 257.5 119.884L260.977 119.716L261.209 114.801L261.441 109.886L267.778 110.054L274.114 110.221L274.346 115.136L274.578 120.051L278.983 119.772C281.379 119.66 284.315 119.493 285.474 119.493C287.561 119.437 287.561 119.437 287.793 114.801L288.024 110.221L294.361 110.054L300.698 109.886L300.93 114.801L301.162 119.66L307.73 119.716H314.299L314.531 114.801L314.763 109.942H321.254H327.823V115.025V120.107L333.85 119.772C337.096 119.66 340.187 119.493 340.573 119.493C341.037 119.437 341.346 117.482 341.346 114.857V110.221L347.76 110.054L354.097 109.886V114.69V119.437L357.034 119.493C358.579 119.549 361.67 119.604 363.757 119.66L367.621 119.716L367.853 114.801L368.084 109.942H374.576H381.067L381.299 114.801C381.531 120.498 381.454 120.386 390.186 119.716L395.054 119.325V114.634V109.886L401.469 110.054L407.805 110.221L407.883 114.913V119.604L414.606 119.772L421.329 119.884V114.913V109.942H427.898H434.389L434.621 114.801L434.853 119.716H441.421H447.99L448.222 114.801L448.454 109.886L454.79 110.054L461.127 110.221L461.514 114.913L461.9 119.604L469.937 119.716L477.974 119.772L477.51 111.115C477.124 101.788 475.655 96.8173 471.946 91.5673C467.078 84.5301 463.445 83.2455 446.908 82.5195C414.76 81.1791 382.922 78.2748 369.553 75.4823C363.602 74.2536 361.052 73.2482 348.919 67.2722C313.294 49.8468 285.706 42.1952 249.849 39.9612L238.798 39.291L234.316 30.3548L229.911 21.4187L222.879 21.2512L215.769 21.0836V30.299Z" fill="black"/>
<path d="M227.98 62.3015L223.498 62.5249V71.6844V80.8998L276.278 81.0115C305.258 81.1232 329.214 81.0673 329.523 80.8998C330.218 80.5088 312.058 74.6445 302.321 72.0753C290.498 69.0035 275.66 65.9318 265.228 64.4238C255.8 63.1392 239.417 61.7988 234.703 62.0222C233.466 62.078 230.375 62.1897 227.98 62.3015Z" fill="black"/>
<path d="M203.714 63.3067C186.172 65.2057 170.098 68.5567 159.124 72.6338C153.097 74.9237 145.446 79.3359 145.446 80.5088C145.446 81.0114 154.488 81.1231 180.994 81.0114L216.542 80.8997V71.6844V62.469L213.683 62.5248C212.06 62.5807 207.578 62.9158 203.714 63.3067Z" fill="black"/>
<path d="M215.769 30.2992V39.5146L213.297 39.7939C211.906 39.9614 207.81 40.2407 204.178 40.4082C194.132 40.9109 178.676 42.8098 166.853 44.9321C143.283 49.1768 127.595 54.0917 102.557 64.9826C95.3704 68.1102 88.4154 71.0703 87.1016 71.5171C84.1651 72.6341 75.8963 73.4719 63.9182 73.9187C49.9309 74.4214 38.8029 76.5437 33.8571 79.6713C29.2977 82.5756 23.1154 92.2936 19.8698 101.677C17.6287 107.988 17.5514 108.267 19.097 108.267C19.7152 108.267 20.2562 108.044 20.2562 107.708C20.2562 105.809 31.0751 91.6234 35.4799 87.7138C40.6576 83.1341 42.5122 82.8548 64.1501 83.0224C89.9609 83.1899 86.8698 83.8043 117.626 72.4107C137.951 64.9267 152.247 60.8496 172.262 56.8842C209.974 49.4002 246.449 47.7805 275.428 52.1927C300.003 55.9347 315.767 60.7379 342.737 72.7458C357.806 79.4479 360.975 80.5649 368.007 81.682C382.613 83.916 416.615 85.9266 440.958 85.9266C456.568 85.9266 458.191 86.0383 461.282 87.0995C464.682 88.2723 468.005 90.8973 470.4 94.2484C471.946 96.5383 475.424 106.089 475.424 108.323V109.942H468.469H461.514V105.195V100.448H454.559H447.603V105.195V109.942H441.421H435.239V105.195V100.448H428.284H421.329V105.195V109.942H414.76H408.192V105.195V100.448H401.237H394.282V105.195V109.998L387.945 109.831L381.531 109.663L381.299 105.028L381.067 100.448H374.576H368.007V105.195V109.942H361.439H354.947L354.715 105.139L354.483 100.336H347.915H341.346L341.114 105.139L340.883 109.942H334.391H327.823V105.195V100.448H320.868H313.913V105.195V109.942H307.73H301.548V105.195V100.448H294.593H287.638V105.195V109.942H281.069H274.501V105.195V100.448H267.546H260.591V105.195V109.998L254.254 109.831L247.84 109.663L247.608 105.028L247.376 100.448H240.885H234.393L234.162 105.028L233.93 109.663H228.134H222.338L222.106 105.028L221.874 100.448H215.383H208.892L208.66 105.028L208.428 109.663L202.091 109.831L195.677 109.998V105.195V100.448H188.722H181.767V105.195V109.942H175.199H168.63V105.195V100.448H161.907H155.106L155.338 103.799C155.493 105.642 155.338 107.15 154.952 107.15C154.643 107.094 152.942 106.089 151.242 104.86C147.533 102.235 137.796 98.6047 130.764 97.2643C123.886 95.9798 112.603 96.0356 105.262 97.3202C91.8156 99.6659 78.601 105.977 72.8052 112.791C71.5688 114.299 70.6414 115.528 70.796 115.528C70.9505 115.528 73.7325 114.355 76.9782 112.958C93.5157 105.754 119.017 102.626 133.855 105.977C144.21 108.267 153.02 112.065 160.67 117.371C162.525 118.599 164.148 119.493 164.38 119.325C164.611 119.158 163.452 117.036 161.675 114.69C159.975 112.288 158.584 110.222 158.584 110.11C158.584 109.998 160.825 109.942 163.607 109.942H168.63V114.634C168.63 117.873 168.939 119.381 169.635 119.549C170.098 119.66 173.189 119.772 176.358 119.716H182.154L182.385 114.801L182.617 109.942H188.722H194.827L195.059 114.801L195.291 119.716H201.859H208.428L208.66 114.801L208.892 109.942H215.383H221.874L222.106 114.746L222.338 119.549L228.289 119.66L234.239 119.828L234.471 115.025L234.703 110.222L241.117 110.054L247.453 109.887V114.634V119.381L250.776 119.716C252.554 119.94 255.568 119.996 257.5 119.884L260.977 119.716L261.209 114.801L261.441 109.887L267.778 110.054L274.114 110.222L274.346 115.137L274.578 120.051L278.983 119.772C281.379 119.66 284.315 119.493 285.474 119.493C287.561 119.437 287.561 119.437 287.793 114.801L288.024 110.222L294.361 110.054L300.698 109.887L300.93 114.801L301.162 119.66L307.73 119.716H314.299L314.531 114.801L314.763 109.942H321.254H327.823V115.025V120.107L333.85 119.772C337.096 119.66 340.187 119.493 340.573 119.493C341.037 119.437 341.346 117.482 341.346 114.857V110.222L347.76 110.054L354.097 109.887V114.69V119.437L357.034 119.493C358.579 119.549 361.67 119.605 363.757 119.66L367.621 119.716L367.853 114.801L368.084 109.942H374.576H381.067L381.299 114.801C381.531 120.498 381.454 120.387 390.186 119.716L395.054 119.325V114.634V109.887L401.469 110.054L407.805 110.222L407.883 114.913V119.605L414.606 119.772L421.329 119.884V114.913V109.942H427.898H434.389L434.621 114.801L434.853 119.716H441.421H447.99L448.222 114.801L448.454 109.887L454.79 110.054L461.127 110.222L461.514 114.913L461.9 119.605L469.937 119.716L477.974 119.772L477.51 111.115C477.124 101.788 475.655 96.8175 471.946 91.5675C467.078 84.5303 463.445 83.2458 446.908 82.5197C414.76 81.1793 382.922 78.2751 369.553 75.4825C363.602 74.2538 361.052 73.2485 348.919 67.2724C313.294 49.847 285.706 42.1954 249.849 39.9614L238.798 39.2912L234.316 30.3551L229.911 21.419L222.879 21.2514L215.769 21.0838V30.2992Z" fill="white"/>
<path d="M227.98 62.3017L223.498 62.5251V71.6846V80.9L276.278 81.0117C305.258 81.1234 329.214 81.0676 329.523 80.9C330.218 80.5091 312.058 74.6447 302.321 72.0756C290.498 69.0038 275.66 65.932 265.228 64.424C255.8 63.1395 239.417 61.799 234.703 62.0224C233.466 62.0783 230.375 62.19 227.98 62.3017Z" fill="white"/>
<path d="M203.714 63.307C186.172 65.2059 170.098 68.557 159.124 72.6341C153.097 74.924 145.446 79.3362 145.446 80.509C145.446 81.0117 154.488 81.1234 180.994 81.0117L216.542 80.9V71.6846V62.4692L213.683 62.5251C212.06 62.5809 207.578 62.916 203.714 63.307Z" fill="white"/>
<path d="M31.9898 154.299C36.1567 154.754 39.4902 155.492 41.9904 156.515C44.5284 157.538 46.3657 158.883 47.5021 160.549C48.6385 162.216 49.2068 164.3 49.2068 166.8C49.2068 169.527 48.3165 171.914 46.5361 173.959C44.7936 175.967 42.3692 177.52 39.2629 178.619C36.1567 179.679 32.6148 180.21 28.6373 180.21C24.2052 180.21 20.455 179.66 17.3866 178.562C14.3182 177.463 12.0264 176.005 10.5111 174.187C8.9959 172.33 8.23828 170.304 8.23828 168.107C8.23828 167.728 8.35192 167.425 8.57921 167.198C8.84438 166.97 9.16637 166.857 9.54518 166.857H21.1936C21.9891 166.857 22.6331 167.103 23.1256 167.595C23.7696 168.201 24.4893 168.618 25.2848 168.845C26.0803 169.035 27.1978 169.129 28.6373 169.129C32.236 169.129 34.0353 168.58 34.0353 167.482C34.0353 167.027 33.7891 166.648 33.2967 166.345C32.8421 166.004 32.0087 165.72 30.7965 165.493C29.6222 165.228 27.8797 164.963 25.5689 164.697C20.3792 164.091 16.4017 162.803 13.6363 160.833C10.871 158.826 9.48836 156.004 9.48836 152.367C9.48836 149.791 10.2649 147.518 11.818 145.548C13.3712 143.579 15.5683 142.044 18.4094 140.946C21.2883 139.847 24.6219 139.298 28.41 139.298C32.3496 139.298 35.7968 139.923 38.7516 141.173C41.7063 142.385 43.9602 143.901 45.5133 145.719C47.0665 147.537 47.843 149.318 47.843 151.06C47.843 151.439 47.7104 151.742 47.4453 151.969C47.218 152.197 46.896 152.31 46.4793 152.31H34.2626C33.6187 152.31 33.0315 152.083 32.5012 151.628C32.0845 151.25 31.592 150.947 31.0238 150.719C30.4556 150.492 29.5843 150.378 28.41 150.378C25.872 150.378 24.6029 150.909 24.6029 151.969C24.6029 152.538 25.0954 152.992 26.0803 153.333C27.0652 153.636 29.035 153.958 31.9898 154.299ZM82.9367 139.866C86.4975 139.866 89.6038 140.472 92.2554 141.685C94.9071 142.897 96.9338 144.545 98.3354 146.628C99.737 148.712 100.438 151.041 100.438 153.617C100.438 157.86 99.1119 161.193 96.4602 163.618C93.8086 166.004 89.3007 167.198 82.9367 167.198H75.4362V178.107C75.4362 178.524 75.2847 178.884 74.9816 179.187C74.6786 179.49 74.3187 179.641 73.902 179.641H61.6853C61.2686 179.641 60.9088 179.49 60.6057 179.187C60.3027 178.884 60.1512 178.524 60.1512 178.107V141.4C60.1512 140.984 60.3027 140.624 60.6057 140.321C60.9088 140.018 61.2686 139.866 61.6853 139.866H82.9367ZM82.7094 156.685C83.6185 156.685 84.3383 156.42 84.8686 155.89C85.3989 155.322 85.6641 154.583 85.6641 153.674C85.6641 152.727 85.3989 151.95 84.8686 151.344C84.3383 150.738 83.6185 150.435 82.7094 150.435H75.493V156.685H82.7094ZM143.827 168.561C144.244 168.561 144.604 168.713 144.907 169.016C145.21 169.319 145.362 169.679 145.362 170.095V178.107C145.362 178.524 145.21 178.884 144.907 179.187C144.604 179.49 144.244 179.641 143.827 179.641H107.916C107.499 179.641 107.139 179.49 106.836 179.187C106.533 178.884 106.382 178.524 106.382 178.107V141.4C106.382 140.984 106.533 140.624 106.836 140.321C107.139 140.018 107.499 139.866 107.916 139.866H143.259C143.676 139.866 144.036 140.018 144.339 140.321C144.642 140.624 144.793 140.984 144.793 141.4V149.412C144.793 149.829 144.642 150.189 144.339 150.492C144.036 150.795 143.676 150.947 143.259 150.947H121.155V154.526H140.134C140.551 154.526 140.911 154.678 141.214 154.981C141.517 155.284 141.668 155.644 141.668 156.06V163.447C141.668 163.864 141.517 164.224 141.214 164.527C140.911 164.83 140.551 164.981 140.134 164.981H121.155V168.561H143.827ZM192.104 168.561C192.52 168.561 192.88 168.713 193.183 169.016C193.486 169.319 193.638 169.679 193.638 170.095V178.107C193.638 178.524 193.486 178.884 193.183 179.187C192.88 179.49 192.52 179.641 192.104 179.641H156.192C155.776 179.641 155.416 179.49 155.113 179.187C154.81 178.884 154.658 178.524 154.658 178.107V141.4C154.658 140.984 154.81 140.624 155.113 140.321C155.416 140.018 155.776 139.866 156.192 139.866H191.535C191.952 139.866 192.312 140.018 192.615 140.321C192.918 140.624 193.07 140.984 193.07 141.4V149.412C193.07 149.829 192.918 150.189 192.615 150.492C192.312 150.795 191.952 150.947 191.535 150.947H169.432V154.526H188.41C188.827 154.526 189.187 154.678 189.49 154.981C189.793 155.284 189.944 155.644 189.944 156.06V163.447C189.944 163.864 189.793 164.224 189.49 164.527C189.187 164.83 188.827 164.981 188.41 164.981H169.432V168.561H192.104ZM221.799 139.866C228.201 139.866 233.315 141.249 237.141 144.014C241.005 146.78 242.937 151.06 242.937 156.856V162.652C242.937 168.561 241.024 172.88 237.198 175.607C233.41 178.297 228.277 179.641 221.799 179.641H203.673C203.256 179.641 202.897 179.49 202.593 179.187C202.29 178.884 202.139 178.524 202.139 178.107V141.4C202.139 140.984 202.29 140.624 202.593 140.321C202.897 140.018 203.256 139.866 203.673 139.866H221.799ZM222.083 168.561C223.864 168.561 225.265 168.145 226.288 167.311C227.349 166.44 227.879 165.228 227.879 163.675V155.833C227.879 154.28 227.349 153.087 226.288 152.253C225.265 151.382 223.864 150.947 222.083 150.947H216.913V168.561H222.083ZM291.043 139.866C291.384 139.866 291.668 139.999 291.895 140.264C292.16 140.491 292.293 140.756 292.293 141.06C292.293 141.287 292.236 141.514 292.122 141.741L277.803 165.436V178.107C277.803 178.524 277.652 178.884 277.349 179.187C277.046 179.49 276.686 179.641 276.269 179.641H264.166C263.749 179.641 263.389 179.49 263.086 179.187C262.783 178.884 262.632 178.524 262.632 178.107V165.436L248.37 141.741C248.256 141.514 248.199 141.306 248.199 141.116C248.199 140.775 248.313 140.491 248.54 140.264C248.805 139.999 249.108 139.866 249.449 139.866H261.439C262.499 139.866 263.276 140.302 263.768 141.173L270.189 152.424L276.78 141.287C277.349 140.34 278.144 139.866 279.167 139.866H291.043Z" fill="white"/>
<path d="M343.006 139.21C343.422 139.21 343.782 139.361 344.085 139.664C344.388 139.968 344.54 140.327 344.54 140.744V149.892C344.54 150.309 344.388 150.669 344.085 150.972C343.782 151.275 343.422 151.427 343.006 151.427H330.789V177.451C330.789 177.868 330.637 178.227 330.334 178.531C330.031 178.834 329.671 178.985 329.255 178.985H317.55C317.133 178.985 316.773 178.834 316.47 178.531C316.167 178.227 316.015 177.868 316.015 177.451V151.427H303.799C303.382 151.427 303.022 151.275 302.719 150.972C302.416 150.669 302.264 150.309 302.264 149.892V140.744C302.264 140.327 302.416 139.968 302.719 139.664C303.022 139.361 303.382 139.21 303.799 139.21H343.006ZM394.237 177.224C394.312 177.375 394.35 177.546 394.35 177.735C394.35 178.076 394.218 178.379 393.953 178.644C393.725 178.871 393.441 178.985 393.1 178.985H380.202C379.671 178.985 379.179 178.853 378.724 178.587C378.308 178.322 378.005 177.981 377.815 177.565L372.815 166.314H368.042V177.451C368.042 177.868 367.89 178.227 367.587 178.531C367.284 178.834 366.924 178.985 366.508 178.985H354.234C353.817 178.985 353.458 178.834 353.155 178.531C352.852 178.227 352.7 177.868 352.7 177.451V140.744C352.7 140.327 352.852 139.968 353.155 139.664C353.458 139.361 353.817 139.21 354.234 139.21H376.338C379.747 139.21 382.721 139.759 385.259 140.858C387.835 141.956 389.805 143.547 391.168 145.631C392.532 147.714 393.214 150.158 393.214 152.961C393.214 158.113 391.225 161.844 387.248 164.155L394.237 177.224ZM375.145 155.802C375.978 155.802 376.622 155.537 377.077 155.006C377.531 154.438 377.758 153.737 377.758 152.904C377.758 152.071 377.531 151.351 377.077 150.745C376.66 150.101 376.016 149.779 375.145 149.779H368.042V155.802H375.145ZM427.682 167.337H437.967C438.384 167.337 438.744 167.488 439.047 167.791C439.35 168.094 439.501 168.454 439.501 168.871V177.451C439.501 177.868 439.35 178.227 439.047 178.531C438.744 178.834 438.384 178.985 437.967 178.985H401.942C401.526 178.985 401.166 178.834 400.863 178.531C400.56 178.227 400.408 177.868 400.408 177.451V168.871C400.408 168.454 400.56 168.094 400.863 167.791C401.166 167.488 401.526 167.337 401.942 167.337H412.341V150.858H401.942C401.526 150.858 401.166 150.707 400.863 150.404C400.56 150.101 400.408 149.741 400.408 149.324V140.744C400.408 140.327 400.56 139.968 400.863 139.664C401.166 139.361 401.526 139.21 401.942 139.21H437.967C438.384 139.21 438.744 139.361 439.047 139.664C439.35 139.968 439.501 140.327 439.501 140.744V149.324C439.501 149.741 439.35 150.101 439.047 150.404C438.744 150.707 438.384 150.858 437.967 150.858H427.682V167.337ZM474.027 139.21C477.588 139.21 480.694 139.816 483.346 141.028C485.997 142.24 488.024 143.888 489.426 145.972C490.827 148.055 491.528 150.385 491.528 152.961C491.528 157.203 490.202 160.537 487.55 162.961C484.899 165.348 480.391 166.541 474.027 166.541H466.526V177.451C466.526 177.868 466.375 178.227 466.072 178.531C465.769 178.834 465.409 178.985 464.992 178.985H452.775C452.359 178.985 451.999 178.834 451.696 178.531C451.393 178.227 451.241 177.868 451.241 177.451V140.744C451.241 140.327 451.393 139.968 451.696 139.664C451.999 139.361 452.359 139.21 452.775 139.21H474.027ZM473.8 156.029C474.709 156.029 475.428 155.764 475.959 155.234C476.489 154.665 476.754 153.927 476.754 153.018C476.754 152.071 476.489 151.294 475.959 150.688C475.428 150.082 474.709 149.779 473.8 149.779H466.583V156.029H473.8Z" fill="#2D9596"/>
</g>
<defs>
<clipPath id="clip0_67_3869">
<rect width="495.352" height="217.26" fill="white" transform="translate(0.658203 0.977295)"/>
</clipPath>
</defs>
</svg>
