<svg width="32" height="26" viewBox="0 0 32 26" fill="none" xmlns="http://www.w3.org/2000/svg">
<path d="M29 0H3C1.34375 0 0 1.24777 0 2.78571V23.2143C0 24.7522 1.34375 26 3 26H29C30.6562 26 32 24.7522 32 23.2143V2.78571C32 1.24777 30.6562 0 29 0ZM23.775 16.8594C24.075 17.1379 24.075 17.5906 23.775 17.8692L21.2437 20.2196C20.9438 20.4982 20.4562 20.4982 20.1562 20.2196L16 16.3254L11.8438 20.2196C11.5437 20.4982 11.0563 20.4982 10.7563 20.2196L8.225 17.8692C7.925 17.5906 7.925 17.1379 8.225 16.8594L12.4187 13L8.225 9.14062C7.925 8.86205 7.925 8.40938 8.225 8.1308L10.7563 5.78036C11.0563 5.50179 11.5437 5.50179 11.8438 5.78036L16 9.67455L20.1562 5.78036C20.4562 5.50179 20.9438 5.50179 21.2437 5.78036L23.775 8.1308C24.075 8.40938 24.075 8.86205 23.775 9.14062L19.5812 13L23.775 16.8594Z" fill="#FF8484"/>
</svg>
