<svg width="20" height="26" viewBox="0 0 20 26" fill="none" xmlns="http://www.w3.org/2000/svg">
<path d="M8.87441 25.301C1.77979 15.0159 0.462891 13.9603 0.462891 10.1804C0.462891 5.0027 4.66021 0.805389 9.83789 0.805389C15.0156 0.805389 19.2129 5.0027 19.2129 10.1804C19.2129 13.9603 17.896 15.0159 10.8014 25.301C10.3358 25.9736 9.33994 25.9735 8.87441 25.301ZM9.83789 14.0866C11.9953 14.0866 13.7441 12.3378 13.7441 10.1804C13.7441 8.02302 11.9953 6.27414 9.83789 6.27414C7.68052 6.27414 5.93164 8.02302 5.93164 10.1804C5.93164 12.3378 7.68052 14.0866 9.83789 14.0866Z" fill="#232323"/>
</svg>
