<svg width="1363" height="163" viewBox="0 0 1363 163" fill="none" xmlns="http://www.w3.org/2000/svg">
<path d="M0 15C0 6.71573 6.71573 0 15 0H37V163H15C6.71573 163 0 156.284 0 148V15Z" fill="#424242"/>
<rect width="1097" height="163" transform="translate(37)" fill="#F0F0F0"/>
<path d="M101.906 53.9219L94.3945 51.2383V48.0859L104.602 52.375V54.6367L101.906 53.9219ZM94.3945 56.1719L101.918 53.4297L104.602 52.7852V55.0352L94.3945 59.3242V56.1719ZM121.781 56.5352C121.781 56.2305 121.734 55.957 121.641 55.7148C121.555 55.4648 121.391 55.2383 121.148 55.0352C120.906 54.8242 120.566 54.6172 120.129 54.4141C119.691 54.2109 119.125 54 118.43 53.7812C117.656 53.5312 116.922 53.25 116.227 52.9375C115.539 52.625 114.93 52.2617 114.398 51.8477C113.875 51.4258 113.461 50.9375 113.156 50.3828C112.859 49.8281 112.711 49.1836 112.711 48.4492C112.711 47.7383 112.867 47.0938 113.18 46.5156C113.492 45.9297 113.93 45.4297 114.492 45.0156C115.055 44.5938 115.719 44.2695 116.484 44.043C117.258 43.8164 118.105 43.7031 119.027 43.7031C120.285 43.7031 121.383 43.9297 122.32 44.3828C123.258 44.8359 123.984 45.457 124.5 46.2461C125.023 47.0352 125.285 47.9375 125.285 48.9531H121.793C121.793 48.4531 121.688 48.0156 121.477 47.6406C121.273 47.2578 120.961 46.957 120.539 46.7383C120.125 46.5195 119.602 46.4102 118.969 46.4102C118.359 46.4102 117.852 46.5039 117.445 46.6914C117.039 46.8711 116.734 47.1172 116.531 47.4297C116.328 47.7344 116.227 48.0781 116.227 48.4609C116.227 48.75 116.297 49.0117 116.438 49.2461C116.586 49.4805 116.805 49.6992 117.094 49.9023C117.383 50.1055 117.738 50.2969 118.16 50.4766C118.582 50.6562 119.07 50.832 119.625 51.0039C120.555 51.2852 121.371 51.6016 122.074 51.9531C122.785 52.3047 123.379 52.6992 123.855 53.1367C124.332 53.5742 124.691 54.0703 124.934 54.625C125.176 55.1797 125.297 55.8086 125.297 56.5117C125.297 57.2539 125.152 57.918 124.863 58.5039C124.574 59.0898 124.156 59.5859 123.609 59.9922C123.062 60.3984 122.41 60.707 121.652 60.918C120.895 61.1289 120.047 61.2344 119.109 61.2344C118.266 61.2344 117.434 61.125 116.613 60.9062C115.793 60.6797 115.047 60.3398 114.375 59.8867C113.711 59.4336 113.18 58.8555 112.781 58.1523C112.383 57.4492 112.184 56.6172 112.184 55.6562H115.711C115.711 56.1875 115.793 56.6367 115.957 57.0039C116.121 57.3711 116.352 57.668 116.648 57.8945C116.953 58.1211 117.312 58.2852 117.727 58.3867C118.148 58.4883 118.609 58.5391 119.109 58.5391C119.719 58.5391 120.219 58.4531 120.609 58.2812C121.008 58.1094 121.301 57.8711 121.488 57.5664C121.684 57.2617 121.781 56.918 121.781 56.5352ZM130.852 50.7578V65.875H127.477V48.3203H130.605L130.852 50.7578ZM138.879 54.5195V54.7656C138.879 55.6875 138.77 56.543 138.551 57.332C138.34 58.1211 138.027 58.8086 137.613 59.3945C137.199 59.9727 136.684 60.4258 136.066 60.7539C135.457 61.0742 134.754 61.2344 133.957 61.2344C133.184 61.2344 132.512 61.0781 131.941 60.7656C131.371 60.4531 130.891 60.0156 130.5 59.4531C130.117 58.8828 129.809 58.2227 129.574 57.4727C129.34 56.7227 129.16 55.918 129.035 55.0586V54.4141C129.16 53.4922 129.34 52.6484 129.574 51.8828C129.809 51.1094 130.117 50.4414 130.5 49.8789C130.891 49.3086 131.367 48.8672 131.93 48.5547C132.5 48.2422 133.168 48.0859 133.934 48.0859C134.738 48.0859 135.445 48.2383 136.055 48.543C136.672 48.8477 137.188 49.2852 137.602 49.8555C138.023 50.4258 138.34 51.1055 138.551 51.8945C138.77 52.6836 138.879 53.5586 138.879 54.5195ZM135.492 54.7656V54.5195C135.492 53.9805 135.445 53.4844 135.352 53.0312C135.266 52.5703 135.125 52.168 134.93 51.8242C134.742 51.4805 134.492 51.2148 134.18 51.0273C133.875 50.832 133.504 50.7344 133.066 50.7344C132.605 50.7344 132.211 50.8086 131.883 50.957C131.562 51.1055 131.301 51.3203 131.098 51.6016C130.895 51.8828 130.742 52.2188 130.641 52.6094C130.539 53 130.477 53.4414 130.453 53.9336V55.5625C130.492 56.1406 130.602 56.6602 130.781 57.1211C130.961 57.5742 131.238 57.9336 131.613 58.1992C131.988 58.4648 132.48 58.5977 133.09 58.5977C133.535 58.5977 133.91 58.5 134.215 58.3047C134.52 58.1016 134.766 57.8242 134.953 57.4727C135.148 57.1211 135.285 56.7148 135.363 56.2539C135.449 55.793 135.492 55.2969 135.492 54.7656ZM146.812 61.2344C145.828 61.2344 144.945 61.0781 144.164 60.7656C143.383 60.4453 142.719 60.0039 142.172 59.4414C141.633 58.8789 141.219 58.2266 140.93 57.4844C140.641 56.7344 140.496 55.9375 140.496 55.0938V54.625C140.496 53.6641 140.633 52.7852 140.906 51.9883C141.18 51.1914 141.57 50.5 142.078 49.9141C142.594 49.3281 143.219 48.8789 143.953 48.5664C144.688 48.2461 145.516 48.0859 146.438 48.0859C147.336 48.0859 148.133 48.2344 148.828 48.5312C149.523 48.8281 150.105 49.25 150.574 49.7969C151.051 50.3438 151.41 51 151.652 51.7656C151.895 52.5234 152.016 53.3672 152.016 54.2969V55.7031H141.938V53.4531H148.699V53.1953C148.699 52.7266 148.613 52.3086 148.441 51.9414C148.277 51.5664 148.027 51.2695 147.691 51.0508C147.355 50.832 146.926 50.7227 146.402 50.7227C145.957 50.7227 145.574 50.8203 145.254 51.0156C144.934 51.2109 144.672 51.4844 144.469 51.8359C144.273 52.1875 144.125 52.6016 144.023 53.0781C143.93 53.5469 143.883 54.0625 143.883 54.625V55.0938C143.883 55.6016 143.953 56.0703 144.094 56.5C144.242 56.9297 144.449 57.3008 144.715 57.6133C144.988 57.9258 145.316 58.168 145.699 58.3398C146.09 58.5117 146.531 58.5977 147.023 58.5977C147.633 58.5977 148.199 58.4805 148.723 58.2461C149.254 58.0039 149.711 57.6406 150.094 57.1562L151.734 58.9375C151.469 59.3203 151.105 59.6875 150.645 60.0391C150.191 60.3906 149.645 60.6797 149.004 60.9062C148.363 61.125 147.633 61.2344 146.812 61.2344ZM159.773 61.2344C158.789 61.2344 157.906 61.0781 157.125 60.7656C156.344 60.4453 155.68 60.0039 155.133 59.4414C154.594 58.8789 154.18 58.2266 153.891 57.4844C153.602 56.7344 153.457 55.9375 153.457 55.0938V54.625C153.457 53.6641 153.594 52.7852 153.867 51.9883C154.141 51.1914 154.531 50.5 155.039 49.9141C155.555 49.3281 156.18 48.8789 156.914 48.5664C157.648 48.2461 158.477 48.0859 159.398 48.0859C160.297 48.0859 161.094 48.2344 161.789 48.5312C162.484 48.8281 163.066 49.25 163.535 49.7969C164.012 50.3438 164.371 51 164.613 51.7656C164.855 52.5234 164.977 53.3672 164.977 54.2969V55.7031H154.898V53.4531H161.66V53.1953C161.66 52.7266 161.574 52.3086 161.402 51.9414C161.238 51.5664 160.988 51.2695 160.652 51.0508C160.316 50.832 159.887 50.7227 159.363 50.7227C158.918 50.7227 158.535 50.8203 158.215 51.0156C157.895 51.2109 157.633 51.4844 157.43 51.8359C157.234 52.1875 157.086 52.6016 156.984 53.0781C156.891 53.5469 156.844 54.0625 156.844 54.625V55.0938C156.844 55.6016 156.914 56.0703 157.055 56.5C157.203 56.9297 157.41 57.3008 157.676 57.6133C157.949 57.9258 158.277 58.168 158.66 58.3398C159.051 58.5117 159.492 58.5977 159.984 58.5977C160.594 58.5977 161.16 58.4805 161.684 58.2461C162.215 58.0039 162.672 57.6406 163.055 57.1562L164.695 58.9375C164.43 59.3203 164.066 59.6875 163.605 60.0391C163.152 60.3906 162.605 60.6797 161.965 60.9062C161.324 61.125 160.594 61.2344 159.773 61.2344ZM174.387 58.2344V43H177.785V61H174.727L174.387 58.2344ZM166.371 54.8125V54.5664C166.371 53.5977 166.48 52.7188 166.699 51.9297C166.918 51.1328 167.238 50.4492 167.66 49.8789C168.082 49.3086 168.602 48.8672 169.219 48.5547C169.836 48.2422 170.539 48.0859 171.328 48.0859C172.07 48.0859 172.719 48.2422 173.273 48.5547C173.836 48.8672 174.312 49.3125 174.703 49.8906C175.102 50.4609 175.422 51.1367 175.664 51.918C175.906 52.6914 176.082 53.5391 176.191 54.4609V55C176.082 55.8828 175.906 56.7031 175.664 57.4609C175.422 58.2188 175.102 58.8828 174.703 59.4531C174.312 60.0156 173.836 60.4531 173.273 60.7656C172.711 61.0781 172.055 61.2344 171.305 61.2344C170.516 61.2344 169.812 61.0742 169.195 60.7539C168.586 60.4336 168.07 59.9844 167.648 59.4062C167.234 58.8281 166.918 58.1484 166.699 57.3672C166.48 56.5859 166.371 55.7344 166.371 54.8125ZM169.746 54.5664V54.8125C169.746 55.3359 169.785 55.8242 169.863 56.2773C169.949 56.7305 170.086 57.1328 170.273 57.4844C170.469 57.8281 170.719 58.0977 171.023 58.293C171.336 58.4805 171.715 58.5742 172.16 58.5742C172.738 58.5742 173.215 58.4453 173.59 58.1875C173.965 57.9219 174.25 57.5586 174.445 57.0977C174.648 56.6367 174.766 56.1055 174.797 55.5039V53.9688C174.773 53.4766 174.703 53.0352 174.586 52.6445C174.477 52.2461 174.312 51.9062 174.094 51.625C173.883 51.3438 173.617 51.125 173.297 50.9688C172.984 50.8125 172.613 50.7344 172.184 50.7344C171.746 50.7344 171.371 50.8359 171.059 51.0391C170.746 51.2344 170.492 51.5039 170.297 51.8477C170.109 52.1914 169.969 52.5977 169.875 53.0664C169.789 53.5273 169.746 54.0273 169.746 54.5664ZM184.184 59.5703L187.547 48.3203H191.168L186.07 62.9102C185.961 63.2305 185.812 63.5742 185.625 63.9414C185.445 64.3086 185.199 64.6562 184.887 64.9844C184.582 65.3203 184.195 65.5938 183.727 65.8047C183.266 66.0156 182.699 66.1211 182.027 66.1211C181.707 66.1211 181.445 66.1016 181.242 66.0625C181.039 66.0234 180.797 65.9688 180.516 65.8984V63.4258C180.602 63.4258 180.691 63.4258 180.785 63.4258C180.879 63.4336 180.969 63.4375 181.055 63.4375C181.5 63.4375 181.863 63.3867 182.145 63.2852C182.426 63.1836 182.652 63.0273 182.824 62.8164C182.996 62.6133 183.133 62.3477 183.234 62.0195L184.184 59.5703ZM182.777 48.3203L185.531 57.5078L186.012 61.082L183.715 61.3281L179.156 48.3203H182.777ZM200.355 43.9375V61H196.852V43.9375H200.355ZM205.605 43.9375V46.6914H191.684V43.9375H205.605ZM209.953 51.0859V61H206.578V48.3203H209.754L209.953 51.0859ZM213.773 48.2383L213.715 51.3672C213.551 51.3438 213.352 51.3242 213.117 51.3086C212.891 51.2852 212.684 51.2734 212.496 51.2734C212.02 51.2734 211.605 51.3359 211.254 51.4609C210.91 51.5781 210.621 51.7539 210.387 51.9883C210.16 52.2227 209.988 52.5078 209.871 52.8438C209.762 53.1797 209.699 53.5625 209.684 53.9922L209.004 53.7812C209.004 52.9609 209.086 52.207 209.25 51.5195C209.414 50.8242 209.652 50.2188 209.965 49.7031C210.285 49.1875 210.676 48.7891 211.137 48.5078C211.598 48.2266 212.125 48.0859 212.719 48.0859C212.906 48.0859 213.098 48.1016 213.293 48.1328C213.488 48.1562 213.648 48.1914 213.773 48.2383ZM218.93 48.3203V61H215.543V48.3203H218.93ZM215.332 45.0156C215.332 44.5234 215.504 44.1172 215.848 43.7969C216.191 43.4766 216.652 43.3164 217.23 43.3164C217.801 43.3164 218.258 43.4766 218.602 43.7969C218.953 44.1172 219.129 44.5234 219.129 45.0156C219.129 45.5078 218.953 45.9141 218.602 46.2344C218.258 46.5547 217.801 46.7148 217.23 46.7148C216.652 46.7148 216.191 46.5547 215.848 46.2344C215.504 45.9141 215.332 45.5078 215.332 45.0156ZM225.094 50.7578V65.875H221.719V48.3203H224.848L225.094 50.7578ZM233.121 54.5195V54.7656C233.121 55.6875 233.012 56.543 232.793 57.332C232.582 58.1211 232.27 58.8086 231.855 59.3945C231.441 59.9727 230.926 60.4258 230.309 60.7539C229.699 61.0742 228.996 61.2344 228.199 61.2344C227.426 61.2344 226.754 61.0781 226.184 60.7656C225.613 60.4531 225.133 60.0156 224.742 59.4531C224.359 58.8828 224.051 58.2227 223.816 57.4727C223.582 56.7227 223.402 55.918 223.277 55.0586V54.4141C223.402 53.4922 223.582 52.6484 223.816 51.8828C224.051 51.1094 224.359 50.4414 224.742 49.8789C225.133 49.3086 225.609 48.8672 226.172 48.5547C226.742 48.2422 227.41 48.0859 228.176 48.0859C228.98 48.0859 229.688 48.2383 230.297 48.543C230.914 48.8477 231.43 49.2852 231.844 49.8555C232.266 50.4258 232.582 51.1055 232.793 51.8945C233.012 52.6836 233.121 53.5586 233.121 54.5195ZM229.734 54.7656V54.5195C229.734 53.9805 229.688 53.4844 229.594 53.0312C229.508 52.5703 229.367 52.168 229.172 51.8242C228.984 51.4805 228.734 51.2148 228.422 51.0273C228.117 50.832 227.746 50.7344 227.309 50.7344C226.848 50.7344 226.453 50.8086 226.125 50.957C225.805 51.1055 225.543 51.3203 225.34 51.6016C225.137 51.8828 224.984 52.2188 224.883 52.6094C224.781 53 224.719 53.4414 224.695 53.9336V55.5625C224.734 56.1406 224.844 56.6602 225.023 57.1211C225.203 57.5742 225.48 57.9336 225.855 58.1992C226.23 58.4648 226.723 58.5977 227.332 58.5977C227.777 58.5977 228.152 58.5 228.457 58.3047C228.762 58.1016 229.008 57.8242 229.195 57.4727C229.391 57.1211 229.527 56.7148 229.605 56.2539C229.691 55.793 229.734 55.2969 229.734 54.7656Z" fill="#888888"/>
<path d="M112.125 84.875V119H103.898V84.875H112.125ZM122.391 84.875V91.2266H93.8672V84.875H122.391ZM135.68 119.469C133.617 119.469 131.773 119.148 130.148 118.508C128.523 117.852 127.148 116.953 126.023 115.812C124.914 114.672 124.062 113.359 123.469 111.875C122.891 110.391 122.602 108.82 122.602 107.164V106.273C122.602 104.414 122.859 102.695 123.375 101.117C123.891 99.5234 124.656 98.1328 125.672 96.9453C126.688 95.7578 127.961 94.8359 129.492 94.1797C131.023 93.5078 132.805 93.1719 134.836 93.1719C136.633 93.1719 138.242 93.4609 139.664 94.0391C141.086 94.6172 142.289 95.4453 143.273 96.5234C144.273 97.6016 145.031 98.9062 145.547 100.438C146.078 101.969 146.344 103.688 146.344 105.594V108.805H125.625V103.859H138.633V103.25C138.648 102.406 138.5 101.688 138.188 101.094C137.891 100.5 137.453 100.047 136.875 99.7344C136.297 99.4219 135.594 99.2656 134.766 99.2656C133.906 99.2656 133.195 99.4531 132.633 99.8281C132.086 100.203 131.656 100.719 131.344 101.375C131.047 102.016 130.836 102.758 130.711 103.602C130.586 104.445 130.523 105.336 130.523 106.273V107.164C130.523 108.102 130.648 108.953 130.898 109.719C131.164 110.484 131.539 111.141 132.023 111.688C132.523 112.219 133.117 112.633 133.805 112.93C134.508 113.227 135.305 113.375 136.195 113.375C137.273 113.375 138.336 113.172 139.383 112.766C140.43 112.359 141.328 111.688 142.078 110.75L145.664 115.016C145.148 115.75 144.414 116.461 143.461 117.148C142.523 117.836 141.398 118.398 140.086 118.836C138.773 119.258 137.305 119.469 135.68 119.469ZM160.266 113.375C161 113.375 161.625 113.242 162.141 112.977C162.672 112.695 163.07 112.305 163.336 111.805C163.617 111.289 163.75 110.672 163.734 109.953H171.164C171.18 111.859 170.711 113.531 169.758 114.969C168.82 116.391 167.539 117.5 165.914 118.297C164.305 119.078 162.484 119.469 160.453 119.469C158.469 119.469 156.734 119.148 155.25 118.508C153.766 117.852 152.523 116.945 151.523 115.789C150.539 114.617 149.797 113.25 149.297 111.688C148.812 110.125 148.57 108.43 148.57 106.602V106.062C148.57 104.234 148.812 102.539 149.297 100.977C149.797 99.3984 150.539 98.0312 151.523 96.875C152.523 95.7031 153.758 94.7969 155.227 94.1562C156.711 93.5 158.438 93.1719 160.406 93.1719C162.516 93.1719 164.375 93.5703 165.984 94.3672C167.609 95.1641 168.883 96.3203 169.805 97.8359C170.727 99.3516 171.18 101.188 171.164 103.344H163.734C163.75 102.578 163.633 101.891 163.383 101.281C163.133 100.672 162.742 100.188 162.211 99.8281C161.695 99.4531 161.031 99.2656 160.219 99.2656C159.406 99.2656 158.75 99.4453 158.25 99.8047C157.75 100.164 157.367 100.664 157.102 101.305C156.852 101.93 156.68 102.648 156.586 103.461C156.508 104.273 156.469 105.141 156.469 106.062V106.602C156.469 107.539 156.508 108.422 156.586 109.25C156.68 110.062 156.859 110.781 157.125 111.406C157.391 112.016 157.773 112.5 158.273 112.859C158.773 113.203 159.438 113.375 160.266 113.375ZM182.273 83V119H174.375V83H182.273ZM181.336 105.453L179.484 105.5C179.484 103.719 179.703 102.078 180.141 100.578C180.578 99.0781 181.203 97.7734 182.016 96.6641C182.828 95.5547 183.805 94.6953 184.945 94.0859C186.086 93.4766 187.352 93.1719 188.742 93.1719C189.992 93.1719 191.133 93.3516 192.164 93.7109C193.211 94.0703 194.109 94.6484 194.859 95.4453C195.625 96.2422 196.211 97.2812 196.617 98.5625C197.039 99.8438 197.25 101.406 197.25 103.25V119H189.305V103.203C189.305 102.172 189.156 101.375 188.859 100.812C188.578 100.234 188.172 99.8359 187.641 99.6172C187.109 99.3828 186.461 99.2656 185.695 99.2656C184.773 99.2656 184.023 99.4219 183.445 99.7344C182.867 100.047 182.422 100.484 182.109 101.047C181.812 101.594 181.609 102.242 181.5 102.992C181.391 103.742 181.336 104.562 181.336 105.453ZM231.539 109.93C231.539 109.398 231.461 108.922 231.305 108.5C231.148 108.062 230.859 107.656 230.438 107.281C230.016 106.906 229.406 106.531 228.609 106.156C227.828 105.766 226.797 105.359 225.516 104.938C224.016 104.438 222.57 103.875 221.18 103.25C219.789 102.609 218.547 101.867 217.453 101.023C216.359 100.164 215.492 99.1641 214.852 98.0234C214.211 96.8672 213.891 95.5234 213.891 93.9922C213.891 92.5234 214.219 91.2031 214.875 90.0312C215.531 88.8438 216.445 87.8359 217.617 87.0078C218.805 86.1641 220.195 85.5234 221.789 85.0859C223.383 84.6328 225.125 84.4062 227.016 84.4062C229.516 84.4062 231.719 84.8438 233.625 85.7188C235.547 86.5781 237.047 87.8047 238.125 89.3984C239.219 90.9766 239.766 92.8438 239.766 95H231.586C231.586 94.1406 231.406 93.3828 231.047 92.7266C230.703 92.0703 230.18 91.5547 229.477 91.1797C228.773 90.8047 227.891 90.6172 226.828 90.6172C225.797 90.6172 224.93 90.7734 224.227 91.0859C223.523 91.3984 222.992 91.8203 222.633 92.3516C222.273 92.8672 222.094 93.4375 222.094 94.0625C222.094 94.5781 222.234 95.0469 222.516 95.4688C222.812 95.875 223.227 96.2578 223.758 96.6172C224.305 96.9766 224.961 97.3203 225.727 97.6484C226.508 97.9766 227.383 98.2969 228.352 98.6094C230.164 99.1875 231.773 99.8359 233.18 100.555C234.602 101.258 235.797 102.062 236.766 102.969C237.75 103.859 238.492 104.875 238.992 106.016C239.508 107.156 239.766 108.445 239.766 109.883C239.766 111.414 239.469 112.773 238.875 113.961C238.281 115.148 237.43 116.156 236.32 116.984C235.211 117.797 233.883 118.414 232.336 118.836C230.789 119.258 229.062 119.469 227.156 119.469C225.406 119.469 223.68 119.25 221.977 118.812C220.289 118.359 218.758 117.672 217.383 116.75C216.008 115.812 214.906 114.617 214.078 113.164C213.266 111.695 212.859 109.953 212.859 107.938H221.109C221.109 108.938 221.242 109.781 221.508 110.469C221.773 111.156 222.164 111.711 222.68 112.133C223.195 112.539 223.828 112.836 224.578 113.023C225.328 113.195 226.188 113.281 227.156 113.281C228.203 113.281 229.047 113.133 229.688 112.836C230.328 112.523 230.797 112.117 231.094 111.617C231.391 111.102 231.539 110.539 231.539 109.93ZM256.992 93.6406V99.125H241.711V93.6406H256.992ZM244.922 87.3359H252.82V110.727C252.82 111.398 252.898 111.922 253.055 112.297C253.211 112.656 253.477 112.914 253.852 113.07C254.242 113.211 254.758 113.281 255.398 113.281C255.852 113.281 256.227 113.273 256.523 113.258C256.82 113.227 257.102 113.188 257.367 113.141V118.789C256.695 119.008 255.992 119.172 255.258 119.281C254.523 119.406 253.742 119.469 252.914 119.469C251.227 119.469 249.781 119.203 248.578 118.672C247.391 118.141 246.484 117.305 245.859 116.164C245.234 115.023 244.922 113.539 244.922 111.711V87.3359ZM273.305 112.625V102.172C273.305 101.453 273.203 100.836 273 100.32C272.797 99.8047 272.477 99.4062 272.039 99.125C271.602 98.8281 271.016 98.6797 270.281 98.6797C269.688 98.6797 269.18 98.7812 268.758 98.9844C268.336 99.1875 268.016 99.4922 267.797 99.8984C267.578 100.305 267.469 100.82 267.469 101.445H259.57C259.57 100.273 259.828 99.1875 260.344 98.1875C260.875 97.1719 261.625 96.2891 262.594 95.5391C263.578 94.7891 264.75 94.2109 266.109 93.8047C267.484 93.3828 269.016 93.1719 270.703 93.1719C272.719 93.1719 274.516 93.5078 276.094 94.1797C277.688 94.8516 278.945 95.8594 279.867 97.2031C280.789 98.5312 281.25 100.203 281.25 102.219V112.602C281.25 114.258 281.344 115.516 281.531 116.375C281.719 117.219 281.984 117.961 282.328 118.602V119H274.406C274.031 118.219 273.75 117.266 273.562 116.141C273.391 115 273.305 113.828 273.305 112.625ZM274.266 103.508L274.312 107.727H270.82C270.086 107.727 269.461 107.828 268.945 108.031C268.445 108.234 268.039 108.516 267.727 108.875C267.43 109.219 267.211 109.609 267.07 110.047C266.945 110.484 266.883 110.945 266.883 111.43C266.883 111.898 266.992 112.32 267.211 112.695C267.445 113.055 267.758 113.336 268.148 113.539C268.539 113.742 268.977 113.844 269.461 113.844C270.336 113.844 271.078 113.68 271.688 113.352C272.312 113.008 272.789 112.594 273.117 112.109C273.445 111.625 273.609 111.172 273.609 110.75L275.344 113.984C275.031 114.609 274.672 115.242 274.266 115.883C273.875 116.523 273.383 117.117 272.789 117.664C272.211 118.195 271.5 118.633 270.656 118.977C269.812 119.305 268.789 119.469 267.586 119.469C266.023 119.469 264.586 119.148 263.273 118.508C261.977 117.867 260.938 116.977 260.156 115.836C259.375 114.68 258.984 113.352 258.984 111.852C258.984 110.539 259.219 109.367 259.688 108.336C260.172 107.305 260.898 106.43 261.867 105.711C262.836 104.992 264.07 104.445 265.57 104.07C267.07 103.695 268.836 103.508 270.867 103.508H274.266ZM296.344 113.375C297.078 113.375 297.703 113.242 298.219 112.977C298.75 112.695 299.148 112.305 299.414 111.805C299.695 111.289 299.828 110.672 299.812 109.953H307.242C307.258 111.859 306.789 113.531 305.836 114.969C304.898 116.391 303.617 117.5 301.992 118.297C300.383 119.078 298.562 119.469 296.531 119.469C294.547 119.469 292.812 119.148 291.328 118.508C289.844 117.852 288.602 116.945 287.602 115.789C286.617 114.617 285.875 113.25 285.375 111.688C284.891 110.125 284.648 108.43 284.648 106.602V106.062C284.648 104.234 284.891 102.539 285.375 100.977C285.875 99.3984 286.617 98.0312 287.602 96.875C288.602 95.7031 289.836 94.7969 291.305 94.1562C292.789 93.5 294.516 93.1719 296.484 93.1719C298.594 93.1719 300.453 93.5703 302.062 94.3672C303.688 95.1641 304.961 96.3203 305.883 97.8359C306.805 99.3516 307.258 101.188 307.242 103.344H299.812C299.828 102.578 299.711 101.891 299.461 101.281C299.211 100.672 298.82 100.188 298.289 99.8281C297.773 99.4531 297.109 99.2656 296.297 99.2656C295.484 99.2656 294.828 99.4453 294.328 99.8047C293.828 100.164 293.445 100.664 293.18 101.305C292.93 101.93 292.758 102.648 292.664 103.461C292.586 104.273 292.547 105.141 292.547 106.062V106.602C292.547 107.539 292.586 108.422 292.664 109.25C292.758 110.062 292.938 110.781 293.203 111.406C293.469 112.016 293.852 112.5 294.352 112.859C294.852 113.203 295.516 113.375 296.344 113.375ZM318.586 82.9766V119H310.688V82.9766H318.586ZM334.805 93.6406L323.789 106.555L318.023 112.32L314.578 107.305L319.383 101.047L325.336 93.6406H334.805ZM326.344 119L319.57 107.445L325.406 103.297L335.391 119H326.344ZM350.156 111.875C350.156 111.438 350.008 111.062 349.711 110.75C349.43 110.422 348.93 110.125 348.211 109.859C347.492 109.578 346.484 109.297 345.188 109.016C343.953 108.75 342.789 108.398 341.695 107.961C340.617 107.523 339.672 106.992 338.859 106.367C338.047 105.742 337.406 105 336.938 104.141C336.484 103.281 336.258 102.297 336.258 101.188C336.258 100.109 336.484 99.0938 336.938 98.1406C337.406 97.1719 338.086 96.3203 338.977 95.5859C339.883 94.8359 340.984 94.25 342.281 93.8281C343.578 93.3906 345.055 93.1719 346.711 93.1719C348.992 93.1719 350.961 93.5234 352.617 94.2266C354.273 94.9141 355.547 95.8828 356.438 97.1328C357.344 98.3672 357.797 99.7969 357.797 101.422H349.898C349.898 100.781 349.789 100.234 349.57 99.7812C349.367 99.3281 349.031 98.9844 348.562 98.75C348.094 98.5 347.469 98.375 346.688 98.375C346.141 98.375 345.641 98.4766 345.188 98.6797C344.75 98.8828 344.398 99.1641 344.133 99.5234C343.867 99.8828 343.734 100.305 343.734 100.789C343.734 101.133 343.812 101.445 343.969 101.727C344.141 101.992 344.398 102.242 344.742 102.477C345.086 102.695 345.523 102.898 346.055 103.086C346.586 103.258 347.227 103.414 347.977 103.555C349.68 103.867 351.273 104.312 352.758 104.891C354.242 105.469 355.445 106.289 356.367 107.352C357.305 108.414 357.773 109.844 357.773 111.641C357.773 112.766 357.516 113.805 357 114.758C356.484 115.695 355.742 116.523 354.773 117.242C353.805 117.945 352.641 118.492 351.281 118.883C349.922 119.273 348.391 119.469 346.688 119.469C344.266 119.469 342.219 119.039 340.547 118.18C338.875 117.305 337.609 116.211 336.75 114.898C335.906 113.57 335.484 112.227 335.484 110.867H342.844C342.875 111.648 343.062 112.289 343.406 112.789C343.766 113.289 344.242 113.656 344.836 113.891C345.43 114.125 346.117 114.242 346.898 114.242C347.617 114.242 348.211 114.141 348.68 113.938C349.164 113.734 349.531 113.461 349.781 113.117C350.031 112.758 350.156 112.344 350.156 111.875Z" fill="black"/>
<path d="M1134 0H1348C1356.28 0 1363 6.71573 1363 15V148C1363 156.284 1356.28 163 1348 163H1134V0Z" fill="#2D9596"/>
<path fill-rule="evenodd" clip-rule="evenodd" d="M1219.98 53C1219.85 53 1219.73 53.0527 1219.64 53.1464C1219.55 53.2402 1219.5 53.3674 1219.5 53.5V109.5C1219.5 109.633 1219.55 109.76 1219.64 109.854C1219.73 109.947 1219.85 110 1219.98 110H1277.02C1277.15 110 1277.27 109.947 1277.36 109.854C1277.45 109.76 1277.5 109.633 1277.5 109.5V64C1277.5 63.8674 1277.45 63.7402 1277.36 63.6464C1277.27 63.5527 1277.15 63.5 1277.02 63.5H1248.5C1247.65 63.5 1246.84 63.1045 1246.29 62.4206L1238.77 53H1219.98ZM1215.58 48.9038C1216.74 47.6848 1218.33 47 1219.98 47H1240.11C1240.97 47 1241.77 47.3955 1242.32 48.0794L1249.85 57.5H1277.02C1278.67 57.5 1280.26 58.1848 1281.42 59.4038C1282.59 60.6228 1283.25 62.2761 1283.25 64V109.5C1283.25 111.224 1282.59 112.877 1281.42 114.096C1280.26 115.315 1278.67 116 1277.02 116H1219.98C1218.33 116 1216.74 115.315 1215.58 114.096C1214.41 112.877 1213.75 111.224 1213.75 109.5V53.5C1213.75 51.7761 1214.41 50.1228 1215.58 48.9038Z" fill="white"/>
<path fill-rule="evenodd" clip-rule="evenodd" d="M1244.16 75.5251C1245.47 76.892 1245.47 79.108 1244.16 80.4749L1238.15 86.75L1244.16 93.0251C1245.47 94.392 1245.47 96.608 1244.16 97.9749C1242.85 99.3417 1240.73 99.3417 1239.42 97.9749L1231.03 89.2249C1229.72 87.858 1229.72 85.642 1231.03 84.2751L1239.42 75.5251C1240.73 74.1583 1242.85 74.1583 1244.16 75.5251Z" fill="white"/>
<path fill-rule="evenodd" clip-rule="evenodd" d="M1252.12 97.9749C1250.81 96.608 1250.81 94.392 1252.12 93.0251L1258.13 86.75L1252.12 80.4749C1250.81 79.108 1250.81 76.892 1252.12 75.5251C1253.43 74.1583 1255.55 74.1583 1256.86 75.5251L1265.25 84.2751C1266.56 85.642 1266.56 87.858 1265.25 89.2249L1256.86 97.9749C1255.55 99.3417 1253.43 99.3417 1252.12 97.9749Z" fill="white"/>
</svg>
