<svg width="1363" height="297" viewBox="0 0 1363 297" fill="none" xmlns="http://www.w3.org/2000/svg">
<path d="M0 15C0 6.71573 6.71573 0 15 0H37V297H15C6.71573 297 0 290.284 0 282V15Z" fill="#2D9596"/>
<path d="M37 0H1066V297H37V0Z" fill="#F0F0F0"/>
<path d="M97.6934 49.4062H102.158L108.732 68.1973L115.307 49.4062H119.771L110.525 75H106.939L97.6934 49.4062ZM95.2852 49.4062H99.7324L100.541 67.7227V75H95.2852V49.4062ZM117.732 49.4062H122.197V75H116.924V67.7227L117.732 49.4062ZM136.77 70.7109V62.2383C136.77 61.6289 136.67 61.1074 136.471 60.6738C136.271 60.2285 135.961 59.8828 135.539 59.6367C135.129 59.3906 134.596 59.2676 133.939 59.2676C133.377 59.2676 132.891 59.3672 132.48 59.5664C132.07 59.7539 131.754 60.0293 131.531 60.3926C131.309 60.7441 131.197 61.1602 131.197 61.6406H126.135C126.135 60.832 126.322 60.0645 126.697 59.3379C127.072 58.6113 127.617 57.9727 128.332 57.4219C129.047 56.8594 129.896 56.4199 130.881 56.1035C131.877 55.7871 132.99 55.6289 134.221 55.6289C135.697 55.6289 137.01 55.875 138.158 56.3672C139.307 56.8594 140.209 57.5977 140.865 58.582C141.533 59.5664 141.867 60.7969 141.867 62.2734V70.4121C141.867 71.4551 141.932 72.3105 142.061 72.9785C142.189 73.6348 142.377 74.209 142.623 74.7012V75H137.508C137.262 74.4844 137.074 73.8398 136.945 73.0664C136.828 72.2812 136.77 71.4961 136.77 70.7109ZM137.438 63.416L137.473 66.2812H134.643C133.975 66.2812 133.395 66.3574 132.902 66.5098C132.41 66.6621 132.006 66.8789 131.689 67.1602C131.373 67.4297 131.139 67.7461 130.986 68.1094C130.846 68.4727 130.775 68.8711 130.775 69.3047C130.775 69.7383 130.875 70.1309 131.074 70.4824C131.273 70.8223 131.561 71.0918 131.936 71.291C132.311 71.4785 132.75 71.5723 133.254 71.5723C134.016 71.5723 134.678 71.4199 135.24 71.1152C135.803 70.8105 136.236 70.4355 136.541 69.9902C136.857 69.5449 137.021 69.123 137.033 68.7246L138.369 70.8691C138.182 71.3496 137.924 71.8477 137.596 72.3633C137.279 72.8789 136.875 73.3652 136.383 73.8223C135.891 74.2676 135.299 74.6367 134.607 74.9297C133.916 75.2109 133.096 75.3516 132.146 75.3516C130.939 75.3516 129.844 75.1113 128.859 74.6309C127.887 74.1387 127.113 73.4648 126.539 72.6094C125.977 71.7422 125.695 70.7578 125.695 69.6562C125.695 68.6602 125.883 67.7754 126.258 67.002C126.633 66.2285 127.184 65.5781 127.91 65.0508C128.648 64.5117 129.568 64.1074 130.67 63.8379C131.771 63.5566 133.049 63.416 134.502 63.416H137.438ZM150.832 60.1289V75H145.77V55.9805H150.533L150.832 60.1289ZM156.562 55.8574L156.475 60.5508C156.229 60.5156 155.93 60.4863 155.578 60.4629C155.238 60.4277 154.928 60.4102 154.646 60.4102C153.932 60.4102 153.311 60.5039 152.783 60.6914C152.268 60.8672 151.834 61.1309 151.482 61.4824C151.143 61.834 150.885 62.2617 150.709 62.7656C150.545 63.2695 150.451 63.8438 150.428 64.4883L149.408 64.1719C149.408 62.9414 149.531 61.8105 149.777 60.7793C150.023 59.7363 150.381 58.8281 150.85 58.0547C151.33 57.2812 151.916 56.6836 152.607 56.2617C153.299 55.8398 154.09 55.6289 154.98 55.6289C155.262 55.6289 155.549 55.6523 155.842 55.6992C156.135 55.7344 156.375 55.7871 156.562 55.8574ZM164.701 70.0781L168.656 55.9805H171.873L170.836 61.5176L166.881 75H164.191L164.701 70.0781ZM162.697 55.9805L165.527 70.0605L165.791 75H162.627L157.811 55.9805H162.697ZM175.494 69.832L178.254 55.9805H183.158L178.342 75H175.195L175.494 69.832ZM172.312 55.9805L176.25 69.9727L176.795 75H174.088L170.133 61.5352L169.131 55.9805H172.312ZM195.973 70.7109V62.2383C195.973 61.6289 195.873 61.1074 195.674 60.6738C195.475 60.2285 195.164 59.8828 194.742 59.6367C194.332 59.3906 193.799 59.2676 193.143 59.2676C192.58 59.2676 192.094 59.3672 191.684 59.5664C191.273 59.7539 190.957 60.0293 190.734 60.3926C190.512 60.7441 190.4 61.1602 190.4 61.6406H185.338C185.338 60.832 185.525 60.0645 185.9 59.3379C186.275 58.6113 186.82 57.9727 187.535 57.4219C188.25 56.8594 189.1 56.4199 190.084 56.1035C191.08 55.7871 192.193 55.6289 193.424 55.6289C194.9 55.6289 196.213 55.875 197.361 56.3672C198.51 56.8594 199.412 57.5977 200.068 58.582C200.736 59.5664 201.07 60.7969 201.07 62.2734V70.4121C201.07 71.4551 201.135 72.3105 201.264 72.9785C201.393 73.6348 201.58 74.209 201.826 74.7012V75H196.711C196.465 74.4844 196.277 73.8398 196.148 73.0664C196.031 72.2812 195.973 71.4961 195.973 70.7109ZM196.641 63.416L196.676 66.2812H193.846C193.178 66.2812 192.598 66.3574 192.105 66.5098C191.613 66.6621 191.209 66.8789 190.893 67.1602C190.576 67.4297 190.342 67.7461 190.189 68.1094C190.049 68.4727 189.979 68.8711 189.979 69.3047C189.979 69.7383 190.078 70.1309 190.277 70.4824C190.477 70.8223 190.764 71.0918 191.139 71.291C191.514 71.4785 191.953 71.5723 192.457 71.5723C193.219 71.5723 193.881 71.4199 194.443 71.1152C195.006 70.8105 195.439 70.4355 195.744 69.9902C196.061 69.5449 196.225 69.123 196.236 68.7246L197.572 70.8691C197.385 71.3496 197.127 71.8477 196.799 72.3633C196.482 72.8789 196.078 73.3652 195.586 73.8223C195.094 74.2676 194.502 74.6367 193.811 74.9297C193.119 75.2109 192.299 75.3516 191.35 75.3516C190.143 75.3516 189.047 75.1113 188.062 74.6309C187.09 74.1387 186.316 73.4648 185.742 72.6094C185.18 71.7422 184.898 70.7578 184.898 69.6562C184.898 68.6602 185.086 67.7754 185.461 67.002C185.836 66.2285 186.387 65.5781 187.113 65.0508C187.852 64.5117 188.771 64.1074 189.873 63.8379C190.975 63.5566 192.252 63.416 193.705 63.416H196.641ZM235.277 61.6055V62.8184C235.277 64.7637 235.014 66.5098 234.486 68.0566C233.959 69.6035 233.215 70.9219 232.254 72.0117C231.293 73.0898 230.145 73.916 228.809 74.4902C227.484 75.0645 226.014 75.3516 224.396 75.3516C222.791 75.3516 221.32 75.0645 219.984 74.4902C218.66 73.916 217.512 73.0898 216.539 72.0117C215.566 70.9219 214.811 69.6035 214.271 68.0566C213.744 66.5098 213.48 64.7637 213.48 62.8184V61.6055C213.48 59.6484 213.744 57.9023 214.271 56.3672C214.799 54.8203 215.543 53.502 216.504 52.4121C217.477 51.3223 218.625 50.4902 219.949 49.916C221.285 49.3418 222.756 49.0547 224.361 49.0547C225.979 49.0547 227.449 49.3418 228.773 49.916C230.109 50.4902 231.258 51.3223 232.219 52.4121C233.191 53.502 233.941 54.8203 234.469 56.3672C235.008 57.9023 235.277 59.6484 235.277 61.6055ZM229.951 62.8184V61.5703C229.951 60.2109 229.828 59.0156 229.582 57.9844C229.336 56.9531 228.973 56.0859 228.492 55.3828C228.012 54.6797 227.426 54.1523 226.734 53.8008C226.043 53.4375 225.252 53.2559 224.361 53.2559C223.471 53.2559 222.68 53.4375 221.988 53.8008C221.309 54.1523 220.729 54.6797 220.248 55.3828C219.779 56.0859 219.422 56.9531 219.176 57.9844C218.93 59.0156 218.807 60.2109 218.807 61.5703V62.8184C218.807 64.166 218.93 65.3613 219.176 66.4043C219.422 67.4355 219.785 68.3086 220.266 69.0234C220.746 69.7266 221.332 70.2598 222.023 70.623C222.715 70.9863 223.506 71.168 224.396 71.168C225.287 71.168 226.078 70.9863 226.77 70.623C227.461 70.2598 228.041 69.7266 228.51 69.0234C228.979 68.3086 229.336 67.4355 229.582 66.4043C229.828 65.3613 229.951 64.166 229.951 62.8184ZM243.715 60.041V75H238.652V55.9805H243.398L243.715 60.041ZM242.977 64.8223H241.605C241.605 63.416 241.787 62.1504 242.15 61.0254C242.514 59.8887 243.023 58.9219 243.68 58.125C244.336 57.3164 245.115 56.7012 246.018 56.2793C246.932 55.8457 247.951 55.6289 249.076 55.6289C249.967 55.6289 250.781 55.7578 251.52 56.0156C252.258 56.2734 252.891 56.6836 253.418 57.2461C253.957 57.8086 254.367 58.5527 254.648 59.4785C254.941 60.4043 255.088 61.5352 255.088 62.8711V75H249.99V62.8535C249.99 62.0098 249.873 61.3535 249.639 60.8848C249.404 60.416 249.059 60.0879 248.602 59.9004C248.156 59.7012 247.605 59.6016 246.949 59.6016C246.27 59.6016 245.678 59.7363 245.174 60.0059C244.682 60.2754 244.271 60.6504 243.943 61.1309C243.627 61.5996 243.387 62.1504 243.223 62.7832C243.059 63.416 242.977 64.0957 242.977 64.8223ZM267.691 75.3516C266.215 75.3516 264.891 75.1172 263.719 74.6484C262.547 74.168 261.551 73.5059 260.73 72.6621C259.922 71.8184 259.301 70.8398 258.867 69.7266C258.434 68.6016 258.217 67.4062 258.217 66.1406V65.4375C258.217 63.9961 258.422 62.6777 258.832 61.4824C259.242 60.2871 259.828 59.25 260.59 58.3711C261.363 57.4922 262.301 56.8184 263.402 56.3496C264.504 55.8691 265.746 55.6289 267.129 55.6289C268.477 55.6289 269.672 55.8516 270.715 56.2969C271.758 56.7422 272.631 57.375 273.334 58.1953C274.049 59.0156 274.588 60 274.951 61.1484C275.314 62.2852 275.496 63.5508 275.496 64.9453V67.0547H260.379V63.6797H270.521V63.293C270.521 62.5898 270.393 61.9629 270.135 61.4121C269.889 60.8496 269.514 60.4043 269.01 60.0762C268.506 59.748 267.861 59.584 267.076 59.584C266.408 59.584 265.834 59.7305 265.354 60.0234C264.873 60.3164 264.48 60.7266 264.176 61.2539C263.883 61.7812 263.66 62.4023 263.508 63.1172C263.367 63.8203 263.297 64.5938 263.297 65.4375V66.1406C263.297 66.9023 263.402 67.6055 263.613 68.25C263.836 68.8945 264.146 69.4512 264.545 69.9199C264.955 70.3887 265.447 70.752 266.021 71.0098C266.607 71.2676 267.27 71.3965 268.008 71.3965C268.922 71.3965 269.771 71.2207 270.557 70.8691C271.354 70.5059 272.039 69.9609 272.613 69.2344L275.074 71.9062C274.676 72.4805 274.131 73.0312 273.439 73.5586C272.76 74.0859 271.939 74.5195 270.979 74.8594C270.018 75.1875 268.922 75.3516 267.691 75.3516ZM283.723 55.9805V75H278.643V55.9805H283.723ZM278.326 51.0234C278.326 50.2852 278.584 49.6758 279.1 49.1953C279.615 48.7148 280.307 48.4746 281.174 48.4746C282.029 48.4746 282.715 48.7148 283.23 49.1953C283.758 49.6758 284.021 50.2852 284.021 51.0234C284.021 51.7617 283.758 52.3711 283.23 52.8516C282.715 53.332 282.029 53.5723 281.174 53.5723C280.307 53.5723 279.615 53.332 279.1 52.8516C278.584 52.3711 278.326 51.7617 278.326 51.0234ZM298.189 69.7441C298.189 69.3809 298.084 69.0527 297.873 68.7598C297.662 68.4668 297.27 68.1973 296.695 67.9512C296.133 67.6934 295.318 67.459 294.252 67.248C293.291 67.0371 292.395 66.7734 291.562 66.457C290.742 66.1289 290.027 65.7363 289.418 65.2793C288.82 64.8223 288.352 64.2832 288.012 63.6621C287.672 63.0293 287.502 62.3086 287.502 61.5C287.502 60.7031 287.672 59.9531 288.012 59.25C288.363 58.5469 288.861 57.9258 289.506 57.3867C290.162 56.8359 290.959 56.4082 291.896 56.1035C292.846 55.7871 293.912 55.6289 295.096 55.6289C296.748 55.6289 298.166 55.8926 299.35 56.4199C300.545 56.9473 301.459 57.6738 302.092 58.5996C302.736 59.5137 303.059 60.5566 303.059 61.7285H297.996C297.996 61.2363 297.891 60.7969 297.68 60.4102C297.48 60.0117 297.164 59.7012 296.73 59.4785C296.309 59.2441 295.758 59.127 295.078 59.127C294.516 59.127 294.029 59.2266 293.619 59.4258C293.209 59.6133 292.893 59.8711 292.67 60.1992C292.459 60.5156 292.354 60.8672 292.354 61.2539C292.354 61.5469 292.412 61.8105 292.529 62.0449C292.658 62.2676 292.863 62.4727 293.145 62.6602C293.426 62.8477 293.789 63.0234 294.234 63.1875C294.691 63.3398 295.254 63.4805 295.922 63.6094C297.293 63.8906 298.518 64.2598 299.596 64.7168C300.674 65.1621 301.529 65.7715 302.162 66.5449C302.795 67.3066 303.111 68.3086 303.111 69.5508C303.111 70.3945 302.924 71.168 302.549 71.8711C302.174 72.5742 301.635 73.1895 300.932 73.7168C300.229 74.2324 299.385 74.6367 298.4 74.9297C297.428 75.2109 296.332 75.3516 295.113 75.3516C293.344 75.3516 291.844 75.0352 290.613 74.4023C289.395 73.7695 288.469 72.9668 287.836 71.9941C287.215 71.0098 286.904 70.002 286.904 68.9707H291.703C291.727 69.6621 291.902 70.2188 292.23 70.6406C292.57 71.0625 292.998 71.3672 293.514 71.5547C294.041 71.7422 294.609 71.8359 295.219 71.8359C295.875 71.8359 296.42 71.748 296.854 71.5723C297.287 71.3848 297.615 71.1387 297.838 70.834C298.072 70.5176 298.189 70.1543 298.189 69.7441Z" fill="#888888"/>
<path d="M116.543 129.418C116.543 128.798 116.452 128.242 116.27 127.75C116.087 127.24 115.75 126.766 115.258 126.328C114.766 125.891 114.055 125.453 113.125 125.016C112.214 124.56 111.01 124.086 109.516 123.594C107.766 123.01 106.079 122.354 104.457 121.625C102.835 120.878 101.385 120.012 100.109 119.027C98.8333 118.025 97.8216 116.858 97.0742 115.527C96.3268 114.178 95.9531 112.611 95.9531 110.824C95.9531 109.111 96.3359 107.57 97.1016 106.203C97.8672 104.818 98.9336 103.642 100.301 102.676C101.686 101.691 103.309 100.944 105.168 100.434C107.027 99.9049 109.06 99.6406 111.266 99.6406C114.182 99.6406 116.753 100.151 118.977 101.172C121.219 102.174 122.969 103.605 124.227 105.465C125.503 107.306 126.141 109.484 126.141 112H116.598C116.598 110.997 116.388 110.113 115.969 109.348C115.568 108.582 114.957 107.98 114.137 107.543C113.316 107.105 112.286 106.887 111.047 106.887C109.844 106.887 108.832 107.069 108.012 107.434C107.191 107.798 106.572 108.29 106.152 108.91C105.733 109.512 105.523 110.177 105.523 110.906C105.523 111.508 105.688 112.055 106.016 112.547C106.362 113.021 106.845 113.467 107.465 113.887C108.103 114.306 108.868 114.707 109.762 115.09C110.673 115.473 111.694 115.846 112.824 116.211C114.939 116.885 116.816 117.642 118.457 118.48C120.116 119.301 121.51 120.24 122.641 121.297C123.789 122.336 124.655 123.521 125.238 124.852C125.84 126.182 126.141 127.686 126.141 129.363C126.141 131.15 125.794 132.736 125.102 134.121C124.409 135.507 123.415 136.682 122.121 137.648C120.827 138.596 119.277 139.316 117.473 139.809C115.668 140.301 113.654 140.547 111.43 140.547C109.388 140.547 107.374 140.292 105.387 139.781C103.418 139.253 101.632 138.451 100.027 137.375C98.4232 136.281 97.138 134.887 96.1719 133.191C95.224 131.478 94.75 129.445 94.75 127.094H104.375C104.375 128.26 104.53 129.245 104.84 130.047C105.15 130.849 105.605 131.496 106.207 131.988C106.809 132.462 107.547 132.809 108.422 133.027C109.297 133.228 110.299 133.328 111.43 133.328C112.651 133.328 113.635 133.155 114.383 132.809C115.13 132.444 115.677 131.97 116.023 131.387C116.37 130.785 116.543 130.129 116.543 129.418ZM139.949 116.102V151.375H130.734V110.414H139.32L139.949 116.102ZM158.105 124.852V125.426C158.105 127.577 157.859 129.573 157.367 131.414C156.875 133.255 156.146 134.859 155.18 136.227C154.214 137.594 153.01 138.66 151.57 139.426C150.148 140.173 148.499 140.547 146.621 140.547C144.853 140.547 143.331 140.155 142.055 139.371C140.779 138.587 139.712 137.503 138.855 136.117C137.999 134.732 137.306 133.146 136.777 131.359C136.249 129.573 135.829 127.686 135.52 125.699V124.961C135.829 122.828 136.249 120.85 136.777 119.027C137.306 117.186 137.999 115.582 138.855 114.215C139.712 112.848 140.77 111.781 142.027 111.016C143.303 110.25 144.826 109.867 146.594 109.867C148.471 109.867 150.121 110.223 151.543 110.934C152.983 111.645 154.186 112.665 155.152 113.996C156.137 115.309 156.875 116.885 157.367 118.727C157.859 120.568 158.105 122.609 158.105 124.852ZM148.891 125.426V124.852C148.891 123.703 148.809 122.655 148.645 121.707C148.48 120.741 148.216 119.902 147.852 119.191C147.505 118.48 147.04 117.934 146.457 117.551C145.874 117.168 145.154 116.977 144.297 116.977C143.312 116.977 142.483 117.132 141.809 117.441C141.152 117.733 140.624 118.189 140.223 118.809C139.84 119.41 139.566 120.167 139.402 121.078C139.257 121.971 139.193 123.02 139.211 124.223V126.465C139.174 127.85 139.311 129.072 139.621 130.129C139.931 131.168 140.469 131.979 141.234 132.562C142 133.146 143.039 133.438 144.352 133.438C145.227 133.438 145.956 133.237 146.539 132.836C147.122 132.417 147.587 131.842 147.934 131.113C148.28 130.366 148.526 129.509 148.672 128.543C148.818 127.577 148.891 126.538 148.891 125.426ZM176.535 140.547C174.129 140.547 171.978 140.173 170.082 139.426C168.186 138.66 166.582 137.612 165.27 136.281C163.975 134.951 162.982 133.419 162.289 131.688C161.615 129.956 161.277 128.124 161.277 126.191V125.152C161.277 122.983 161.578 120.978 162.18 119.137C162.781 117.277 163.674 115.655 164.859 114.27C166.044 112.884 167.53 111.809 169.316 111.043C171.103 110.259 173.181 109.867 175.551 109.867C177.647 109.867 179.525 110.204 181.184 110.879C182.842 111.553 184.246 112.52 185.395 113.777C186.561 115.035 187.445 116.557 188.047 118.344C188.667 120.13 188.977 122.135 188.977 124.359V128.105H164.805V122.336H179.98V121.625C179.999 120.641 179.826 119.802 179.461 119.109C179.115 118.417 178.604 117.888 177.93 117.523C177.255 117.159 176.435 116.977 175.469 116.977C174.466 116.977 173.637 117.195 172.98 117.633C172.342 118.07 171.841 118.672 171.477 119.438C171.13 120.185 170.884 121.051 170.738 122.035C170.592 123.02 170.52 124.059 170.52 125.152V126.191C170.52 127.285 170.665 128.279 170.957 129.172C171.267 130.065 171.704 130.831 172.27 131.469C172.853 132.089 173.546 132.572 174.348 132.918C175.168 133.264 176.098 133.438 177.137 133.438C178.395 133.438 179.634 133.201 180.855 132.727C182.077 132.253 183.125 131.469 184 130.375L188.184 135.352C187.582 136.208 186.725 137.038 185.613 137.84C184.52 138.642 183.207 139.298 181.676 139.809C180.145 140.301 178.431 140.547 176.535 140.547ZM207.051 140.547C204.645 140.547 202.493 140.173 200.598 139.426C198.702 138.66 197.098 137.612 195.785 136.281C194.491 134.951 193.497 133.419 192.805 131.688C192.13 129.956 191.793 128.124 191.793 126.191V125.152C191.793 122.983 192.094 120.978 192.695 119.137C193.297 117.277 194.19 115.655 195.375 114.27C196.56 112.884 198.046 111.809 199.832 111.043C201.618 110.259 203.697 109.867 206.066 109.867C208.163 109.867 210.04 110.204 211.699 110.879C213.358 111.553 214.762 112.52 215.91 113.777C217.077 115.035 217.961 116.557 218.562 118.344C219.182 120.13 219.492 122.135 219.492 124.359V128.105H195.32V122.336H210.496V121.625C210.514 120.641 210.341 119.802 209.977 119.109C209.63 118.417 209.12 117.888 208.445 117.523C207.771 117.159 206.951 116.977 205.984 116.977C204.982 116.977 204.152 117.195 203.496 117.633C202.858 118.07 202.357 118.672 201.992 119.438C201.646 120.185 201.4 121.051 201.254 122.035C201.108 123.02 201.035 124.059 201.035 125.152V126.191C201.035 127.285 201.181 128.279 201.473 129.172C201.783 130.065 202.22 130.831 202.785 131.469C203.368 132.089 204.061 132.572 204.863 132.918C205.684 133.264 206.613 133.438 207.652 133.438C208.91 133.438 210.15 133.201 211.371 132.727C212.592 132.253 213.641 131.469 214.516 130.375L218.699 135.352C218.098 136.208 217.241 137.038 216.129 137.84C215.035 138.642 213.723 139.298 212.191 139.809C210.66 140.301 208.947 140.547 207.051 140.547ZM240.246 133.219V98H249.516V140H241.203L240.246 133.219ZM222.09 125.562V124.988C222.09 122.746 222.336 120.704 222.828 118.863C223.32 117.004 224.049 115.409 225.016 114.078C225.982 112.729 227.185 111.69 228.625 110.961C230.065 110.232 231.724 109.867 233.602 109.867C235.279 109.867 236.746 110.259 238.004 111.043C239.262 111.809 240.337 112.884 241.23 114.27C242.124 115.655 242.853 117.277 243.418 119.137C243.983 120.978 244.411 122.965 244.703 125.098V125.781C244.411 127.786 243.983 129.682 243.418 131.469C242.853 133.237 242.124 134.805 241.23 136.172C240.337 137.539 239.253 138.615 237.977 139.398C236.719 140.164 235.242 140.547 233.547 140.547C231.669 140.547 230.01 140.173 228.57 139.426C227.148 138.678 225.954 137.63 224.988 136.281C224.04 134.932 223.32 133.346 222.828 131.523C222.336 129.701 222.09 127.714 222.09 125.562ZM231.305 124.988V125.562C231.305 126.674 231.378 127.704 231.523 128.652C231.669 129.6 231.915 130.439 232.262 131.168C232.626 131.879 233.1 132.435 233.684 132.836C234.285 133.237 235.023 133.438 235.898 133.438C237.083 133.438 238.059 133.155 238.824 132.59C239.608 132.025 240.182 131.223 240.547 130.184C240.93 129.145 241.094 127.923 241.039 126.52V124.359C241.076 123.156 240.993 122.099 240.793 121.188C240.592 120.258 240.273 119.483 239.836 118.863C239.417 118.243 238.879 117.779 238.223 117.469C237.585 117.141 236.828 116.977 235.953 116.977C235.096 116.977 234.367 117.177 233.766 117.578C233.182 117.979 232.708 118.544 232.344 119.273C231.979 119.984 231.715 120.832 231.551 121.816C231.387 122.783 231.305 123.84 231.305 124.988ZM263.816 136.527L271.473 110.414H281.371L269.477 144.402C269.221 145.15 268.884 145.952 268.465 146.809C268.046 147.684 267.471 148.513 266.742 149.297C266.013 150.081 265.074 150.719 263.926 151.211C262.796 151.703 261.392 151.949 259.715 151.949C258.822 151.949 258.165 151.904 257.746 151.812C257.345 151.74 256.725 151.603 255.887 151.402V144.812C256.124 144.812 256.324 144.812 256.488 144.812C256.671 144.812 256.871 144.812 257.09 144.812C258.074 144.812 258.858 144.712 259.441 144.512C260.043 144.311 260.499 144.02 260.809 143.637C261.137 143.254 261.392 142.789 261.574 142.242L263.816 136.527ZM261.875 110.414L267.699 131.113L268.711 140.875H262.531L252.004 110.414H261.875ZM303.492 100.188V140H293.895V100.188H303.492ZM315.469 100.188V107.598H282.191V100.188H315.469ZM326.598 117.742V140H317.383V110.414H325.996L326.598 117.742ZM335.348 110.195L335.184 118.754C334.819 118.717 334.327 118.672 333.707 118.617C333.087 118.562 332.568 118.535 332.148 118.535C331.073 118.535 330.143 118.663 329.359 118.918C328.594 119.155 327.956 119.52 327.445 120.012C326.953 120.486 326.589 121.087 326.352 121.816C326.133 122.546 326.033 123.393 326.051 124.359L324.383 123.266C324.383 121.279 324.574 119.474 324.957 117.852C325.358 116.211 325.923 114.798 326.652 113.613C327.382 112.41 328.266 111.49 329.305 110.852C330.344 110.195 331.51 109.867 332.805 109.867C333.26 109.867 333.707 109.895 334.145 109.949C334.6 110.004 335.001 110.086 335.348 110.195ZM348.254 110.414V140H339.012V110.414H348.254ZM338.465 102.785C338.465 101.473 338.939 100.397 339.887 99.5586C340.835 98.7201 342.065 98.3008 343.578 98.3008C345.091 98.3008 346.322 98.7201 347.27 99.5586C348.217 100.397 348.691 101.473 348.691 102.785C348.691 104.098 348.217 105.173 347.27 106.012C346.322 106.85 345.091 107.27 343.578 107.27C342.065 107.27 340.835 106.85 339.887 106.012C338.939 105.173 338.465 104.098 338.465 102.785ZM363.238 116.102V151.375H354.023V110.414H362.609L363.238 116.102ZM381.395 124.852V125.426C381.395 127.577 381.148 129.573 380.656 131.414C380.164 133.255 379.435 134.859 378.469 136.227C377.503 137.594 376.299 138.66 374.859 139.426C373.438 140.173 371.788 140.547 369.91 140.547C368.142 140.547 366.62 140.155 365.344 139.371C364.068 138.587 363.001 137.503 362.145 136.117C361.288 134.732 360.595 133.146 360.066 131.359C359.538 129.573 359.118 127.686 358.809 125.699V124.961C359.118 122.828 359.538 120.85 360.066 119.027C360.595 117.186 361.288 115.582 362.145 114.215C363.001 112.848 364.059 111.781 365.316 111.016C366.592 110.25 368.115 109.867 369.883 109.867C371.76 109.867 373.41 110.223 374.832 110.934C376.272 111.645 377.475 112.665 378.441 113.996C379.426 115.309 380.164 116.885 380.656 118.727C381.148 120.568 381.395 122.609 381.395 124.852ZM372.18 125.426V124.852C372.18 123.703 372.098 122.655 371.934 121.707C371.77 120.741 371.505 119.902 371.141 119.191C370.794 118.48 370.329 117.934 369.746 117.551C369.163 117.168 368.443 116.977 367.586 116.977C366.602 116.977 365.772 117.132 365.098 117.441C364.441 117.733 363.913 118.189 363.512 118.809C363.129 119.41 362.855 120.167 362.691 121.078C362.546 121.971 362.482 123.02 362.5 124.223V126.465C362.464 127.85 362.6 129.072 362.91 130.129C363.22 131.168 363.758 131.979 364.523 132.562C365.289 133.146 366.328 133.438 367.641 133.438C368.516 133.438 369.245 133.237 369.828 132.836C370.411 132.417 370.876 131.842 371.223 131.113C371.569 130.366 371.815 129.509 371.961 128.543C372.107 127.577 372.18 126.538 372.18 125.426Z" fill="black"/>
<rect x="93" y="178" width="917" height="77" rx="10" fill="#D3D3D3"/>
<rect x="111" y="196" width="91" height="41" rx="3" fill="#424242"/>
<rect x="111" y="196" width="91" height="41" rx="3" stroke="#424242" stroke-width="4"/>
<path d="M134.141 210.203H139.177C140.161 210.203 141.017 210.35 141.743 210.643C142.47 210.936 143.029 211.369 143.422 211.943C143.82 212.518 144.02 213.227 144.02 214.07C144.02 214.803 143.905 215.415 143.677 215.907C143.448 216.399 143.129 216.807 142.719 217.129C142.314 217.445 141.843 217.706 141.304 217.911L140.293 218.482H136.065L136.048 216.101H139.177C139.569 216.101 139.895 216.03 140.152 215.89C140.41 215.749 140.604 215.55 140.732 215.292C140.867 215.028 140.935 214.715 140.935 214.352C140.935 213.982 140.867 213.666 140.732 213.402C140.598 213.139 140.398 212.937 140.135 212.796C139.877 212.655 139.558 212.585 139.177 212.585H137.226V223H134.141V210.203ZM141.146 223L138.315 217.34L141.585 217.322L144.45 222.868V223H141.146ZM150.348 223.176C149.574 223.176 148.883 223.056 148.273 222.815C147.664 222.569 147.148 222.232 146.727 221.805C146.311 221.377 145.991 220.885 145.769 220.328C145.552 219.771 145.443 219.183 145.443 218.562V218.228C145.443 217.53 145.54 216.886 145.733 216.294C145.927 215.696 146.214 215.175 146.595 214.729C146.976 214.284 147.453 213.938 148.027 213.692C148.602 213.44 149.27 213.314 150.031 213.314C150.705 213.314 151.309 213.423 151.842 213.64C152.375 213.856 152.826 214.167 153.195 214.571C153.57 214.976 153.854 215.465 154.048 216.039C154.247 216.613 154.347 217.258 154.347 217.973V219.177H146.577V217.322H151.455V217.094C151.461 216.777 151.405 216.508 151.288 216.285C151.177 216.062 151.013 215.893 150.796 215.775C150.579 215.658 150.315 215.6 150.005 215.6C149.683 215.6 149.416 215.67 149.205 215.811C149 215.951 148.839 216.145 148.722 216.391C148.61 216.631 148.531 216.909 148.484 217.226C148.438 217.542 148.414 217.876 148.414 218.228V218.562C148.414 218.913 148.461 219.232 148.555 219.52C148.654 219.807 148.795 220.053 148.977 220.258C149.164 220.457 149.387 220.612 149.645 220.724C149.908 220.835 150.207 220.891 150.541 220.891C150.945 220.891 151.344 220.814 151.736 220.662C152.129 220.51 152.466 220.258 152.747 219.906L154.092 221.506C153.898 221.781 153.623 222.048 153.266 222.306C152.914 222.563 152.492 222.774 152 222.938C151.508 223.097 150.957 223.176 150.348 223.176ZM160.49 220.609V216.689C160.49 216.42 160.452 216.188 160.376 215.995C160.3 215.802 160.18 215.652 160.016 215.547C159.852 215.436 159.632 215.38 159.356 215.38C159.134 215.38 158.943 215.418 158.785 215.494C158.627 215.57 158.507 215.685 158.425 215.837C158.343 215.989 158.302 216.183 158.302 216.417H155.34C155.34 215.978 155.437 215.57 155.63 215.195C155.829 214.814 156.11 214.483 156.474 214.202C156.843 213.921 157.282 213.704 157.792 213.552C158.308 213.394 158.882 213.314 159.515 213.314C160.271 213.314 160.944 213.44 161.536 213.692C162.134 213.944 162.605 214.322 162.951 214.826C163.297 215.324 163.47 215.951 163.47 216.707V220.601C163.47 221.222 163.505 221.693 163.575 222.016C163.646 222.332 163.745 222.61 163.874 222.851V223H160.903C160.763 222.707 160.657 222.35 160.587 221.928C160.522 221.5 160.49 221.061 160.49 220.609ZM160.851 217.19L160.868 218.772H159.559C159.283 218.772 159.049 218.811 158.855 218.887C158.668 218.963 158.516 219.068 158.398 219.203C158.287 219.332 158.205 219.479 158.152 219.643C158.105 219.807 158.082 219.979 158.082 220.161C158.082 220.337 158.123 220.495 158.205 220.636C158.293 220.771 158.41 220.876 158.557 220.952C158.703 221.028 158.867 221.066 159.049 221.066C159.377 221.066 159.655 221.005 159.884 220.882C160.118 220.753 160.297 220.598 160.42 220.416C160.543 220.234 160.604 220.064 160.604 219.906L161.255 221.119C161.138 221.354 161.003 221.591 160.851 221.831C160.704 222.071 160.52 222.294 160.297 222.499C160.08 222.698 159.813 222.862 159.497 222.991C159.181 223.114 158.797 223.176 158.346 223.176C157.76 223.176 157.221 223.056 156.729 222.815C156.242 222.575 155.853 222.241 155.56 221.813C155.267 221.38 155.12 220.882 155.12 220.319C155.12 219.827 155.208 219.388 155.384 219.001C155.565 218.614 155.838 218.286 156.201 218.017C156.564 217.747 157.027 217.542 157.59 217.401C158.152 217.261 158.814 217.19 159.576 217.19H160.851ZM169.13 220.891C169.405 220.891 169.64 220.841 169.833 220.741C170.032 220.636 170.182 220.489 170.281 220.302C170.387 220.108 170.437 219.877 170.431 219.607H173.217C173.223 220.322 173.047 220.949 172.689 221.488C172.338 222.021 171.857 222.438 171.248 222.736C170.645 223.029 169.962 223.176 169.2 223.176C168.456 223.176 167.806 223.056 167.249 222.815C166.692 222.569 166.227 222.229 165.852 221.796C165.482 221.356 165.204 220.844 165.017 220.258C164.835 219.672 164.744 219.036 164.744 218.351V218.148C164.744 217.463 164.835 216.827 165.017 216.241C165.204 215.649 165.482 215.137 165.852 214.703C166.227 214.264 166.689 213.924 167.24 213.684C167.797 213.438 168.444 213.314 169.183 213.314C169.974 213.314 170.671 213.464 171.274 213.763C171.884 214.062 172.361 214.495 172.707 215.063C173.053 215.632 173.223 216.32 173.217 217.129H170.431C170.437 216.842 170.393 216.584 170.299 216.355C170.205 216.127 170.059 215.945 169.859 215.811C169.666 215.67 169.417 215.6 169.112 215.6C168.808 215.6 168.562 215.667 168.374 215.802C168.187 215.937 168.043 216.124 167.943 216.364C167.85 216.599 167.785 216.868 167.75 217.173C167.721 217.478 167.706 217.803 167.706 218.148V218.351C167.706 218.702 167.721 219.033 167.75 219.344C167.785 219.648 167.853 219.918 167.952 220.152C168.052 220.381 168.195 220.562 168.383 220.697C168.57 220.826 168.819 220.891 169.13 220.891ZM179.492 213.49V215.547H173.762V213.49H179.492ZM174.966 211.126H177.928V219.897C177.928 220.149 177.957 220.346 178.016 220.486C178.074 220.621 178.174 220.718 178.314 220.776C178.461 220.829 178.654 220.855 178.895 220.855C179.064 220.855 179.205 220.853 179.316 220.847C179.428 220.835 179.533 220.82 179.633 220.803V222.921C179.381 223.003 179.117 223.064 178.842 223.105C178.566 223.152 178.273 223.176 177.963 223.176C177.33 223.176 176.788 223.076 176.337 222.877C175.892 222.678 175.552 222.364 175.317 221.937C175.083 221.509 174.966 220.952 174.966 220.267V211.126Z" fill="white"/>
<rect x="222" y="196" width="104" height="41" rx="3" fill="#424242"/>
<rect x="222" y="196" width="104" height="41" rx="3" stroke="#424242" stroke-width="4"/>
<path d="M253.812 220.627V223H247.343V220.627H253.812ZM248.441 210.203V223H245.356V210.203H248.441ZM259.911 220.609V216.689C259.911 216.42 259.873 216.188 259.797 215.995C259.721 215.802 259.601 215.652 259.437 215.547C259.272 215.436 259.053 215.38 258.777 215.38C258.555 215.38 258.364 215.418 258.206 215.494C258.048 215.57 257.928 215.685 257.846 215.837C257.764 215.989 257.723 216.183 257.723 216.417H254.761C254.761 215.978 254.857 215.57 255.051 215.195C255.25 214.814 255.531 214.483 255.895 214.202C256.264 213.921 256.703 213.704 257.213 213.552C257.729 213.394 258.303 213.314 258.936 213.314C259.691 213.314 260.365 213.44 260.957 213.692C261.555 213.944 262.026 214.322 262.372 214.826C262.718 215.324 262.891 215.951 262.891 216.707V220.601C262.891 221.222 262.926 221.693 262.996 222.016C263.066 222.332 263.166 222.61 263.295 222.851V223H260.324C260.184 222.707 260.078 222.35 260.008 221.928C259.943 221.5 259.911 221.061 259.911 220.609ZM260.271 217.19L260.289 218.772H258.979C258.704 218.772 258.47 218.811 258.276 218.887C258.089 218.963 257.937 219.068 257.819 219.203C257.708 219.332 257.626 219.479 257.573 219.643C257.526 219.807 257.503 219.979 257.503 220.161C257.503 220.337 257.544 220.495 257.626 220.636C257.714 220.771 257.831 220.876 257.978 220.952C258.124 221.028 258.288 221.066 258.47 221.066C258.798 221.066 259.076 221.005 259.305 220.882C259.539 220.753 259.718 220.598 259.841 220.416C259.964 220.234 260.025 220.064 260.025 219.906L260.676 221.119C260.559 221.354 260.424 221.591 260.271 221.831C260.125 222.071 259.94 222.294 259.718 222.499C259.501 222.698 259.234 222.862 258.918 222.991C258.602 223.114 258.218 223.176 257.767 223.176C257.181 223.176 256.642 223.056 256.149 222.815C255.663 222.575 255.273 222.241 254.98 221.813C254.688 221.38 254.541 220.882 254.541 220.319C254.541 219.827 254.629 219.388 254.805 219.001C254.986 218.614 255.259 218.286 255.622 218.017C255.985 217.747 256.448 217.542 257.011 217.401C257.573 217.261 258.235 217.19 258.997 217.19H260.271ZM267.522 215.846V223H264.561V213.49H267.329L267.522 215.846ZM270.335 213.42L270.282 216.171C270.165 216.159 270.007 216.145 269.808 216.127C269.608 216.109 269.441 216.101 269.307 216.101C268.961 216.101 268.662 216.142 268.41 216.224C268.164 216.3 267.959 216.417 267.795 216.575C267.637 216.728 267.52 216.921 267.443 217.155C267.373 217.39 267.341 217.662 267.347 217.973L266.811 217.621C266.811 216.982 266.872 216.402 266.995 215.881C267.124 215.354 267.306 214.899 267.54 214.519C267.774 214.132 268.059 213.836 268.393 213.631C268.727 213.42 269.102 213.314 269.518 213.314C269.664 213.314 269.808 213.323 269.948 213.341C270.095 213.358 270.224 213.385 270.335 213.42ZM276.03 220.609V216.689C276.03 216.42 275.992 216.188 275.916 215.995C275.84 215.802 275.72 215.652 275.556 215.547C275.392 215.436 275.172 215.38 274.896 215.38C274.674 215.38 274.483 215.418 274.325 215.494C274.167 215.57 274.047 215.685 273.965 215.837C273.883 215.989 273.842 216.183 273.842 216.417H270.88C270.88 215.978 270.977 215.57 271.17 215.195C271.369 214.814 271.65 214.483 272.014 214.202C272.383 213.921 272.822 213.704 273.332 213.552C273.848 213.394 274.422 213.314 275.055 213.314C275.811 213.314 276.484 213.44 277.076 213.692C277.674 213.944 278.146 214.322 278.491 214.826C278.837 215.324 279.01 215.951 279.01 216.707V220.601C279.01 221.222 279.045 221.693 279.115 222.016C279.186 222.332 279.285 222.61 279.414 222.851V223H276.443C276.303 222.707 276.197 222.35 276.127 221.928C276.062 221.5 276.03 221.061 276.03 220.609ZM276.391 217.19L276.408 218.772H275.099C274.823 218.772 274.589 218.811 274.396 218.887C274.208 218.963 274.056 219.068 273.938 219.203C273.827 219.332 273.745 219.479 273.692 219.643C273.646 219.807 273.622 219.979 273.622 220.161C273.622 220.337 273.663 220.495 273.745 220.636C273.833 220.771 273.95 220.876 274.097 220.952C274.243 221.028 274.407 221.066 274.589 221.066C274.917 221.066 275.195 221.005 275.424 220.882C275.658 220.753 275.837 220.598 275.96 220.416C276.083 220.234 276.145 220.064 276.145 219.906L276.795 221.119C276.678 221.354 276.543 221.591 276.391 221.831C276.244 222.071 276.06 222.294 275.837 222.499C275.62 222.698 275.354 222.862 275.037 222.991C274.721 223.114 274.337 223.176 273.886 223.176C273.3 223.176 272.761 223.056 272.269 222.815C271.782 222.575 271.393 222.241 271.1 221.813C270.807 221.38 270.66 220.882 270.66 220.319C270.66 219.827 270.748 219.388 270.924 219.001C271.105 218.614 271.378 218.286 271.741 218.017C272.104 217.747 272.567 217.542 273.13 217.401C273.692 217.261 274.354 217.19 275.116 217.19H276.391ZM283.94 220.97L285.812 213.49H288.933L285.821 223H283.976L283.94 220.97ZM282.833 213.49L284.679 220.97L284.661 223H282.807L279.704 213.49H282.833ZM294.294 223.176C293.521 223.176 292.829 223.056 292.22 222.815C291.61 222.569 291.095 222.232 290.673 221.805C290.257 221.377 289.938 220.885 289.715 220.328C289.498 219.771 289.39 219.183 289.39 218.562V218.228C289.39 217.53 289.486 216.886 289.68 216.294C289.873 215.696 290.16 215.175 290.541 214.729C290.922 214.284 291.399 213.938 291.974 213.692C292.548 213.44 293.216 213.314 293.978 213.314C294.651 213.314 295.255 213.423 295.788 213.64C296.321 213.856 296.772 214.167 297.142 214.571C297.517 214.976 297.801 215.465 297.994 216.039C298.193 216.613 298.293 217.258 298.293 217.973V219.177H290.523V217.322H295.401V217.094C295.407 216.777 295.352 216.508 295.234 216.285C295.123 216.062 294.959 215.893 294.742 215.775C294.525 215.658 294.262 215.6 293.951 215.6C293.629 215.6 293.362 215.67 293.151 215.811C292.946 215.951 292.785 216.145 292.668 216.391C292.557 216.631 292.478 216.909 292.431 217.226C292.384 217.542 292.36 217.876 292.36 218.228V218.562C292.36 218.913 292.407 219.232 292.501 219.52C292.601 219.807 292.741 220.053 292.923 220.258C293.11 220.457 293.333 220.612 293.591 220.724C293.854 220.835 294.153 220.891 294.487 220.891C294.892 220.891 295.29 220.814 295.683 220.662C296.075 220.51 296.412 220.258 296.693 219.906L298.038 221.506C297.845 221.781 297.569 222.048 297.212 222.306C296.86 222.563 296.438 222.774 295.946 222.938C295.454 223.097 294.903 223.176 294.294 223.176ZM302.626 209.5V223H299.655V209.5H302.626Z" fill="white"/>
<rect x="346" y="196" width="103" height="41" rx="3" fill="#424242"/>
<rect x="346" y="196" width="103" height="41" rx="3" stroke="#424242" stroke-width="4"/>
<path d="M370.72 210.203H373.233L376.09 219.106L378.946 210.203H381.46L377.109 223H375.07L370.72 210.203ZM369.19 210.203H371.792L372.275 220.012V223H369.19V210.203ZM380.388 210.203H382.998V223H379.904V220.012L380.388 210.203ZM387.753 221.884L390.214 213.49H393.396L389.572 224.415C389.49 224.655 389.382 224.913 389.247 225.188C389.112 225.47 388.928 225.736 388.693 225.988C388.459 226.24 388.157 226.445 387.788 226.604C387.425 226.762 386.974 226.841 386.435 226.841C386.147 226.841 385.937 226.826 385.802 226.797C385.673 226.773 385.474 226.729 385.204 226.665V224.547C385.28 224.547 385.345 224.547 385.397 224.547C385.456 224.547 385.521 224.547 385.591 224.547C385.907 224.547 386.159 224.515 386.347 224.45C386.54 224.386 386.687 224.292 386.786 224.169C386.892 224.046 386.974 223.896 387.032 223.721L387.753 221.884ZM387.129 213.49L389.001 220.144L389.326 223.281H387.34L383.956 213.49H387.129ZM400.901 219.599C400.901 219.399 400.872 219.221 400.813 219.062C400.755 218.898 400.646 218.746 400.488 218.605C400.33 218.465 400.102 218.324 399.803 218.184C399.51 218.037 399.123 217.885 398.643 217.727C398.08 217.539 397.538 217.328 397.017 217.094C396.495 216.854 396.029 216.575 395.619 216.259C395.209 215.937 394.884 215.562 394.644 215.134C394.403 214.7 394.283 214.196 394.283 213.622C394.283 213.071 394.406 212.576 394.652 212.137C394.898 211.691 395.241 211.313 395.681 211.003C396.126 210.687 396.647 210.446 397.245 210.282C397.843 210.112 398.496 210.027 399.205 210.027C400.143 210.027 400.969 210.191 401.684 210.52C402.404 210.842 402.967 211.302 403.371 211.899C403.781 212.491 403.986 213.191 403.986 214H400.919C400.919 213.678 400.852 213.394 400.717 213.147C400.588 212.901 400.392 212.708 400.128 212.567C399.864 212.427 399.533 212.356 399.135 212.356C398.748 212.356 398.423 212.415 398.159 212.532C397.896 212.649 397.696 212.808 397.562 213.007C397.427 213.2 397.359 213.414 397.359 213.648C397.359 213.842 397.412 214.018 397.518 214.176C397.629 214.328 397.784 214.472 397.983 214.606C398.188 214.741 398.435 214.87 398.722 214.993C399.015 215.116 399.343 215.236 399.706 215.354C400.386 215.57 400.989 215.813 401.517 216.083C402.05 216.347 402.498 216.648 402.861 216.988C403.23 217.322 403.509 217.703 403.696 218.131C403.89 218.559 403.986 219.042 403.986 219.581C403.986 220.155 403.875 220.665 403.652 221.11C403.43 221.556 403.11 221.934 402.694 222.244C402.278 222.549 401.78 222.78 401.2 222.938C400.62 223.097 399.973 223.176 399.258 223.176C398.602 223.176 397.954 223.094 397.315 222.93C396.683 222.76 396.108 222.502 395.593 222.156C395.077 221.805 394.664 221.356 394.354 220.812C394.049 220.261 393.896 219.607 393.896 218.852H396.99C396.99 219.227 397.04 219.543 397.14 219.801C397.239 220.059 397.386 220.267 397.579 220.425C397.772 220.577 398.01 220.688 398.291 220.759C398.572 220.823 398.895 220.855 399.258 220.855C399.65 220.855 399.967 220.8 400.207 220.688C400.447 220.571 400.623 220.419 400.734 220.231C400.846 220.038 400.901 219.827 400.901 219.599ZM412.714 220.891L416.282 223.721L414.366 225.338L410.859 222.508L412.714 220.891ZM416.432 216.347V216.865C416.432 217.844 416.294 218.723 416.019 219.502C415.749 220.275 415.362 220.938 414.858 221.488C414.36 222.033 413.771 222.452 413.092 222.745C412.412 223.032 411.662 223.176 410.842 223.176C410.016 223.176 409.26 223.032 408.574 222.745C407.895 222.452 407.303 222.033 406.799 221.488C406.301 220.938 405.914 220.275 405.639 219.502C405.369 218.723 405.234 217.844 405.234 216.865V216.347C405.234 215.368 405.369 214.489 405.639 213.71C405.914 212.931 406.298 212.269 406.79 211.724C407.288 211.173 407.877 210.754 408.557 210.467C409.242 210.174 409.998 210.027 410.824 210.027C411.645 210.027 412.395 210.174 413.074 210.467C413.76 210.754 414.352 211.173 414.85 211.724C415.354 212.269 415.743 212.931 416.019 213.71C416.294 214.489 416.432 215.368 416.432 216.347ZM413.294 216.865V216.329C413.294 215.696 413.238 215.14 413.127 214.659C413.021 214.173 412.863 213.766 412.652 213.438C412.441 213.109 412.181 212.863 411.87 212.699C411.565 212.529 411.217 212.444 410.824 212.444C410.414 212.444 410.057 212.529 409.752 212.699C409.447 212.863 409.192 213.109 408.987 213.438C408.782 213.766 408.627 214.173 408.521 214.659C408.422 215.14 408.372 215.696 408.372 216.329V216.865C408.372 217.492 408.422 218.049 408.521 218.535C408.627 219.016 408.782 219.423 408.987 219.757C409.198 220.091 409.456 220.343 409.761 220.513C410.071 220.683 410.432 220.768 410.842 220.768C411.234 220.768 411.583 220.683 411.888 220.513C412.192 220.343 412.447 220.091 412.652 219.757C412.863 219.423 413.021 219.016 413.127 218.535C413.238 218.049 413.294 217.492 413.294 216.865ZM426.46 220.627V223H419.991V220.627H426.46ZM421.09 210.203V223H418.005V210.203H421.09Z" fill="white"/>
<rect x="469" y="196" width="142" height="41" rx="3" fill="#424242"/>
<rect x="469" y="196" width="142" height="41" rx="3" stroke="#424242" stroke-width="4"/>
<path d="M506.417 220.627V223H499.597V220.627H506.417ZM500.695 210.203V223H497.61V210.203H500.695ZM505.538 215.283V217.577H499.597V215.283H505.538ZM506.443 210.203V212.585H499.597V210.203H506.443ZM510.671 209.5V223H507.7V209.5H510.671ZM517.104 223.176C516.331 223.176 515.64 223.056 515.03 222.815C514.421 222.569 513.905 222.232 513.483 221.805C513.067 221.377 512.748 220.885 512.525 220.328C512.309 219.771 512.2 219.183 512.2 218.562V218.228C512.2 217.53 512.297 216.886 512.49 216.294C512.684 215.696 512.971 215.175 513.352 214.729C513.732 214.284 514.21 213.938 514.784 213.692C515.358 213.44 516.026 213.314 516.788 213.314C517.462 213.314 518.065 213.423 518.599 213.64C519.132 213.856 519.583 214.167 519.952 214.571C520.327 214.976 520.611 215.465 520.805 216.039C521.004 216.613 521.104 217.258 521.104 217.973V219.177H513.334V217.322H518.212V217.094C518.218 216.777 518.162 216.508 518.045 216.285C517.934 216.062 517.77 215.893 517.553 215.775C517.336 215.658 517.072 215.6 516.762 215.6C516.439 215.6 516.173 215.67 515.962 215.811C515.757 215.951 515.596 216.145 515.479 216.391C515.367 216.631 515.288 216.909 515.241 217.226C515.194 217.542 515.171 217.876 515.171 218.228V218.562C515.171 218.913 515.218 219.232 515.312 219.52C515.411 219.807 515.552 220.053 515.733 220.258C515.921 220.457 516.144 220.612 516.401 220.724C516.665 220.835 516.964 220.891 517.298 220.891C517.702 220.891 518.101 220.814 518.493 220.662C518.886 220.51 519.223 220.258 519.504 219.906L520.849 221.506C520.655 221.781 520.38 222.048 520.022 222.306C519.671 222.563 519.249 222.774 518.757 222.938C518.265 223.097 517.714 223.176 517.104 223.176ZM526.324 220.891C526.6 220.891 526.834 220.841 527.027 220.741C527.227 220.636 527.376 220.489 527.476 220.302C527.581 220.108 527.631 219.877 527.625 219.607H530.411C530.417 220.322 530.241 220.949 529.884 221.488C529.532 222.021 529.052 222.438 528.442 222.736C527.839 223.029 527.156 223.176 526.395 223.176C525.65 223.176 525 223.056 524.443 222.815C523.887 222.569 523.421 222.229 523.046 221.796C522.677 221.356 522.398 220.844 522.211 220.258C522.029 219.672 521.938 219.036 521.938 218.351V218.148C521.938 217.463 522.029 216.827 522.211 216.241C522.398 215.649 522.677 215.137 523.046 214.703C523.421 214.264 523.884 213.924 524.435 213.684C524.991 213.438 525.639 213.314 526.377 213.314C527.168 213.314 527.865 213.464 528.469 213.763C529.078 214.062 529.556 214.495 529.901 215.063C530.247 215.632 530.417 216.32 530.411 217.129H527.625C527.631 216.842 527.587 216.584 527.493 216.355C527.399 216.127 527.253 215.945 527.054 215.811C526.86 215.67 526.611 215.6 526.307 215.6C526.002 215.6 525.756 215.667 525.568 215.802C525.381 215.937 525.237 216.124 525.138 216.364C525.044 216.599 524.979 216.868 524.944 217.173C524.915 217.478 524.9 217.803 524.9 218.148V218.351C524.9 218.702 524.915 219.033 524.944 219.344C524.979 219.648 525.047 219.918 525.146 220.152C525.246 220.381 525.39 220.562 525.577 220.697C525.765 220.826 526.014 220.891 526.324 220.891ZM536.687 213.49V215.547H530.956V213.49H536.687ZM532.16 211.126H535.122V219.897C535.122 220.149 535.151 220.346 535.21 220.486C535.269 220.621 535.368 220.718 535.509 220.776C535.655 220.829 535.849 220.855 536.089 220.855C536.259 220.855 536.399 220.853 536.511 220.847C536.622 220.835 536.728 220.82 536.827 220.803V222.921C536.575 223.003 536.312 223.064 536.036 223.105C535.761 223.152 535.468 223.176 535.157 223.176C534.524 223.176 533.982 223.076 533.531 222.877C533.086 222.678 532.746 222.364 532.512 221.937C532.277 221.509 532.16 220.952 532.16 220.267V211.126ZM540.853 215.846V223H537.891V213.49H540.659L540.853 215.846ZM543.665 213.42L543.612 216.171C543.495 216.159 543.337 216.145 543.138 216.127C542.938 216.109 542.771 216.101 542.637 216.101C542.291 216.101 541.992 216.142 541.74 216.224C541.494 216.3 541.289 216.417 541.125 216.575C540.967 216.728 540.85 216.921 540.773 217.155C540.703 217.39 540.671 217.662 540.677 217.973L540.141 217.621C540.141 216.982 540.202 216.402 540.325 215.881C540.454 215.354 540.636 214.899 540.87 214.519C541.104 214.132 541.389 213.836 541.723 213.631C542.057 213.42 542.432 213.314 542.848 213.314C542.994 213.314 543.138 213.323 543.278 213.341C543.425 213.358 543.554 213.385 543.665 213.42ZM543.999 218.342V218.157C543.999 217.46 544.099 216.818 544.298 216.232C544.497 215.641 544.79 215.128 545.177 214.694C545.563 214.261 546.041 213.924 546.609 213.684C547.178 213.438 547.834 213.314 548.578 213.314C549.328 213.314 549.987 213.438 550.556 213.684C551.13 213.924 551.61 214.261 551.997 214.694C552.384 215.128 552.677 215.641 552.876 216.232C553.075 216.818 553.175 217.46 553.175 218.157V218.342C553.175 219.033 553.075 219.675 552.876 220.267C552.677 220.853 552.384 221.365 551.997 221.805C551.61 222.238 551.133 222.575 550.564 222.815C549.996 223.056 549.34 223.176 548.596 223.176C547.852 223.176 547.192 223.056 546.618 222.815C546.044 222.575 545.563 222.238 545.177 221.805C544.79 221.365 544.497 220.853 544.298 220.267C544.099 219.675 543.999 219.033 543.999 218.342ZM546.961 218.157V218.342C546.961 218.699 546.987 219.033 547.04 219.344C547.093 219.654 547.181 219.927 547.304 220.161C547.427 220.39 547.594 220.568 547.805 220.697C548.016 220.826 548.279 220.891 548.596 220.891C548.906 220.891 549.164 220.826 549.369 220.697C549.58 220.568 549.747 220.39 549.87 220.161C549.993 219.927 550.081 219.654 550.134 219.344C550.187 219.033 550.213 218.699 550.213 218.342V218.157C550.213 217.812 550.187 217.486 550.134 217.182C550.081 216.871 549.993 216.599 549.87 216.364C549.747 216.124 549.58 215.937 549.369 215.802C549.158 215.667 548.895 215.6 548.578 215.6C548.268 215.6 548.007 215.667 547.796 215.802C547.591 215.937 547.427 216.124 547.304 216.364C547.181 216.599 547.093 216.871 547.04 217.182C546.987 217.486 546.961 217.812 546.961 218.157ZM557.402 215.521V223H554.44V213.49H557.218L557.402 215.521ZM557.051 217.92L556.356 217.938C556.356 217.211 556.444 216.563 556.62 215.995C556.796 215.421 557.045 214.935 557.367 214.536C557.689 214.138 558.073 213.836 558.519 213.631C558.97 213.42 559.471 213.314 560.021 213.314C560.461 213.314 560.862 213.379 561.226 213.508C561.595 213.637 561.911 213.845 562.175 214.132C562.444 214.419 562.649 214.8 562.79 215.274C562.937 215.743 563.01 216.323 563.01 217.015V223H560.03V217.006C560.03 216.625 559.978 216.335 559.872 216.136C559.767 215.931 559.614 215.79 559.415 215.714C559.216 215.638 558.973 215.6 558.686 215.6C558.381 215.6 558.123 215.658 557.912 215.775C557.701 215.893 557.531 216.057 557.402 216.268C557.279 216.473 557.188 216.716 557.13 216.997C557.077 217.278 557.051 217.586 557.051 217.92ZM564.847 221.611C564.847 221.189 564.999 220.838 565.304 220.557C565.608 220.27 566.001 220.126 566.481 220.126C566.968 220.126 567.36 220.27 567.659 220.557C567.964 220.838 568.116 221.189 568.116 221.611C568.116 222.033 567.964 222.388 567.659 222.675C567.36 222.956 566.968 223.097 566.481 223.097C566.001 223.097 565.608 222.956 565.304 222.675C564.999 222.388 564.847 222.033 564.847 221.611ZM570.322 213.49H573.293V223.308C573.293 224.069 573.146 224.711 572.854 225.232C572.561 225.76 572.142 226.158 571.597 226.428C571.052 226.703 570.401 226.841 569.646 226.841C569.394 226.841 569.162 226.829 568.951 226.806C568.734 226.788 568.497 226.75 568.239 226.691V224.45C568.392 224.474 568.532 224.491 568.661 224.503C568.79 224.521 568.931 224.529 569.083 224.529C569.353 224.529 569.578 224.485 569.76 224.397C569.941 224.31 570.079 224.175 570.173 223.993C570.272 223.812 570.322 223.583 570.322 223.308V213.49ZM570.103 211.038C570.103 210.616 570.255 210.271 570.56 210.001C570.864 209.731 571.26 209.597 571.746 209.597C572.232 209.597 572.628 209.731 572.933 210.001C573.237 210.271 573.39 210.616 573.39 211.038C573.39 211.46 573.237 211.806 572.933 212.075C572.628 212.345 572.232 212.479 571.746 212.479C571.26 212.479 570.864 212.345 570.56 212.075C570.255 211.806 570.103 211.46 570.103 211.038ZM579.955 220.328C579.955 220.164 579.899 220.023 579.788 219.906C579.683 219.783 579.495 219.672 579.226 219.572C578.956 219.467 578.578 219.361 578.092 219.256C577.629 219.156 577.192 219.024 576.782 218.86C576.378 218.696 576.023 218.497 575.719 218.263C575.414 218.028 575.174 217.75 574.998 217.428C574.828 217.105 574.743 216.736 574.743 216.32C574.743 215.916 574.828 215.535 574.998 215.178C575.174 214.814 575.429 214.495 575.763 214.22C576.103 213.938 576.516 213.719 577.002 213.561C577.488 213.396 578.042 213.314 578.663 213.314C579.519 213.314 580.257 213.446 580.878 213.71C581.499 213.968 581.977 214.331 582.311 214.8C582.65 215.263 582.82 215.799 582.82 216.408H579.858C579.858 216.168 579.817 215.963 579.735 215.793C579.659 215.623 579.533 215.494 579.357 215.406C579.182 215.312 578.947 215.266 578.654 215.266C578.449 215.266 578.262 215.304 578.092 215.38C577.928 215.456 577.796 215.562 577.696 215.696C577.597 215.831 577.547 215.989 577.547 216.171C577.547 216.3 577.576 216.417 577.635 216.522C577.699 216.622 577.796 216.716 577.925 216.804C578.054 216.886 578.218 216.962 578.417 217.032C578.616 217.097 578.856 217.155 579.138 217.208C579.776 217.325 580.374 217.492 580.931 217.709C581.487 217.926 581.938 218.233 582.284 218.632C582.636 219.03 582.812 219.566 582.812 220.24C582.812 220.662 582.715 221.052 582.521 221.409C582.328 221.761 582.05 222.071 581.687 222.341C581.323 222.604 580.887 222.81 580.377 222.956C579.867 223.103 579.293 223.176 578.654 223.176C577.746 223.176 576.979 223.015 576.352 222.692C575.725 222.364 575.25 221.954 574.928 221.462C574.611 220.964 574.453 220.46 574.453 219.95H577.213C577.225 220.243 577.295 220.483 577.424 220.671C577.559 220.858 577.737 220.996 577.96 221.084C578.183 221.172 578.44 221.216 578.733 221.216C579.003 221.216 579.226 221.178 579.401 221.102C579.583 221.025 579.721 220.923 579.814 220.794C579.908 220.659 579.955 220.504 579.955 220.328Z" fill="white"/>
<path d="M1066 0H1348C1356.28 0 1363 6.71573 1363 15V282C1363 290.284 1356.28 297 1348 297H1066V0Z" fill="white"/>
<path d="M1194.98 100.747V109.781L1193.49 110.055C1192.66 110.22 1190.2 110.493 1188.03 110.658C1182 111.15 1172.73 113.012 1165.65 115.093C1151.51 119.254 1142.11 124.073 1127.1 134.75C1122.79 137.816 1118.62 140.718 1117.83 141.157C1116.07 142.252 1111.11 143.073 1103.93 143.511C1095.54 144.004 1088.87 146.085 1085.91 149.151C1083.17 151.998 1079.46 161.526 1077.52 170.725C1076.18 176.912 1076.13 177.186 1077.06 177.186C1077.43 177.186 1077.75 176.967 1077.75 176.638C1077.75 174.777 1084.24 160.869 1086.88 157.036C1089.98 152.546 1091.09 152.272 1104.07 152.436C1119.54 152.6 1117.69 153.203 1136.13 142.033C1148.32 134.695 1156.89 130.698 1168.89 126.811C1191.5 119.473 1213.37 117.885 1230.74 122.211C1245.48 125.88 1254.93 130.589 1271.1 142.361C1280.14 148.932 1282.04 150.027 1286.25 151.122C1295.01 153.312 1315.4 155.284 1329.99 155.284C1339.35 155.284 1340.32 155.393 1342.18 156.433C1344.22 157.583 1346.21 160.157 1347.65 163.442C1348.57 165.687 1350.66 175.05 1350.66 177.241V178.829H1346.49H1342.32V174.174V169.52H1338.15H1333.98V174.174V178.829H1330.27H1326.56V174.174V169.52H1322.39H1318.22V174.174V178.829H1314.28H1310.35V174.174V169.52H1306.18H1302.01V174.174V178.883L1298.21 178.719L1294.36 178.555L1294.22 174.01L1294.08 169.52H1290.19H1286.25V174.174V178.829H1282.31H1278.42L1278.28 174.12L1278.14 169.411H1274.21H1270.27L1270.13 174.12L1269.99 178.829H1266.1H1262.16V174.174V169.52H1257.99H1253.82V174.174V178.829H1250.11H1246.41V174.174V169.52H1242.24H1238.07V174.174V178.829H1234.13H1230.19V174.174V169.52H1226.02H1221.85V174.174V178.883L1218.05 178.719L1214.2 178.555L1214.06 174.01L1213.93 169.52H1210.03H1206.14L1206 174.01L1205.86 178.555H1202.39H1198.91L1198.77 174.01L1198.64 169.52H1194.74H1190.85L1190.71 174.01L1190.57 178.555L1186.77 178.719L1182.93 178.883V174.174V169.52H1178.76H1174.59V174.174V178.829H1170.65H1166.71V174.174V169.52H1162.68H1158.6L1158.74 172.805C1158.83 174.612 1158.74 176.091 1158.51 176.091C1158.33 176.036 1157.31 175.05 1156.29 173.846C1154.06 171.272 1148.22 167.713 1144.01 166.399C1139.88 165.14 1133.12 165.194 1128.72 166.454C1120.66 168.753 1112.73 174.941 1109.26 181.621C1108.52 183.099 1107.96 184.304 1108.05 184.304C1108.15 184.304 1109.81 183.154 1111.76 181.785C1121.68 174.722 1136.97 171.656 1145.86 174.941C1152.07 177.186 1157.35 180.909 1161.94 186.111C1163.05 187.316 1164.02 188.192 1164.16 188.027C1164.3 187.863 1163.61 185.782 1162.54 183.483C1161.52 181.128 1160.69 179.102 1160.69 178.993C1160.69 178.883 1162.03 178.829 1163.7 178.829H1166.71V183.428C1166.71 186.604 1166.9 188.082 1167.31 188.247C1167.59 188.356 1169.45 188.466 1171.34 188.411H1174.82L1174.96 183.592L1175.1 178.829H1178.76H1182.42L1182.56 183.592L1182.7 188.411H1186.64H1190.57L1190.71 183.592L1190.85 178.829H1194.74H1198.64L1198.77 183.538L1198.91 188.247L1202.48 188.356L1206.05 188.52L1206.19 183.811L1206.33 179.102L1210.17 178.938L1213.97 178.774V183.428V188.082L1215.96 188.411C1217.03 188.63 1218.84 188.685 1220 188.575L1222.08 188.411L1222.22 183.592L1222.36 178.774L1226.16 178.938L1229.96 179.102L1230.1 183.921L1230.24 188.739L1232.88 188.466C1234.31 188.356 1236.07 188.192 1236.77 188.192C1238.02 188.137 1238.02 188.137 1238.16 183.592L1238.3 179.102L1242.1 178.938L1245.9 178.774L1246.04 183.592L1246.17 188.356L1250.11 188.411H1254.05L1254.19 183.592L1254.33 178.829H1258.22H1262.16V183.811V188.794L1265.77 188.466C1267.72 188.356 1269.57 188.192 1269.8 188.192C1270.08 188.137 1270.27 186.221 1270.27 183.647V179.102L1274.11 178.938L1277.91 178.774V183.483V188.137L1279.67 188.192C1280.6 188.247 1282.45 188.301 1283.7 188.356L1286.02 188.411L1286.16 183.592L1286.3 178.829H1290.19H1294.08L1294.22 183.592C1294.36 189.177 1294.32 189.068 1299.55 188.411L1302.47 188.027V183.428V178.774L1306.32 178.938L1310.11 179.102L1310.16 183.702V188.301L1314.19 188.466L1318.22 188.575V183.702V178.829H1322.16H1326.05L1326.19 183.592L1326.33 188.411H1330.27H1334.21L1334.35 183.592L1334.49 178.774L1338.29 178.938L1342.09 179.102L1342.32 183.702L1342.55 188.301L1347.37 188.411L1352.19 188.466L1351.91 179.978C1351.68 170.834 1350.8 165.961 1348.57 160.814C1345.65 153.915 1343.48 152.655 1333.56 151.943C1314.28 150.629 1295.2 147.782 1287.18 145.044C1283.61 143.84 1282.08 142.854 1274.81 136.995C1253.45 119.911 1236.91 112.41 1215.41 110.22L1208.78 109.562L1206.1 100.802L1203.45 92.0406L1199.24 91.8763L1194.98 91.7121V100.747Z" fill="#2D9596"/>
<path d="M1202.3 132.122L1199.61 132.341V141.321V150.356L1231.25 150.465C1248.63 150.575 1262.99 150.52 1263.18 150.356C1263.6 149.972 1252.71 144.223 1246.87 141.704C1239.78 138.693 1230.88 135.681 1224.63 134.203C1218.98 132.943 1209.15 131.629 1206.33 131.848C1205.59 131.903 1203.73 132.012 1202.3 132.122Z" fill="#2D9596"/>
<path d="M1187.75 133.107C1177.23 134.969 1167.59 138.254 1161.01 142.251C1157.4 144.496 1152.81 148.822 1152.81 149.972C1152.81 150.465 1158.23 150.574 1174.12 150.465L1195.44 150.355V141.321V132.286L1193.72 132.341C1192.75 132.395 1190.06 132.724 1187.75 133.107Z" fill="#2D9596"/>
<path d="M1194.98 100.747V109.781L1193.49 110.055C1192.66 110.22 1190.2 110.493 1188.03 110.658C1182 111.15 1172.73 113.012 1165.65 115.093C1151.51 119.254 1142.11 124.073 1127.1 134.75C1122.79 137.816 1118.62 140.718 1117.83 141.157C1116.07 142.252 1111.11 143.073 1103.93 143.511C1095.54 144.004 1088.87 146.085 1085.91 149.151C1083.17 151.998 1079.46 161.526 1077.52 170.725C1076.18 176.912 1076.13 177.186 1077.06 177.186C1077.43 177.186 1077.75 176.967 1077.75 176.638C1077.75 174.777 1084.24 160.869 1086.88 157.036C1089.98 152.546 1091.09 152.272 1104.07 152.436C1119.54 152.6 1117.69 153.203 1136.13 142.033C1148.32 134.695 1156.89 130.698 1168.89 126.811C1191.5 119.473 1213.37 117.885 1230.74 122.211C1245.48 125.88 1254.93 130.589 1271.1 142.361C1280.14 148.932 1282.04 150.027 1286.25 151.122C1295.01 153.312 1315.4 155.284 1329.99 155.284C1339.35 155.284 1340.32 155.393 1342.18 156.433C1344.22 157.583 1346.21 160.157 1347.65 163.442C1348.57 165.687 1350.66 175.05 1350.66 177.241V178.829H1346.49H1342.32V174.174V169.52H1338.15H1333.98V174.174V178.829H1330.27H1326.56V174.174V169.52H1322.39H1318.22V174.174V178.829H1314.28H1310.35V174.174V169.52H1306.18H1302.01V174.174V178.883L1298.21 178.719L1294.36 178.555L1294.22 174.01L1294.08 169.52H1290.19H1286.25V174.174V178.829H1282.31H1278.42L1278.28 174.12L1278.14 169.411H1274.21H1270.27L1270.13 174.12L1269.99 178.829H1266.1H1262.16V174.174V169.52H1257.99H1253.82V174.174V178.829H1250.11H1246.41V174.174V169.52H1242.24H1238.07V174.174V178.829H1234.13H1230.19V174.174V169.52H1226.02H1221.85V174.174V178.883L1218.05 178.719L1214.2 178.555L1214.06 174.01L1213.93 169.52H1210.03H1206.14L1206 174.01L1205.86 178.555H1202.39H1198.91L1198.77 174.01L1198.64 169.52H1194.74H1190.85L1190.71 174.01L1190.57 178.555L1186.77 178.719L1182.93 178.883V174.174V169.52H1178.76H1174.59V174.174V178.829H1170.65H1166.71V174.174V169.52H1162.68H1158.6L1158.74 172.805C1158.83 174.612 1158.74 176.091 1158.51 176.091C1158.33 176.036 1157.31 175.05 1156.29 173.846C1154.06 171.272 1148.22 167.713 1144.01 166.399C1139.88 165.14 1133.12 165.194 1128.72 166.454C1120.66 168.753 1112.73 174.941 1109.26 181.621C1108.52 183.099 1107.96 184.304 1108.05 184.304C1108.15 184.304 1109.81 183.154 1111.76 181.785C1121.68 174.722 1136.97 171.656 1145.86 174.941C1152.07 177.186 1157.35 180.909 1161.94 186.111C1163.05 187.316 1164.02 188.192 1164.16 188.027C1164.3 187.863 1163.61 185.782 1162.54 183.483C1161.52 181.128 1160.69 179.102 1160.69 178.993C1160.69 178.883 1162.03 178.829 1163.7 178.829H1166.71V183.428C1166.71 186.604 1166.9 188.082 1167.31 188.247C1167.59 188.356 1169.45 188.466 1171.34 188.411H1174.82L1174.96 183.592L1175.1 178.829H1178.76H1182.42L1182.56 183.592L1182.7 188.411H1186.64H1190.57L1190.71 183.592L1190.85 178.829H1194.74H1198.64L1198.77 183.538L1198.91 188.247L1202.48 188.356L1206.05 188.52L1206.19 183.811L1206.33 179.102L1210.17 178.938L1213.97 178.774V183.428V188.082L1215.96 188.411C1217.03 188.63 1218.84 188.685 1220 188.575L1222.08 188.411L1222.22 183.592L1222.36 178.774L1226.16 178.938L1229.96 179.102L1230.1 183.921L1230.24 188.739L1232.88 188.466C1234.31 188.356 1236.07 188.192 1236.77 188.192C1238.02 188.137 1238.02 188.137 1238.16 183.592L1238.3 179.102L1242.1 178.938L1245.9 178.774L1246.04 183.592L1246.17 188.356L1250.11 188.411H1254.05L1254.19 183.592L1254.33 178.829H1258.22H1262.16V183.811V188.794L1265.77 188.466C1267.72 188.356 1269.57 188.192 1269.8 188.192C1270.08 188.137 1270.27 186.221 1270.27 183.647V179.102L1274.11 178.938L1277.91 178.774V183.483V188.137L1279.67 188.192C1280.6 188.247 1282.45 188.301 1283.7 188.356L1286.02 188.411L1286.16 183.592L1286.3 178.829H1290.19H1294.08L1294.22 183.592C1294.36 189.177 1294.32 189.068 1299.55 188.411L1302.47 188.027V183.428V178.774L1306.32 178.938L1310.11 179.102L1310.16 183.702V188.301L1314.19 188.466L1318.22 188.575V183.702V178.829H1322.16H1326.05L1326.19 183.592L1326.33 188.411H1330.27H1334.21L1334.35 183.592L1334.49 178.774L1338.29 178.938L1342.09 179.102L1342.32 183.702L1342.55 188.301L1347.37 188.411L1352.19 188.466L1351.91 179.978C1351.68 170.834 1350.8 165.961 1348.57 160.814C1345.65 153.915 1343.48 152.655 1333.56 151.943C1314.28 150.629 1295.2 147.782 1287.18 145.044C1283.61 143.84 1282.08 142.854 1274.81 136.995C1253.45 119.911 1236.91 112.41 1215.41 110.22L1208.78 109.562L1206.1 100.802L1203.45 92.0406L1199.24 91.8763L1194.98 91.7121V100.747Z" fill="#2D9596"/>
<path d="M1202.3 132.122L1199.61 132.341V141.321V150.356L1231.25 150.465C1248.63 150.575 1262.99 150.52 1263.18 150.356C1263.6 149.972 1252.71 144.223 1246.87 141.704C1239.78 138.693 1230.88 135.681 1224.63 134.203C1218.98 132.943 1209.15 131.629 1206.33 131.848C1205.59 131.903 1203.73 132.012 1202.3 132.122Z" fill="#2D9596"/>
<path d="M1187.75 133.107C1177.23 134.969 1167.59 138.254 1161.01 142.251C1157.4 144.496 1152.81 148.822 1152.81 149.972C1152.81 150.465 1158.23 150.574 1174.12 150.465L1195.44 150.355V141.321V132.286L1193.72 132.341C1192.75 132.395 1190.06 132.724 1187.75 133.107Z" fill="#2D9596"/>
</svg>
