<svg width="1363" height="163" viewBox="0 0 1363 163" fill="none" xmlns="http://www.w3.org/2000/svg">
<path d="M0 15C0 6.71573 6.71573 0 15 0H37V163H15C6.71573 163 0 156.284 0 148V15Z" fill="#424242"/>
<rect width="1097" height="163" transform="translate(37)" fill="#F0F0F0"/>
<path d="M101.906 53.9219L94.3945 51.2383V48.0859L104.602 52.375V54.6367L101.906 53.9219ZM94.3945 56.1719L101.918 53.4297L104.602 52.7852V55.0352L94.3945 59.3242V56.1719ZM121.781 56.5352C121.781 56.2305 121.734 55.957 121.641 55.7148C121.555 55.4648 121.391 55.2383 121.148 55.0352C120.906 54.8242 120.566 54.6172 120.129 54.4141C119.691 54.2109 119.125 54 118.43 53.7812C117.656 53.5312 116.922 53.25 116.227 52.9375C115.539 52.625 114.93 52.2617 114.398 51.8477C113.875 51.4258 113.461 50.9375 113.156 50.3828C112.859 49.8281 112.711 49.1836 112.711 48.4492C112.711 47.7383 112.867 47.0938 113.18 46.5156C113.492 45.9297 113.93 45.4297 114.492 45.0156C115.055 44.5938 115.719 44.2695 116.484 44.043C117.258 43.8164 118.105 43.7031 119.027 43.7031C120.285 43.7031 121.383 43.9297 122.32 44.3828C123.258 44.8359 123.984 45.457 124.5 46.2461C125.023 47.0352 125.285 47.9375 125.285 48.9531H121.793C121.793 48.4531 121.688 48.0156 121.477 47.6406C121.273 47.2578 120.961 46.957 120.539 46.7383C120.125 46.5195 119.602 46.4102 118.969 46.4102C118.359 46.4102 117.852 46.5039 117.445 46.6914C117.039 46.8711 116.734 47.1172 116.531 47.4297C116.328 47.7344 116.227 48.0781 116.227 48.4609C116.227 48.75 116.297 49.0117 116.438 49.2461C116.586 49.4805 116.805 49.6992 117.094 49.9023C117.383 50.1055 117.738 50.2969 118.16 50.4766C118.582 50.6562 119.07 50.832 119.625 51.0039C120.555 51.2852 121.371 51.6016 122.074 51.9531C122.785 52.3047 123.379 52.6992 123.855 53.1367C124.332 53.5742 124.691 54.0703 124.934 54.625C125.176 55.1797 125.297 55.8086 125.297 56.5117C125.297 57.2539 125.152 57.918 124.863 58.5039C124.574 59.0898 124.156 59.5859 123.609 59.9922C123.062 60.3984 122.41 60.707 121.652 60.918C120.895 61.1289 120.047 61.2344 119.109 61.2344C118.266 61.2344 117.434 61.125 116.613 60.9062C115.793 60.6797 115.047 60.3398 114.375 59.8867C113.711 59.4336 113.18 58.8555 112.781 58.1523C112.383 57.4492 112.184 56.6172 112.184 55.6562H115.711C115.711 56.1875 115.793 56.6367 115.957 57.0039C116.121 57.3711 116.352 57.668 116.648 57.8945C116.953 58.1211 117.312 58.2852 117.727 58.3867C118.148 58.4883 118.609 58.5391 119.109 58.5391C119.719 58.5391 120.219 58.4531 120.609 58.2812C121.008 58.1094 121.301 57.8711 121.488 57.5664C121.684 57.2617 121.781 56.918 121.781 56.5352ZM130.852 50.7578V65.875H127.477V48.3203H130.605L130.852 50.7578ZM138.879 54.5195V54.7656C138.879 55.6875 138.77 56.543 138.551 57.332C138.34 58.1211 138.027 58.8086 137.613 59.3945C137.199 59.9727 136.684 60.4258 136.066 60.7539C135.457 61.0742 134.754 61.2344 133.957 61.2344C133.184 61.2344 132.512 61.0781 131.941 60.7656C131.371 60.4531 130.891 60.0156 130.5 59.4531C130.117 58.8828 129.809 58.2227 129.574 57.4727C129.34 56.7227 129.16 55.918 129.035 55.0586V54.4141C129.16 53.4922 129.34 52.6484 129.574 51.8828C129.809 51.1094 130.117 50.4414 130.5 49.8789C130.891 49.3086 131.367 48.8672 131.93 48.5547C132.5 48.2422 133.168 48.0859 133.934 48.0859C134.738 48.0859 135.445 48.2383 136.055 48.543C136.672 48.8477 137.188 49.2852 137.602 49.8555C138.023 50.4258 138.34 51.1055 138.551 51.8945C138.77 52.6836 138.879 53.5586 138.879 54.5195ZM135.492 54.7656V54.5195C135.492 53.9805 135.445 53.4844 135.352 53.0312C135.266 52.5703 135.125 52.168 134.93 51.8242C134.742 51.4805 134.492 51.2148 134.18 51.0273C133.875 50.832 133.504 50.7344 133.066 50.7344C132.605 50.7344 132.211 50.8086 131.883 50.957C131.562 51.1055 131.301 51.3203 131.098 51.6016C130.895 51.8828 130.742 52.2188 130.641 52.6094C130.539 53 130.477 53.4414 130.453 53.9336V55.5625C130.492 56.1406 130.602 56.6602 130.781 57.1211C130.961 57.5742 131.238 57.9336 131.613 58.1992C131.988 58.4648 132.48 58.5977 133.09 58.5977C133.535 58.5977 133.91 58.5 134.215 58.3047C134.52 58.1016 134.766 57.8242 134.953 57.4727C135.148 57.1211 135.285 56.7148 135.363 56.2539C135.449 55.793 135.492 55.2969 135.492 54.7656ZM146.812 61.2344C145.828 61.2344 144.945 61.0781 144.164 60.7656C143.383 60.4453 142.719 60.0039 142.172 59.4414C141.633 58.8789 141.219 58.2266 140.93 57.4844C140.641 56.7344 140.496 55.9375 140.496 55.0938V54.625C140.496 53.6641 140.633 52.7852 140.906 51.9883C141.18 51.1914 141.57 50.5 142.078 49.9141C142.594 49.3281 143.219 48.8789 143.953 48.5664C144.688 48.2461 145.516 48.0859 146.438 48.0859C147.336 48.0859 148.133 48.2344 148.828 48.5312C149.523 48.8281 150.105 49.25 150.574 49.7969C151.051 50.3438 151.41 51 151.652 51.7656C151.895 52.5234 152.016 53.3672 152.016 54.2969V55.7031H141.938V53.4531H148.699V53.1953C148.699 52.7266 148.613 52.3086 148.441 51.9414C148.277 51.5664 148.027 51.2695 147.691 51.0508C147.355 50.832 146.926 50.7227 146.402 50.7227C145.957 50.7227 145.574 50.8203 145.254 51.0156C144.934 51.2109 144.672 51.4844 144.469 51.8359C144.273 52.1875 144.125 52.6016 144.023 53.0781C143.93 53.5469 143.883 54.0625 143.883 54.625V55.0938C143.883 55.6016 143.953 56.0703 144.094 56.5C144.242 56.9297 144.449 57.3008 144.715 57.6133C144.988 57.9258 145.316 58.168 145.699 58.3398C146.09 58.5117 146.531 58.5977 147.023 58.5977C147.633 58.5977 148.199 58.4805 148.723 58.2461C149.254 58.0039 149.711 57.6406 150.094 57.1562L151.734 58.9375C151.469 59.3203 151.105 59.6875 150.645 60.0391C150.191 60.3906 149.645 60.6797 149.004 60.9062C148.363 61.125 147.633 61.2344 146.812 61.2344ZM159.773 61.2344C158.789 61.2344 157.906 61.0781 157.125 60.7656C156.344 60.4453 155.68 60.0039 155.133 59.4414C154.594 58.8789 154.18 58.2266 153.891 57.4844C153.602 56.7344 153.457 55.9375 153.457 55.0938V54.625C153.457 53.6641 153.594 52.7852 153.867 51.9883C154.141 51.1914 154.531 50.5 155.039 49.9141C155.555 49.3281 156.18 48.8789 156.914 48.5664C157.648 48.2461 158.477 48.0859 159.398 48.0859C160.297 48.0859 161.094 48.2344 161.789 48.5312C162.484 48.8281 163.066 49.25 163.535 49.7969C164.012 50.3438 164.371 51 164.613 51.7656C164.855 52.5234 164.977 53.3672 164.977 54.2969V55.7031H154.898V53.4531H161.66V53.1953C161.66 52.7266 161.574 52.3086 161.402 51.9414C161.238 51.5664 160.988 51.2695 160.652 51.0508C160.316 50.832 159.887 50.7227 159.363 50.7227C158.918 50.7227 158.535 50.8203 158.215 51.0156C157.895 51.2109 157.633 51.4844 157.43 51.8359C157.234 52.1875 157.086 52.6016 156.984 53.0781C156.891 53.5469 156.844 54.0625 156.844 54.625V55.0938C156.844 55.6016 156.914 56.0703 157.055 56.5C157.203 56.9297 157.41 57.3008 157.676 57.6133C157.949 57.9258 158.277 58.168 158.66 58.3398C159.051 58.5117 159.492 58.5977 159.984 58.5977C160.594 58.5977 161.16 58.4805 161.684 58.2461C162.215 58.0039 162.672 57.6406 163.055 57.1562L164.695 58.9375C164.43 59.3203 164.066 59.6875 163.605 60.0391C163.152 60.3906 162.605 60.6797 161.965 60.9062C161.324 61.125 160.594 61.2344 159.773 61.2344ZM174.387 58.2344V43H177.785V61H174.727L174.387 58.2344ZM166.371 54.8125V54.5664C166.371 53.5977 166.48 52.7188 166.699 51.9297C166.918 51.1328 167.238 50.4492 167.66 49.8789C168.082 49.3086 168.602 48.8672 169.219 48.5547C169.836 48.2422 170.539 48.0859 171.328 48.0859C172.07 48.0859 172.719 48.2422 173.273 48.5547C173.836 48.8672 174.312 49.3125 174.703 49.8906C175.102 50.4609 175.422 51.1367 175.664 51.918C175.906 52.6914 176.082 53.5391 176.191 54.4609V55C176.082 55.8828 175.906 56.7031 175.664 57.4609C175.422 58.2188 175.102 58.8828 174.703 59.4531C174.312 60.0156 173.836 60.4531 173.273 60.7656C172.711 61.0781 172.055 61.2344 171.305 61.2344C170.516 61.2344 169.812 61.0742 169.195 60.7539C168.586 60.4336 168.07 59.9844 167.648 59.4062C167.234 58.8281 166.918 58.1484 166.699 57.3672C166.48 56.5859 166.371 55.7344 166.371 54.8125ZM169.746 54.5664V54.8125C169.746 55.3359 169.785 55.8242 169.863 56.2773C169.949 56.7305 170.086 57.1328 170.273 57.4844C170.469 57.8281 170.719 58.0977 171.023 58.293C171.336 58.4805 171.715 58.5742 172.16 58.5742C172.738 58.5742 173.215 58.4453 173.59 58.1875C173.965 57.9219 174.25 57.5586 174.445 57.0977C174.648 56.6367 174.766 56.1055 174.797 55.5039V53.9688C174.773 53.4766 174.703 53.0352 174.586 52.6445C174.477 52.2461 174.312 51.9062 174.094 51.625C173.883 51.3438 173.617 51.125 173.297 50.9688C172.984 50.8125 172.613 50.7344 172.184 50.7344C171.746 50.7344 171.371 50.8359 171.059 51.0391C170.746 51.2344 170.492 51.5039 170.297 51.8477C170.109 52.1914 169.969 52.5977 169.875 53.0664C169.789 53.5273 169.746 54.0273 169.746 54.5664ZM184.184 59.5703L187.547 48.3203H191.168L186.07 62.9102C185.961 63.2305 185.812 63.5742 185.625 63.9414C185.445 64.3086 185.199 64.6562 184.887 64.9844C184.582 65.3203 184.195 65.5938 183.727 65.8047C183.266 66.0156 182.699 66.1211 182.027 66.1211C181.707 66.1211 181.445 66.1016 181.242 66.0625C181.039 66.0234 180.797 65.9688 180.516 65.8984V63.4258C180.602 63.4258 180.691 63.4258 180.785 63.4258C180.879 63.4336 180.969 63.4375 181.055 63.4375C181.5 63.4375 181.863 63.3867 182.145 63.2852C182.426 63.1836 182.652 63.0273 182.824 62.8164C182.996 62.6133 183.133 62.3477 183.234 62.0195L184.184 59.5703ZM182.777 48.3203L185.531 57.5078L186.012 61.082L183.715 61.3281L179.156 48.3203H182.777ZM200.355 43.9375V61H196.852V43.9375H200.355ZM205.605 43.9375V46.6914H191.684V43.9375H205.605ZM209.953 51.0859V61H206.578V48.3203H209.754L209.953 51.0859ZM213.773 48.2383L213.715 51.3672C213.551 51.3438 213.352 51.3242 213.117 51.3086C212.891 51.2852 212.684 51.2734 212.496 51.2734C212.02 51.2734 211.605 51.3359 211.254 51.4609C210.91 51.5781 210.621 51.7539 210.387 51.9883C210.16 52.2227 209.988 52.5078 209.871 52.8438C209.762 53.1797 209.699 53.5625 209.684 53.9922L209.004 53.7812C209.004 52.9609 209.086 52.207 209.25 51.5195C209.414 50.8242 209.652 50.2188 209.965 49.7031C210.285 49.1875 210.676 48.7891 211.137 48.5078C211.598 48.2266 212.125 48.0859 212.719 48.0859C212.906 48.0859 213.098 48.1016 213.293 48.1328C213.488 48.1562 213.648 48.1914 213.773 48.2383ZM218.93 48.3203V61H215.543V48.3203H218.93ZM215.332 45.0156C215.332 44.5234 215.504 44.1172 215.848 43.7969C216.191 43.4766 216.652 43.3164 217.23 43.3164C217.801 43.3164 218.258 43.4766 218.602 43.7969C218.953 44.1172 219.129 44.5234 219.129 45.0156C219.129 45.5078 218.953 45.9141 218.602 46.2344C218.258 46.5547 217.801 46.7148 217.23 46.7148C216.652 46.7148 216.191 46.5547 215.848 46.2344C215.504 45.9141 215.332 45.5078 215.332 45.0156ZM225.094 50.7578V65.875H221.719V48.3203H224.848L225.094 50.7578ZM233.121 54.5195V54.7656C233.121 55.6875 233.012 56.543 232.793 57.332C232.582 58.1211 232.27 58.8086 231.855 59.3945C231.441 59.9727 230.926 60.4258 230.309 60.7539C229.699 61.0742 228.996 61.2344 228.199 61.2344C227.426 61.2344 226.754 61.0781 226.184 60.7656C225.613 60.4531 225.133 60.0156 224.742 59.4531C224.359 58.8828 224.051 58.2227 223.816 57.4727C223.582 56.7227 223.402 55.918 223.277 55.0586V54.4141C223.402 53.4922 223.582 52.6484 223.816 51.8828C224.051 51.1094 224.359 50.4414 224.742 49.8789C225.133 49.3086 225.609 48.8672 226.172 48.5547C226.742 48.2422 227.41 48.0859 228.176 48.0859C228.98 48.0859 229.688 48.2383 230.297 48.543C230.914 48.8477 231.43 49.2852 231.844 49.8555C232.266 50.4258 232.582 51.1055 232.793 51.8945C233.012 52.6836 233.121 53.5586 233.121 54.5195ZM229.734 54.7656V54.5195C229.734 53.9805 229.688 53.4844 229.594 53.0312C229.508 52.5703 229.367 52.168 229.172 51.8242C228.984 51.4805 228.734 51.2148 228.422 51.0273C228.117 50.832 227.746 50.7344 227.309 50.7344C226.848 50.7344 226.453 50.8086 226.125 50.957C225.805 51.1055 225.543 51.3203 225.34 51.6016C225.137 51.8828 224.984 52.2188 224.883 52.6094C224.781 53 224.719 53.4414 224.695 53.9336V55.5625C224.734 56.1406 224.844 56.6602 225.023 57.1211C225.203 57.5742 225.48 57.9336 225.855 58.1992C226.23 58.4648 226.723 58.5977 227.332 58.5977C227.777 58.5977 228.152 58.5 228.457 58.3047C228.762 58.1016 229.008 57.8242 229.195 57.4727C229.391 57.1211 229.527 56.7148 229.605 56.2539C229.691 55.793 229.734 55.2969 229.734 54.7656Z" fill="#888888"/>
<path d="M104.344 84.875V119H96.1406V84.875H104.344ZM117.727 99.0078V119H109.828V93.6406H117.234L117.727 99.0078ZM116.766 105.453L114.961 105.5C114.961 103.719 115.172 102.078 115.594 100.578C116.016 99.0781 116.641 97.7734 117.469 96.6641C118.297 95.5547 119.312 94.6953 120.516 94.0859C121.734 93.4766 123.141 93.1719 124.734 93.1719C125.844 93.1719 126.852 93.3438 127.758 93.6875C128.664 94.0156 129.445 94.5391 130.102 95.2578C130.758 95.9609 131.258 96.8828 131.602 98.0234C131.961 99.1484 132.141 100.5 132.141 102.078V119H124.242V103.086C124.242 102.008 124.117 101.195 123.867 100.648C123.633 100.102 123.289 99.7344 122.836 99.5469C122.383 99.3594 121.828 99.2656 121.172 99.2656C120.484 99.2656 119.867 99.4219 119.32 99.7344C118.773 100.047 118.305 100.484 117.914 101.047C117.539 101.594 117.25 102.242 117.047 102.992C116.859 103.742 116.766 104.562 116.766 105.453ZM131.25 105.453L129.047 105.5C129.047 103.719 129.242 102.078 129.633 100.578C130.039 99.0781 130.641 97.7734 131.438 96.6641C132.25 95.5547 133.258 94.6953 134.461 94.0859C135.664 93.4766 137.062 93.1719 138.656 93.1719C139.812 93.1719 140.875 93.3438 141.844 93.6875C142.812 94.0312 143.648 94.5859 144.352 95.3516C145.055 96.1172 145.602 97.1328 145.992 98.3984C146.383 99.6484 146.578 101.195 146.578 103.039V119H138.656V103.039C138.656 101.992 138.531 101.203 138.281 100.672C138.047 100.125 137.703 99.7578 137.25 99.5703C136.797 99.3672 136.258 99.2656 135.633 99.2656C134.883 99.2656 134.234 99.4219 133.688 99.7344C133.141 100.047 132.68 100.484 132.305 101.047C131.945 101.594 131.68 102.242 131.508 102.992C131.336 103.742 131.25 104.562 131.25 105.453ZM159.07 98.5156V128.75H151.172V93.6406H158.531L159.07 98.5156ZM174.633 106.016V106.508C174.633 108.352 174.422 110.062 174 111.641C173.578 113.219 172.953 114.594 172.125 115.766C171.297 116.938 170.266 117.852 169.031 118.508C167.812 119.148 166.398 119.469 164.789 119.469C163.273 119.469 161.969 119.133 160.875 118.461C159.781 117.789 158.867 116.859 158.133 115.672C157.398 114.484 156.805 113.125 156.352 111.594C155.898 110.062 155.539 108.445 155.273 106.742V106.109C155.539 104.281 155.898 102.586 156.352 101.023C156.805 99.4453 157.398 98.0703 158.133 96.8984C158.867 95.7266 159.773 94.8125 160.852 94.1562C161.945 93.5 163.25 93.1719 164.766 93.1719C166.375 93.1719 167.789 93.4766 169.008 94.0859C170.242 94.6953 171.273 95.5703 172.102 96.7109C172.945 97.8359 173.578 99.1875 174 100.766C174.422 102.344 174.633 104.094 174.633 106.016ZM166.734 106.508V106.016C166.734 105.031 166.664 104.133 166.523 103.32C166.383 102.492 166.156 101.773 165.844 101.164C165.547 100.555 165.148 100.086 164.648 99.7578C164.148 99.4297 163.531 99.2656 162.797 99.2656C161.953 99.2656 161.242 99.3984 160.664 99.6641C160.102 99.9141 159.648 100.305 159.305 100.836C158.977 101.352 158.742 102 158.602 102.781C158.477 103.547 158.422 104.445 158.438 105.477V107.398C158.406 108.586 158.523 109.633 158.789 110.539C159.055 111.43 159.516 112.125 160.172 112.625C160.828 113.125 161.719 113.375 162.844 113.375C163.594 113.375 164.219 113.203 164.719 112.859C165.219 112.5 165.617 112.008 165.914 111.383C166.211 110.742 166.422 110.008 166.547 109.18C166.672 108.352 166.734 107.461 166.734 106.508ZM186.492 83V119H178.57V83H186.492ZM203.648 119.469C201.586 119.469 199.742 119.148 198.117 118.508C196.492 117.852 195.117 116.953 193.992 115.812C192.883 114.672 192.031 113.359 191.438 111.875C190.859 110.391 190.57 108.82 190.57 107.164V106.273C190.57 104.414 190.828 102.695 191.344 101.117C191.859 99.5234 192.625 98.1328 193.641 96.9453C194.656 95.7578 195.93 94.8359 197.461 94.1797C198.992 93.5078 200.773 93.1719 202.805 93.1719C204.602 93.1719 206.211 93.4609 207.633 94.0391C209.055 94.6172 210.258 95.4453 211.242 96.5234C212.242 97.6016 213 98.9062 213.516 100.438C214.047 101.969 214.312 103.688 214.312 105.594V108.805H193.594V103.859H206.602V103.25C206.617 102.406 206.469 101.688 206.156 101.094C205.859 100.5 205.422 100.047 204.844 99.7344C204.266 99.4219 203.562 99.2656 202.734 99.2656C201.875 99.2656 201.164 99.4531 200.602 99.8281C200.055 100.203 199.625 100.719 199.312 101.375C199.016 102.016 198.805 102.758 198.68 103.602C198.555 104.445 198.492 105.336 198.492 106.273V107.164C198.492 108.102 198.617 108.953 198.867 109.719C199.133 110.484 199.508 111.141 199.992 111.688C200.492 112.219 201.086 112.633 201.773 112.93C202.477 113.227 203.273 113.375 204.164 113.375C205.242 113.375 206.305 113.172 207.352 112.766C208.398 112.359 209.297 111.688 210.047 110.75L213.633 115.016C213.117 115.75 212.383 116.461 211.43 117.148C210.492 117.836 209.367 118.398 208.055 118.836C206.742 119.258 205.273 119.469 203.648 119.469ZM225.492 99.0078V119H217.594V93.6406H225L225.492 99.0078ZM224.531 105.453L222.727 105.5C222.727 103.719 222.938 102.078 223.359 100.578C223.781 99.0781 224.406 97.7734 225.234 96.6641C226.062 95.5547 227.078 94.6953 228.281 94.0859C229.5 93.4766 230.906 93.1719 232.5 93.1719C233.609 93.1719 234.617 93.3438 235.523 93.6875C236.43 94.0156 237.211 94.5391 237.867 95.2578C238.523 95.9609 239.023 96.8828 239.367 98.0234C239.727 99.1484 239.906 100.5 239.906 102.078V119H232.008V103.086C232.008 102.008 231.883 101.195 231.633 100.648C231.398 100.102 231.055 99.7344 230.602 99.5469C230.148 99.3594 229.594 99.2656 228.938 99.2656C228.25 99.2656 227.633 99.4219 227.086 99.7344C226.539 100.047 226.07 100.484 225.68 101.047C225.305 101.594 225.016 102.242 224.812 102.992C224.625 103.742 224.531 104.562 224.531 105.453ZM239.016 105.453L236.812 105.5C236.812 103.719 237.008 102.078 237.398 100.578C237.805 99.0781 238.406 97.7734 239.203 96.6641C240.016 95.5547 241.023 94.6953 242.227 94.0859C243.43 93.4766 244.828 93.1719 246.422 93.1719C247.578 93.1719 248.641 93.3438 249.609 93.6875C250.578 94.0312 251.414 94.5859 252.117 95.3516C252.82 96.1172 253.367 97.1328 253.758 98.3984C254.148 99.6484 254.344 101.195 254.344 103.039V119H246.422V103.039C246.422 101.992 246.297 101.203 246.047 100.672C245.812 100.125 245.469 99.7578 245.016 99.5703C244.562 99.3672 244.023 99.2656 243.398 99.2656C242.648 99.2656 242 99.4219 241.453 99.7344C240.906 100.047 240.445 100.484 240.07 101.047C239.711 101.594 239.445 102.242 239.273 102.992C239.102 103.742 239.016 104.562 239.016 105.453ZM271.148 119.469C269.086 119.469 267.242 119.148 265.617 118.508C263.992 117.852 262.617 116.953 261.492 115.812C260.383 114.672 259.531 113.359 258.938 111.875C258.359 110.391 258.07 108.82 258.07 107.164V106.273C258.07 104.414 258.328 102.695 258.844 101.117C259.359 99.5234 260.125 98.1328 261.141 96.9453C262.156 95.7578 263.43 94.8359 264.961 94.1797C266.492 93.5078 268.273 93.1719 270.305 93.1719C272.102 93.1719 273.711 93.4609 275.133 94.0391C276.555 94.6172 277.758 95.4453 278.742 96.5234C279.742 97.6016 280.5 98.9062 281.016 100.438C281.547 101.969 281.812 103.688 281.812 105.594V108.805H261.094V103.859H274.102V103.25C274.117 102.406 273.969 101.688 273.656 101.094C273.359 100.5 272.922 100.047 272.344 99.7344C271.766 99.4219 271.062 99.2656 270.234 99.2656C269.375 99.2656 268.664 99.4531 268.102 99.8281C267.555 100.203 267.125 100.719 266.812 101.375C266.516 102.016 266.305 102.758 266.18 103.602C266.055 104.445 265.992 105.336 265.992 106.273V107.164C265.992 108.102 266.117 108.953 266.367 109.719C266.633 110.484 267.008 111.141 267.492 111.688C267.992 112.219 268.586 112.633 269.273 112.93C269.977 113.227 270.773 113.375 271.664 113.375C272.742 113.375 273.805 113.172 274.852 112.766C275.898 112.359 276.797 111.688 277.547 110.75L281.133 115.016C280.617 115.75 279.883 116.461 278.93 117.148C277.992 117.836 276.867 118.398 275.555 118.836C274.242 119.258 272.773 119.469 271.148 119.469ZM292.781 99.0547V119H284.883V93.6406H292.289L292.781 99.0547ZM291.844 105.453L289.992 105.5C289.992 103.562 290.227 101.836 290.695 100.32C291.164 98.7891 291.828 97.4922 292.688 96.4297C293.547 95.3672 294.57 94.5625 295.758 94.0156C296.961 93.4531 298.297 93.1719 299.766 93.1719C300.938 93.1719 302.008 93.3438 302.977 93.6875C303.961 94.0312 304.805 94.5859 305.508 95.3516C306.227 96.1172 306.773 97.1328 307.148 98.3984C307.539 99.6484 307.734 101.195 307.734 103.039V119H299.789V103.016C299.789 102 299.648 101.227 299.367 100.695C299.086 100.148 298.68 99.7734 298.148 99.5703C297.617 99.3672 296.969 99.2656 296.203 99.2656C295.391 99.2656 294.703 99.4219 294.141 99.7344C293.578 100.047 293.125 100.484 292.781 101.047C292.453 101.594 292.211 102.242 292.055 102.992C291.914 103.742 291.844 104.562 291.844 105.453ZM325.477 93.6406V99.125H310.195V93.6406H325.477ZM313.406 87.3359H321.305V110.727C321.305 111.398 321.383 111.922 321.539 112.297C321.695 112.656 321.961 112.914 322.336 113.07C322.727 113.211 323.242 113.281 323.883 113.281C324.336 113.281 324.711 113.273 325.008 113.258C325.305 113.227 325.586 113.188 325.852 113.141V118.789C325.18 119.008 324.477 119.172 323.742 119.281C323.008 119.406 322.227 119.469 321.398 119.469C319.711 119.469 318.266 119.203 317.062 118.672C315.875 118.141 314.969 117.305 314.344 116.164C313.719 115.023 313.406 113.539 313.406 111.711V87.3359ZM341.789 112.625V102.172C341.789 101.453 341.688 100.836 341.484 100.32C341.281 99.8047 340.961 99.4062 340.523 99.125C340.086 98.8281 339.5 98.6797 338.766 98.6797C338.172 98.6797 337.664 98.7812 337.242 98.9844C336.82 99.1875 336.5 99.4922 336.281 99.8984C336.062 100.305 335.953 100.82 335.953 101.445H328.055C328.055 100.273 328.312 99.1875 328.828 98.1875C329.359 97.1719 330.109 96.2891 331.078 95.5391C332.062 94.7891 333.234 94.2109 334.594 93.8047C335.969 93.3828 337.5 93.1719 339.188 93.1719C341.203 93.1719 343 93.5078 344.578 94.1797C346.172 94.8516 347.43 95.8594 348.352 97.2031C349.273 98.5312 349.734 100.203 349.734 102.219V112.602C349.734 114.258 349.828 115.516 350.016 116.375C350.203 117.219 350.469 117.961 350.812 118.602V119H342.891C342.516 118.219 342.234 117.266 342.047 116.141C341.875 115 341.789 113.828 341.789 112.625ZM342.75 103.508L342.797 107.727H339.305C338.57 107.727 337.945 107.828 337.43 108.031C336.93 108.234 336.523 108.516 336.211 108.875C335.914 109.219 335.695 109.609 335.555 110.047C335.43 110.484 335.367 110.945 335.367 111.43C335.367 111.898 335.477 112.32 335.695 112.695C335.93 113.055 336.242 113.336 336.633 113.539C337.023 113.742 337.461 113.844 337.945 113.844C338.82 113.844 339.562 113.68 340.172 113.352C340.797 113.008 341.273 112.594 341.602 112.109C341.93 111.625 342.094 111.172 342.094 110.75L343.828 113.984C343.516 114.609 343.156 115.242 342.75 115.883C342.359 116.523 341.867 117.117 341.273 117.664C340.695 118.195 339.984 118.633 339.141 118.977C338.297 119.305 337.273 119.469 336.07 119.469C334.508 119.469 333.07 119.148 331.758 118.508C330.461 117.867 329.422 116.977 328.641 115.836C327.859 114.68 327.469 113.352 327.469 111.852C327.469 110.539 327.703 109.367 328.172 108.336C328.656 107.305 329.383 106.43 330.352 105.711C331.32 104.992 332.555 104.445 334.055 104.07C335.555 103.695 337.32 103.508 339.352 103.508H342.75ZM367.477 93.6406V99.125H352.195V93.6406H367.477ZM355.406 87.3359H363.305V110.727C363.305 111.398 363.383 111.922 363.539 112.297C363.695 112.656 363.961 112.914 364.336 113.07C364.727 113.211 365.242 113.281 365.883 113.281C366.336 113.281 366.711 113.273 367.008 113.258C367.305 113.227 367.586 113.188 367.852 113.141V118.789C367.18 119.008 366.477 119.172 365.742 119.281C365.008 119.406 364.227 119.469 363.398 119.469C361.711 119.469 360.266 119.203 359.062 118.672C357.875 118.141 356.969 117.305 356.344 116.164C355.719 115.023 355.406 113.539 355.406 111.711V87.3359ZM378.961 93.6406V119H371.039V93.6406H378.961ZM370.57 87.1016C370.57 85.9766 370.977 85.0547 371.789 84.3359C372.602 83.6172 373.656 83.2578 374.953 83.2578C376.25 83.2578 377.305 83.6172 378.117 84.3359C378.93 85.0547 379.336 85.9766 379.336 87.1016C379.336 88.2266 378.93 89.1484 378.117 89.8672C377.305 90.5859 376.25 90.9453 374.953 90.9453C373.656 90.9453 372.602 90.5859 371.789 89.8672C370.977 89.1484 370.57 88.2266 370.57 87.1016ZM382.852 106.578V106.086C382.852 104.227 383.117 102.516 383.648 100.953C384.18 99.375 384.961 98.0078 385.992 96.8516C387.023 95.6953 388.297 94.7969 389.812 94.1562C391.328 93.5 393.078 93.1719 395.062 93.1719C397.062 93.1719 398.82 93.5 400.336 94.1562C401.867 94.7969 403.148 95.6953 404.18 96.8516C405.211 98.0078 405.992 99.375 406.523 100.953C407.055 102.516 407.32 104.227 407.32 106.086V106.578C407.32 108.422 407.055 110.133 406.523 111.711C405.992 113.273 405.211 114.641 404.18 115.812C403.148 116.969 401.875 117.867 400.359 118.508C398.844 119.148 397.094 119.469 395.109 119.469C393.125 119.469 391.367 119.148 389.836 118.508C388.305 117.867 387.023 116.969 385.992 115.812C384.961 114.641 384.18 113.273 383.648 111.711C383.117 110.133 382.852 108.422 382.852 106.578ZM390.75 106.086V106.578C390.75 107.531 390.82 108.422 390.961 109.25C391.102 110.078 391.336 110.805 391.664 111.43C391.992 112.039 392.438 112.516 393 112.859C393.562 113.203 394.266 113.375 395.109 113.375C395.938 113.375 396.625 113.203 397.172 112.859C397.734 112.516 398.18 112.039 398.508 111.43C398.836 110.805 399.07 110.078 399.211 109.25C399.352 108.422 399.422 107.531 399.422 106.578V106.086C399.422 105.164 399.352 104.297 399.211 103.484C399.07 102.656 398.836 101.93 398.508 101.305C398.18 100.664 397.734 100.164 397.172 99.8047C396.609 99.4453 395.906 99.2656 395.062 99.2656C394.234 99.2656 393.539 99.4453 392.977 99.8047C392.43 100.164 391.992 100.664 391.664 101.305C391.336 101.93 391.102 102.656 390.961 103.484C390.82 104.297 390.75 105.164 390.75 106.086ZM418.594 99.0547V119H410.695V93.6406H418.102L418.594 99.0547ZM417.656 105.453L415.805 105.5C415.805 103.562 416.039 101.836 416.508 100.32C416.977 98.7891 417.641 97.4922 418.5 96.4297C419.359 95.3672 420.383 94.5625 421.57 94.0156C422.773 93.4531 424.109 93.1719 425.578 93.1719C426.75 93.1719 427.82 93.3438 428.789 93.6875C429.773 94.0312 430.617 94.5859 431.32 95.3516C432.039 96.1172 432.586 97.1328 432.961 98.3984C433.352 99.6484 433.547 101.195 433.547 103.039V119H425.602V103.016C425.602 102 425.461 101.227 425.18 100.695C424.898 100.148 424.492 99.7734 423.961 99.5703C423.43 99.3672 422.781 99.2656 422.016 99.2656C421.203 99.2656 420.516 99.4219 419.953 99.7344C419.391 100.047 418.938 100.484 418.594 101.047C418.266 101.594 418.023 102.242 417.867 102.992C417.727 103.742 417.656 104.562 417.656 105.453Z" fill="black"/>
<path d="M1134 0H1348C1356.28 0 1363 6.71573 1363 15V148C1363 156.284 1356.28 163 1348 163H1134V0Z" fill="#2D9596"/>
<path d="M1280.07 47.5H1216.93L1214.5 49.9286V113.071L1216.93 115.5H1280.07L1282.5 113.071V49.9286L1280.07 47.5ZM1277.64 110.643H1233.93V100.929H1245.1C1246.56 103.843 1249.96 105.786 1253.36 105.786C1258.7 105.786 1263.07 101.414 1263.07 96.0714C1263.07 90.7286 1258.7 86.3571 1253.36 86.3571C1248.01 86.3571 1243.64 90.7286 1243.64 96.0714H1229.07V110.643H1219.36V52.3571H1229.07V63.5286C1226.16 64.9857 1224.21 68.3857 1224.21 71.7857C1224.21 77.1286 1228.59 81.5 1233.93 81.5C1239.27 81.5 1243.64 77.1286 1243.64 71.7857H1253.36C1253.36 77.1286 1257.73 81.5 1263.07 81.5C1268.41 81.5 1272.79 77.1286 1272.79 71.7857C1272.79 66.4429 1268.41 62.0714 1263.07 62.0714C1259.67 62.0714 1256.27 64.0143 1254.81 66.9286H1242.19C1240.73 64.0143 1237.33 62.0714 1233.93 62.0714V52.3571H1277.64V110.643ZM1248.5 96.0714C1248.5 93.1571 1250.44 91.2143 1253.36 91.2143C1256.27 91.2143 1258.21 93.1571 1258.21 96.0714C1258.21 98.9857 1256.27 100.929 1253.36 100.929C1250.44 100.929 1248.5 98.9857 1248.5 96.0714ZM1233.93 66.9286C1236.84 66.9286 1238.79 68.8714 1238.79 71.7857C1238.79 74.7 1236.84 76.6429 1233.93 76.6429C1231.01 76.6429 1229.07 74.7 1229.07 71.7857C1229.07 68.8714 1231.01 66.9286 1233.93 66.9286ZM1263.07 66.9286C1265.99 66.9286 1267.93 68.8714 1267.93 71.7857C1267.93 74.7 1265.99 76.6429 1263.07 76.6429C1260.16 76.6429 1258.21 74.7 1258.21 71.7857C1258.21 68.8714 1260.16 66.9286 1263.07 66.9286Z" fill="white"/>
</svg>
