<svg width="1363" height="163" viewBox="0 0 1363 163" fill="none" xmlns="http://www.w3.org/2000/svg">
<path d="M0 15C0 6.71573 6.71573 0 15 0H37V163H15C6.71573 163 0 156.284 0 148V15Z" fill="#424242"/>
<rect width="1097" height="163" transform="translate(37)" fill="#F0F0F0"/>
<path d="M101.906 53.9219L94.3945 51.2383V48.0859L104.602 52.375V54.6367L101.906 53.9219ZM94.3945 56.1719L101.918 53.4297L104.602 52.7852V55.0352L94.3945 59.3242V56.1719ZM121.781 56.5352C121.781 56.2305 121.734 55.957 121.641 55.7148C121.555 55.4648 121.391 55.2383 121.148 55.0352C120.906 54.8242 120.566 54.6172 120.129 54.4141C119.691 54.2109 119.125 54 118.43 53.7812C117.656 53.5312 116.922 53.25 116.227 52.9375C115.539 52.625 114.93 52.2617 114.398 51.8477C113.875 51.4258 113.461 50.9375 113.156 50.3828C112.859 49.8281 112.711 49.1836 112.711 48.4492C112.711 47.7383 112.867 47.0938 113.18 46.5156C113.492 45.9297 113.93 45.4297 114.492 45.0156C115.055 44.5938 115.719 44.2695 116.484 44.043C117.258 43.8164 118.105 43.7031 119.027 43.7031C120.285 43.7031 121.383 43.9297 122.32 44.3828C123.258 44.8359 123.984 45.457 124.5 46.2461C125.023 47.0352 125.285 47.9375 125.285 48.9531H121.793C121.793 48.4531 121.688 48.0156 121.477 47.6406C121.273 47.2578 120.961 46.957 120.539 46.7383C120.125 46.5195 119.602 46.4102 118.969 46.4102C118.359 46.4102 117.852 46.5039 117.445 46.6914C117.039 46.8711 116.734 47.1172 116.531 47.4297C116.328 47.7344 116.227 48.0781 116.227 48.4609C116.227 48.75 116.297 49.0117 116.438 49.2461C116.586 49.4805 116.805 49.6992 117.094 49.9023C117.383 50.1055 117.738 50.2969 118.16 50.4766C118.582 50.6562 119.07 50.832 119.625 51.0039C120.555 51.2852 121.371 51.6016 122.074 51.9531C122.785 52.3047 123.379 52.6992 123.855 53.1367C124.332 53.5742 124.691 54.0703 124.934 54.625C125.176 55.1797 125.297 55.8086 125.297 56.5117C125.297 57.2539 125.152 57.918 124.863 58.5039C124.574 59.0898 124.156 59.5859 123.609 59.9922C123.062 60.3984 122.41 60.707 121.652 60.918C120.895 61.1289 120.047 61.2344 119.109 61.2344C118.266 61.2344 117.434 61.125 116.613 60.9062C115.793 60.6797 115.047 60.3398 114.375 59.8867C113.711 59.4336 113.18 58.8555 112.781 58.1523C112.383 57.4492 112.184 56.6172 112.184 55.6562H115.711C115.711 56.1875 115.793 56.6367 115.957 57.0039C116.121 57.3711 116.352 57.668 116.648 57.8945C116.953 58.1211 117.312 58.2852 117.727 58.3867C118.148 58.4883 118.609 58.5391 119.109 58.5391C119.719 58.5391 120.219 58.4531 120.609 58.2812C121.008 58.1094 121.301 57.8711 121.488 57.5664C121.684 57.2617 121.781 56.918 121.781 56.5352ZM130.852 50.7578V65.875H127.477V48.3203H130.605L130.852 50.7578ZM138.879 54.5195V54.7656C138.879 55.6875 138.77 56.543 138.551 57.332C138.34 58.1211 138.027 58.8086 137.613 59.3945C137.199 59.9727 136.684 60.4258 136.066 60.7539C135.457 61.0742 134.754 61.2344 133.957 61.2344C133.184 61.2344 132.512 61.0781 131.941 60.7656C131.371 60.4531 130.891 60.0156 130.5 59.4531C130.117 58.8828 129.809 58.2227 129.574 57.4727C129.34 56.7227 129.16 55.918 129.035 55.0586V54.4141C129.16 53.4922 129.34 52.6484 129.574 51.8828C129.809 51.1094 130.117 50.4414 130.5 49.8789C130.891 49.3086 131.367 48.8672 131.93 48.5547C132.5 48.2422 133.168 48.0859 133.934 48.0859C134.738 48.0859 135.445 48.2383 136.055 48.543C136.672 48.8477 137.188 49.2852 137.602 49.8555C138.023 50.4258 138.34 51.1055 138.551 51.8945C138.77 52.6836 138.879 53.5586 138.879 54.5195ZM135.492 54.7656V54.5195C135.492 53.9805 135.445 53.4844 135.352 53.0312C135.266 52.5703 135.125 52.168 134.93 51.8242C134.742 51.4805 134.492 51.2148 134.18 51.0273C133.875 50.832 133.504 50.7344 133.066 50.7344C132.605 50.7344 132.211 50.8086 131.883 50.957C131.562 51.1055 131.301 51.3203 131.098 51.6016C130.895 51.8828 130.742 52.2188 130.641 52.6094C130.539 53 130.477 53.4414 130.453 53.9336V55.5625C130.492 56.1406 130.602 56.6602 130.781 57.1211C130.961 57.5742 131.238 57.9336 131.613 58.1992C131.988 58.4648 132.48 58.5977 133.09 58.5977C133.535 58.5977 133.91 58.5 134.215 58.3047C134.52 58.1016 134.766 57.8242 134.953 57.4727C135.148 57.1211 135.285 56.7148 135.363 56.2539C135.449 55.793 135.492 55.2969 135.492 54.7656ZM146.812 61.2344C145.828 61.2344 144.945 61.0781 144.164 60.7656C143.383 60.4453 142.719 60.0039 142.172 59.4414C141.633 58.8789 141.219 58.2266 140.93 57.4844C140.641 56.7344 140.496 55.9375 140.496 55.0938V54.625C140.496 53.6641 140.633 52.7852 140.906 51.9883C141.18 51.1914 141.57 50.5 142.078 49.9141C142.594 49.3281 143.219 48.8789 143.953 48.5664C144.688 48.2461 145.516 48.0859 146.438 48.0859C147.336 48.0859 148.133 48.2344 148.828 48.5312C149.523 48.8281 150.105 49.25 150.574 49.7969C151.051 50.3438 151.41 51 151.652 51.7656C151.895 52.5234 152.016 53.3672 152.016 54.2969V55.7031H141.938V53.4531H148.699V53.1953C148.699 52.7266 148.613 52.3086 148.441 51.9414C148.277 51.5664 148.027 51.2695 147.691 51.0508C147.355 50.832 146.926 50.7227 146.402 50.7227C145.957 50.7227 145.574 50.8203 145.254 51.0156C144.934 51.2109 144.672 51.4844 144.469 51.8359C144.273 52.1875 144.125 52.6016 144.023 53.0781C143.93 53.5469 143.883 54.0625 143.883 54.625V55.0938C143.883 55.6016 143.953 56.0703 144.094 56.5C144.242 56.9297 144.449 57.3008 144.715 57.6133C144.988 57.9258 145.316 58.168 145.699 58.3398C146.09 58.5117 146.531 58.5977 147.023 58.5977C147.633 58.5977 148.199 58.4805 148.723 58.2461C149.254 58.0039 149.711 57.6406 150.094 57.1562L151.734 58.9375C151.469 59.3203 151.105 59.6875 150.645 60.0391C150.191 60.3906 149.645 60.6797 149.004 60.9062C148.363 61.125 147.633 61.2344 146.812 61.2344ZM159.773 61.2344C158.789 61.2344 157.906 61.0781 157.125 60.7656C156.344 60.4453 155.68 60.0039 155.133 59.4414C154.594 58.8789 154.18 58.2266 153.891 57.4844C153.602 56.7344 153.457 55.9375 153.457 55.0938V54.625C153.457 53.6641 153.594 52.7852 153.867 51.9883C154.141 51.1914 154.531 50.5 155.039 49.9141C155.555 49.3281 156.18 48.8789 156.914 48.5664C157.648 48.2461 158.477 48.0859 159.398 48.0859C160.297 48.0859 161.094 48.2344 161.789 48.5312C162.484 48.8281 163.066 49.25 163.535 49.7969C164.012 50.3438 164.371 51 164.613 51.7656C164.855 52.5234 164.977 53.3672 164.977 54.2969V55.7031H154.898V53.4531H161.66V53.1953C161.66 52.7266 161.574 52.3086 161.402 51.9414C161.238 51.5664 160.988 51.2695 160.652 51.0508C160.316 50.832 159.887 50.7227 159.363 50.7227C158.918 50.7227 158.535 50.8203 158.215 51.0156C157.895 51.2109 157.633 51.4844 157.43 51.8359C157.234 52.1875 157.086 52.6016 156.984 53.0781C156.891 53.5469 156.844 54.0625 156.844 54.625V55.0938C156.844 55.6016 156.914 56.0703 157.055 56.5C157.203 56.9297 157.41 57.3008 157.676 57.6133C157.949 57.9258 158.277 58.168 158.66 58.3398C159.051 58.5117 159.492 58.5977 159.984 58.5977C160.594 58.5977 161.16 58.4805 161.684 58.2461C162.215 58.0039 162.672 57.6406 163.055 57.1562L164.695 58.9375C164.43 59.3203 164.066 59.6875 163.605 60.0391C163.152 60.3906 162.605 60.6797 161.965 60.9062C161.324 61.125 160.594 61.2344 159.773 61.2344ZM174.387 58.2344V43H177.785V61H174.727L174.387 58.2344ZM166.371 54.8125V54.5664C166.371 53.5977 166.48 52.7188 166.699 51.9297C166.918 51.1328 167.238 50.4492 167.66 49.8789C168.082 49.3086 168.602 48.8672 169.219 48.5547C169.836 48.2422 170.539 48.0859 171.328 48.0859C172.07 48.0859 172.719 48.2422 173.273 48.5547C173.836 48.8672 174.312 49.3125 174.703 49.8906C175.102 50.4609 175.422 51.1367 175.664 51.918C175.906 52.6914 176.082 53.5391 176.191 54.4609V55C176.082 55.8828 175.906 56.7031 175.664 57.4609C175.422 58.2188 175.102 58.8828 174.703 59.4531C174.312 60.0156 173.836 60.4531 173.273 60.7656C172.711 61.0781 172.055 61.2344 171.305 61.2344C170.516 61.2344 169.812 61.0742 169.195 60.7539C168.586 60.4336 168.07 59.9844 167.648 59.4062C167.234 58.8281 166.918 58.1484 166.699 57.3672C166.48 56.5859 166.371 55.7344 166.371 54.8125ZM169.746 54.5664V54.8125C169.746 55.3359 169.785 55.8242 169.863 56.2773C169.949 56.7305 170.086 57.1328 170.273 57.4844C170.469 57.8281 170.719 58.0977 171.023 58.293C171.336 58.4805 171.715 58.5742 172.16 58.5742C172.738 58.5742 173.215 58.4453 173.59 58.1875C173.965 57.9219 174.25 57.5586 174.445 57.0977C174.648 56.6367 174.766 56.1055 174.797 55.5039V53.9688C174.773 53.4766 174.703 53.0352 174.586 52.6445C174.477 52.2461 174.312 51.9062 174.094 51.625C173.883 51.3438 173.617 51.125 173.297 50.9688C172.984 50.8125 172.613 50.7344 172.184 50.7344C171.746 50.7344 171.371 50.8359 171.059 51.0391C170.746 51.2344 170.492 51.5039 170.297 51.8477C170.109 52.1914 169.969 52.5977 169.875 53.0664C169.789 53.5273 169.746 54.0273 169.746 54.5664ZM184.184 59.5703L187.547 48.3203H191.168L186.07 62.9102C185.961 63.2305 185.812 63.5742 185.625 63.9414C185.445 64.3086 185.199 64.6562 184.887 64.9844C184.582 65.3203 184.195 65.5938 183.727 65.8047C183.266 66.0156 182.699 66.1211 182.027 66.1211C181.707 66.1211 181.445 66.1016 181.242 66.0625C181.039 66.0234 180.797 65.9688 180.516 65.8984V63.4258C180.602 63.4258 180.691 63.4258 180.785 63.4258C180.879 63.4336 180.969 63.4375 181.055 63.4375C181.5 63.4375 181.863 63.3867 182.145 63.2852C182.426 63.1836 182.652 63.0273 182.824 62.8164C182.996 62.6133 183.133 62.3477 183.234 62.0195L184.184 59.5703ZM182.777 48.3203L185.531 57.5078L186.012 61.082L183.715 61.3281L179.156 48.3203H182.777ZM200.355 43.9375V61H196.852V43.9375H200.355ZM205.605 43.9375V46.6914H191.684V43.9375H205.605ZM209.953 51.0859V61H206.578V48.3203H209.754L209.953 51.0859ZM213.773 48.2383L213.715 51.3672C213.551 51.3438 213.352 51.3242 213.117 51.3086C212.891 51.2852 212.684 51.2734 212.496 51.2734C212.02 51.2734 211.605 51.3359 211.254 51.4609C210.91 51.5781 210.621 51.7539 210.387 51.9883C210.16 52.2227 209.988 52.5078 209.871 52.8438C209.762 53.1797 209.699 53.5625 209.684 53.9922L209.004 53.7812C209.004 52.9609 209.086 52.207 209.25 51.5195C209.414 50.8242 209.652 50.2188 209.965 49.7031C210.285 49.1875 210.676 48.7891 211.137 48.5078C211.598 48.2266 212.125 48.0859 212.719 48.0859C212.906 48.0859 213.098 48.1016 213.293 48.1328C213.488 48.1562 213.648 48.1914 213.773 48.2383ZM218.93 48.3203V61H215.543V48.3203H218.93ZM215.332 45.0156C215.332 44.5234 215.504 44.1172 215.848 43.7969C216.191 43.4766 216.652 43.3164 217.23 43.3164C217.801 43.3164 218.258 43.4766 218.602 43.7969C218.953 44.1172 219.129 44.5234 219.129 45.0156C219.129 45.5078 218.953 45.9141 218.602 46.2344C218.258 46.5547 217.801 46.7148 217.23 46.7148C216.652 46.7148 216.191 46.5547 215.848 46.2344C215.504 45.9141 215.332 45.5078 215.332 45.0156ZM225.094 50.7578V65.875H221.719V48.3203H224.848L225.094 50.7578ZM233.121 54.5195V54.7656C233.121 55.6875 233.012 56.543 232.793 57.332C232.582 58.1211 232.27 58.8086 231.855 59.3945C231.441 59.9727 230.926 60.4258 230.309 60.7539C229.699 61.0742 228.996 61.2344 228.199 61.2344C227.426 61.2344 226.754 61.0781 226.184 60.7656C225.613 60.4531 225.133 60.0156 224.742 59.4531C224.359 58.8828 224.051 58.2227 223.816 57.4727C223.582 56.7227 223.402 55.918 223.277 55.0586V54.4141C223.402 53.4922 223.582 52.6484 223.816 51.8828C224.051 51.1094 224.359 50.4414 224.742 49.8789C225.133 49.3086 225.609 48.8672 226.172 48.5547C226.742 48.2422 227.41 48.0859 228.176 48.0859C228.98 48.0859 229.688 48.2383 230.297 48.543C230.914 48.8477 231.43 49.2852 231.844 49.8555C232.266 50.4258 232.582 51.1055 232.793 51.8945C233.012 52.6836 233.121 53.5586 233.121 54.5195ZM229.734 54.7656V54.5195C229.734 53.9805 229.688 53.4844 229.594 53.0312C229.508 52.5703 229.367 52.168 229.172 51.8242C228.984 51.4805 228.734 51.2148 228.422 51.0273C228.117 50.832 227.746 50.7344 227.309 50.7344C226.848 50.7344 226.453 50.8086 226.125 50.957C225.805 51.1055 225.543 51.3203 225.34 51.6016C225.137 51.8828 224.984 52.2188 224.883 52.6094C224.781 53 224.719 53.4414 224.695 53.9336V55.5625C224.734 56.1406 224.844 56.6602 225.023 57.1211C225.203 57.5742 225.48 57.9336 225.855 58.1992C226.23 58.4648 226.723 58.5977 227.332 58.5977C227.777 58.5977 228.152 58.5 228.457 58.3047C228.762 58.1016 229.008 57.8242 229.195 57.4727C229.391 57.1211 229.527 56.7148 229.605 56.2539C229.691 55.793 229.734 55.2969 229.734 54.7656Z" fill="#888888"/>
<path d="M114.117 84.875H122.344V107.164C122.344 109.82 121.789 112.07 120.68 113.914C119.57 115.742 118.016 117.125 116.016 118.062C114.016 119 111.664 119.469 108.961 119.469C106.289 119.469 103.938 119 101.906 118.062C99.8906 117.125 98.3125 115.742 97.1719 113.914C96.0469 112.07 95.4844 109.82 95.4844 107.164V84.875H103.734V107.164C103.734 108.57 103.938 109.719 104.344 110.609C104.75 111.484 105.344 112.125 106.125 112.531C106.906 112.938 107.852 113.141 108.961 113.141C110.086 113.141 111.031 112.938 111.797 112.531C112.562 112.125 113.141 111.484 113.531 110.609C113.922 109.719 114.117 108.57 114.117 107.164V84.875ZM136.266 84.875V119H128.062V84.875H136.266ZM172.523 84.875H180.75V107.164C180.75 109.82 180.195 112.07 179.086 113.914C177.977 115.742 176.422 117.125 174.422 118.062C172.422 119 170.07 119.469 167.367 119.469C164.695 119.469 162.344 119 160.312 118.062C158.297 117.125 156.719 115.742 155.578 113.914C154.453 112.07 153.891 109.82 153.891 107.164V84.875H162.141V107.164C162.141 108.57 162.344 109.719 162.75 110.609C163.156 111.484 163.75 112.125 164.531 112.531C165.312 112.938 166.258 113.141 167.367 113.141C168.492 113.141 169.438 112.938 170.203 112.531C170.969 112.125 171.547 111.484 171.938 110.609C172.328 109.719 172.523 108.57 172.523 107.164V84.875ZM193.078 84.875L198.656 96.2188L204.234 84.875H213.609L204.094 101.797L213.867 119H204.398L198.656 107.445L192.914 119H183.422L193.219 101.797L183.68 84.875H193.078Z" fill="black"/>
<path d="M1134 0H1348C1356.28 0 1363 6.71573 1363 15V148C1363 156.284 1356.28 163 1348 163H1134V0Z" fill="#2D9596"/>
<path d="M1248.5 111.917C1244.51 111.917 1240.55 111.13 1236.86 109.601C1233.17 108.073 1229.82 105.832 1226.99 103.008C1221.29 97.3036 1218.08 89.567 1218.08 81.5C1218.08 73.433 1221.29 65.6964 1226.99 59.9922C1232.7 54.2879 1240.43 51.0833 1248.5 51.0833C1265.23 51.0833 1278.92 63.25 1278.92 78.4583C1278.92 83.2985 1276.99 87.9405 1273.57 91.363C1270.15 94.7856 1265.51 96.7083 1260.67 96.7083H1255.19C1254.28 96.7083 1253.67 97.3167 1253.67 98.2292C1253.67 98.5333 1253.98 98.8375 1253.98 99.1417C1255.19 100.663 1255.8 102.488 1255.8 104.313C1256.1 108.571 1252.76 111.917 1248.5 111.917ZM1248.5 57.1667C1242.05 57.1667 1235.86 59.7304 1231.29 64.2937C1226.73 68.8571 1224.17 75.0464 1224.17 81.5C1224.17 87.9536 1226.73 94.1429 1231.29 98.7063C1235.86 103.27 1242.05 105.833 1248.5 105.833C1249.41 105.833 1250.02 105.225 1250.02 104.313C1250.02 103.704 1249.72 103.4 1249.72 103.096C1248.5 101.575 1247.89 100.054 1247.89 98.2292C1247.89 93.9708 1251.24 90.625 1255.5 90.625H1260.67C1263.89 90.625 1266.99 89.3432 1269.27 87.0615C1271.55 84.7798 1272.83 81.6851 1272.83 78.4583C1272.83 66.5958 1261.88 57.1667 1248.5 57.1667ZM1231.77 75.4167C1234.2 75.4167 1236.33 77.5458 1236.33 79.9792C1236.33 82.4125 1234.2 84.5417 1231.77 84.5417C1229.34 84.5417 1227.21 82.4125 1227.21 79.9792C1227.21 77.5458 1229.34 75.4167 1231.77 75.4167ZM1240.9 63.25C1243.33 63.25 1245.46 65.3792 1245.46 67.8125C1245.46 70.2458 1243.33 72.375 1240.9 72.375C1238.46 72.375 1236.33 70.2458 1236.33 67.8125C1236.33 65.3792 1238.46 63.25 1240.9 63.25ZM1256.1 63.25C1258.54 63.25 1260.67 65.3792 1260.67 67.8125C1260.67 70.2458 1258.54 72.375 1256.1 72.375C1253.67 72.375 1251.54 70.2458 1251.54 67.8125C1251.54 65.3792 1253.67 63.25 1256.1 63.25ZM1265.23 75.4167C1267.66 75.4167 1269.79 77.5458 1269.79 79.9792C1269.79 82.4125 1267.66 84.5417 1265.23 84.5417C1262.8 84.5417 1260.67 82.4125 1260.67 79.9792C1260.67 77.5458 1262.8 75.4167 1265.23 75.4167Z" fill="white"/>
</svg>
